Perun-Regular.ufo
<glyph name="quotedbl" format="2">
  <advance width="451"/>
  <unicode hex="0022"/>
  <outline>
    <contour>
      <point x="93" y="434" type="line"/>
      <point x="70" y="722" type="line"/>
      <point x="176" y="722" type="line"/>
      <point x="153" y="434" type="line"/>
    </contour>
    <contour>
      <point x="299" y="434" type="line"/>
      <point x="276" y="722" type="line"/>
      <point x="382" y="722" type="line"/>
      <point x="359" y="434" type="line"/>
    </contour>
  </outline>
</glyph>
<glyph name="dollar" format="2">
	<unicode hex="0024"/>
	<advance width="558"/>
	<outline>
		<contour>
			<point x="307" y="73" type="line"/>
			<point x="381" y="73"/>
			<point x="423" y="116"/>
			<point x="423" y="195" type="curve" smooth="yes"/>
			<point x="423" y="262"/>
			<point x="393" y="295"/>
			<point x="307" y="317" type="curve"/>
		</contour>
		<contour>
			<point x="44" y="538" type="curve" smooth="yes"/>
			<point x="44" y="635"/>
			<point x="138" y="715"/>
			<point x="251" y="715" type="curve"/>
			<point x="251" y="795" type="line"/>
			<point x="307" y="795" type="line"/>
			<point x="307" y="715" type="line"/>
			<point x="434" y="715"/>
			<point x="495" y="653"/>
			<point x="495" y="524" type="curve"/>
			<point x="394" y="524" type="line"/>
			<point x="394" y="596"/>
			<point x="368" y="628"/>
			<point x="307" y="628" type="curve"/>
			<point x="307" y="408" type="line"/>
			<point x="432" y="375"/>
			<point x="524" y="328"/>
			<point x="524" y="193" type="curve" smooth="yes"/>
			<point x="524" y="65"/>
			<point x="442" y="-14"/>
			<point x="307" y="-14" type="curve"/>
			<point x="307" y="-105" type="line"/>
			<point x="251" y="-105" type="line"/>
			<point x="251" y="-14" type="line"/>
			<point x="114" y="-14"/>
			<point x="35" y="67"/>
			<point x="35" y="208" type="curve"/>
			<point x="136" y="208" type="line"/>
			<point x="136" y="117"/>
			<point x="173" y="73"/>
			<point x="251" y="73" type="curve"/>
			<point x="251" y="321" type="line"/>
			<point x="98" y="364"/>
			<point x="44" y="421"/>
		</contour>
		<contour>
			<point x="251" y="420" type="curve"/>
			<point x="251" y="628" type="line"/>
			<point x="187" y="628"/>
			<point x="145" y="588"/>
			<point x="145" y="529" type="curve" smooth="yes"/>
			<point x="145" y="476"/>
			<point x="179" y="441"/>
		</contour>
	</outline>
</glyph>
<glyph name="ampersand" format="2">
  <advance width="765"/>
  <unicode hex="0026"/>
  <outline>
    <contour>
      <point x="265" y="364" type="curve"/>
      <point x="210" y="351"/>
      <point x="159" y="278"/>
      <point x="159" y="214" type="curve" smooth="yes"/>
      <point x="159" y="133"/>
      <point x="240" y="73"/>
      <point x="319" y="73" type="curve" smooth="yes"/>
      <point x="380" y="73"/>
      <point x="441" y="91"/>
      <point x="487" y="132" type="curve"/>
      <point x="416" y="193"/>
      <point x="342" y="271"/>
    </contour>
    <contour>
      <point x="323" y="661" type="curve" smooth="yes"/>
      <point x="276" y="661"/>
      <point x="238" y="635"/>
      <point x="238" y="585" type="curve" smooth="yes"/>
      <point x="238" y="551"/>
      <point x="257" y="511"/>
      <point x="296" y="464" type="curve"/>
      <point x="346" y="485"/>
      <point x="419" y="525"/>
      <point x="419" y="585" type="curve" smooth="yes"/>
      <point x="419" y="632"/>
      <point x="373" y="661"/>
    </contour>
    <contour>
      <point x="534" y="209" type="curve"/>
      <point x="549" y="258"/>
      <point x="555" y="288"/>
      <point x="555" y="322" type="curve" smooth="yes"/>
      <point x="555" y="349"/>
      <point x="551" y="379"/>
      <point x="545" y="422" type="curve"/>
      <point x="651" y="422" type="line"/>
      <point x="651" y="327"/>
      <point x="640" y="232"/>
      <point x="597" y="146" type="curve"/>
      <point x="640" y="92"/>
      <point x="695" y="45"/>
      <point x="751" y="0" type="curve"/>
      <point x="617" y="0" type="line"/>
      <point x="592" y="18"/>
      <point x="566" y="43"/>
      <point x="539" y="72" type="curve"/>
      <point x="488" y="28"/>
      <point x="403" y="-13"/>
      <point x="309" y="-13" type="curve" smooth="yes"/>
      <point x="171" y="-13"/>
      <point x="60" y="75"/>
      <point x="60" y="207" type="curve" smooth="yes"/>
      <point x="60" y="335"/>
      <point x="133" y="380"/>
      <point x="218" y="421" type="curve"/>
      <point x="174" y="472"/>
      <point x="139" y="530"/>
      <point x="139" y="586" type="curve" smooth="yes"/>
      <point x="139" y="673"/>
      <point x="223" y="736"/>
      <point x="325" y="736" type="curve" smooth="yes"/>
      <point x="414" y="736"/>
      <point x="501" y="689"/>
      <point x="501" y="592" type="curve" smooth="yes"/>
      <point x="501" y="500"/>
      <point x="422" y="445"/>
      <point x="345" y="411" type="curve"/>
      <point x="400" y="342"/>
      <point x="469" y="273"/>
    </contour>
  </outline>
</glyph>
<glyph name="plus" format="2">
	<unicode hex="002B"/>
	<advance width="700"/>
	<outline>
		<contour>
			<point x="50" y="269" type="line"/>
			<point x="50" y="331" type="line"/>
			<point x="319" y="331" type="line"/>
			<point x="319" y="600" type="line"/>
			<point x="381" y="600" type="line"/>
			<point x="381" y="331" type="line"/>
			<point x="650" y="331" type="line"/>
			<point x="650" y="269" type="line"/>
			<point x="381" y="269" type="line"/>
			<point x="381" y="0" type="line"/>
			<point x="319" y="0" type="line"/>
			<point x="319" y="269" type="line"/>
		</contour>
	</outline>
</glyph>
<glyph name="period" format="2">
	<unicode hex="002E"/>
	<advance width="275"/>
	<outline>
		<contour>
			<point x="98" y="0" type="line"/>
			<point x="98" y="123" type="line"/>
			<point x="206" y="123" type="line"/>
			<point x="206" y="0" type="line"/>
		</contour>
	</outline>
</glyph>
<glyph name="zero" format="2">
	<unicode hex="0030"/>
	<advance width="558"/>
	<outline>
		<contour>
			<point x="413" y="373" type="curve" smooth="yes"/>
			<point x="413" y="508"/>
			<point x="397" y="650"/>
			<point x="285" y="650" type="curve" smooth="yes"/>
			<point x="174" y="650"/>
			<point x="148" y="510"/>
			<point x="148" y="381" type="curve" smooth="yes"/>
			<point x="148" y="231"/>
			<point x="160" y="68"/>
			<point x="279" y="68" type="curve" smooth="yes"/>
			<point x="402" y="68"/>
			<point x="413" y="242"/>
		</contour>
		<contour>
			<point x="510" y="374" type="curve"/>
			<point x="510" y="177"/>
			<point x="465" y="-14"/>
			<point x="285" y="-14" type="curve" smooth="yes"/>
			<point x="93" y="-14"/>
			<point x="51" y="200"/>
			<point x="51" y="377" type="curve" smooth="yes"/>
			<point x="51" y="568"/>
			<point x="100" y="736"/>
			<point x="277" y="736" type="curve" smooth="yes"/>
			<point x="465" y="736"/>
			<point x="510" y="550"/>
		</contour>
	</outline>
</glyph>
<glyph name="two" format="2">
	<unicode hex="0032"/>
	<advance width="558"/>
	<outline>
		<contour>
			<point x="60" y="0" type="line"/>
			<point x="60" y="93" type="line"/>
			<point x="277" y="241"/>
			<point x="397" y="415"/>
			<point x="397" y="526" type="curve" smooth="yes"/>
			<point x="397" y="610"/>
			<point x="356" y="653"/>
			<point x="287" y="653" type="curve" smooth="yes"/>
			<point x="218" y="653"/>
			<point x="180" y="610"/>
			<point x="170" y="526" type="curve"/>
			<point x="68" y="526" type="line"/>
			<point x="79" y="666"/>
			<point x="151" y="736"/>
			<point x="284" y="736" type="curve" smooth="yes"/>
			<point x="405" y="736"/>
			<point x="495" y="650"/>
			<point x="495" y="531" type="curve" smooth="yes"/>
			<point x="495" y="360"/>
			<point x="307" y="180"/>
			<point x="170" y="78" type="curve"/>
			<point x="495" y="78" type="line"/>
			<point x="495" y="0" type="line"/>
		</contour>
	</outline>
</glyph>
<glyph name="six" format="2">
  <advance width="558"/>
  <unicode hex="0036"/>
  <outline>
    <contour>
      <point x="157" y="211" type="curve" smooth="yes"/>
      <point x="157" y="122"/>
      <point x="195" y="63"/>
      <point x="282" y="63" type="curve" smooth="yes"/>
      <point x="370" y="63"/>
      <point x="410" y="124"/>
      <point x="410" y="218" type="curve" smooth="yes"/>
      <point x="410" y="309"/>
      <point x="374" y="369"/>
      <point x="288" y="369" type="curve" smooth="yes"/>
      <point x="204" y="369"/>
      <point x="157" y="311"/>
    </contour>
    <contour>
      <point x="47" y="343" type="curve" smooth="yes"/>
      <point x="47" y="582"/>
      <point x="97" y="737"/>
      <point x="296" y="737" type="curve" smooth="yes"/>
      <point x="411" y="737"/>
      <point x="492" y="661"/>
      <point x="492" y="550" type="curve"/>
      <point x="394" y="550" type="line"/>
      <point x="394" y="608"/>
      <point x="357" y="660"/>
      <point x="298" y="660" type="curve" smooth="yes"/>
      <point x="156" y="660"/>
      <point x="145" y="491"/>
      <point x="145" y="354" type="curve"/>
      <point x="171" y="407"/>
      <point x="234" y="446"/>
      <point x="293" y="446" type="curve" smooth="yes"/>
      <point x="440" y="446"/>
      <point x="512" y="364"/>
      <point x="512" y="216" type="curve" smooth="yes"/>
      <point x="512" y="79"/>
      <point x="423" y="-14"/>
      <point x="271" y="-14" type="curve" smooth="yes"/>
      <point x="55" y="-14"/>
      <point x="47" y="175"/>
    </contour>
  </outline>
</glyph>
<glyph name="eight" format="2">
	<unicode hex="0038"/>
	<advance width="558"/>
	<outline>
		<contour>
			<point x="135" y="199" type="curve" smooth="yes"/>
			<point x="135" y="113"/>
			<point x="187" y="64"/>
			<point x="276" y="64" type="curve" smooth="yes"/>
			<point x="365" y="64"/>
			<point x="416" y="114"/>
			<point x="416" y="200" type="curve" smooth="yes"/>
			<point x="416" y="288"/>
			<point x="362" y="343"/>
			<point x="277" y="343" type="curve" smooth="yes"/>
			<point x="191" y="343"/>
			<point x="135" y="287"/>
		</contour>
		<contour>
			<point x="277" y="420" type="curve" smooth="yes"/>
			<point x="349" y="420"/>
			<point x="400" y="471"/>
			<point x="400" y="545" type="curve" smooth="yes"/>
			<point x="400" y="617"/>
			<point x="353" y="661"/>
			<point x="277" y="661" type="curve" smooth="yes"/>
			<point x="201" y="661"/>
			<point x="154" y="616"/>
			<point x="154" y="545" type="curve" smooth="yes"/>
			<point x="154" y="472"/>
			<point x="205" y="420"/>
		</contour>
		<contour>
			<point x="514" y="185" type="curve" smooth="yes"/>
			<point x="514" y="64"/>
			<point x="421" y="-13"/>
			<point x="276" y="-13" type="curve" smooth="yes"/>
			<point x="132" y="-13"/>
			<point x="40" y="64"/>
			<point x="40" y="185" type="curve" smooth="yes"/>
			<point x="40" y="280"/>
			<point x="91" y="354"/>
			<point x="177" y="383" type="curve"/>
			<point x="107" y="413"/>
			<point x="62" y="481"/>
			<point x="62" y="557" type="curve" smooth="yes"/>
			<point x="62" y="663"/>
			<point x="151" y="738"/>
			<point x="277" y="738" type="curve" smooth="yes"/>
			<point x="404" y="738"/>
			<point x="495" y="661"/>
			<point x="495" y="552" type="curve" smooth="yes"/>
			<point x="495" y="482"/>
			<point x="457" y="428"/>
			<point x="375" y="384" type="curve"/>
			<point x="468" y="353"/>
			<point x="514" y="288"/>
		</contour>
	</outline>
</glyph>
<glyph name="nine" format="2">
	<unicode hex="0039"/>
	<advance width="558"/>
	<outline>
		<contour>
			<point x="276" y="355" type="curve" smooth="yes"/>
			<point x="369" y="355"/>
			<point x="403" y="412"/>
			<point x="403" y="508" type="curve" smooth="yes"/>
			<point x="403" y="604"/>
			<point x="370" y="660"/>
			<point x="276" y="660" type="curve" smooth="yes"/>
			<point x="182" y="660"/>
			<point x="150" y="604"/>
			<point x="150" y="508" type="curve" smooth="yes"/>
			<point x="150" y="412"/>
			<point x="182" y="355"/>
		</contour>
		<contour>
			<point x="163" y="172" type="line"/>
			<point x="163" y="95"/>
			<point x="199" y="63"/>
			<point x="272" y="63" type="curve" smooth="yes"/>
			<point x="409" y="63"/>
			<point x="416" y="276"/>
			<point x="416" y="370" type="curve"/>
			<point x="385" y="312"/>
			<point x="327" y="278"/>
			<point x="247" y="278" type="curve" smooth="yes"/>
			<point x="110" y="278"/>
			<point x="48" y="378"/>
			<point x="48" y="503" type="curve" smooth="yes"/>
			<point x="48" y="634"/>
			<point x="116" y="737"/>
			<point x="272" y="737" type="curve" smooth="yes"/>
			<point x="502" y="737"/>
			<point x="512" y="581"/>
			<point x="512" y="380" type="curve" smooth="yes"/>
			<point x="512" y="182"/>
			<point x="472" y="-14"/>
			<point x="261" y="-14" type="curve" smooth="yes"/>
			<point x="134" y="-14"/>
			<point x="67" y="57"/>
			<point x="67" y="172" type="curve"/>
		</contour>
	</outline>
</glyph>
<glyph name="semicolon" format="2">
	<unicode hex="003B"/>
	<advance width="275"/>
	<outline>
		<contour>
			<point x="48" y="-127" type="line"/>
			<point x="108" y="123" type="line"/>
			<point x="228" y="123" type="line"/>
			<point x="118" y="-127" type="line"/>
		</contour>
		<contour>
			<point x="98" y="377" type="line"/>
			<point x="98" y="500" type="line"/>
			<point x="206" y="500" type="line"/>
			<point x="206" y="377" type="line"/>
		</contour>
	</outline>
</glyph>
<glyph name="at" format="2">
	<unicode hex="0040"/>
	<advance width="1000"/>
	<outline>
		<contour>
			<point x="477" y="95" type="curve" smooth="yes"/>
			<point x="559" y="95"/>
			<point x="593" y="186"/>
			<point x="593" y="268" type="curve" smooth="yes"/>
			<point x="593" y="348"/>
			<point x="561" y="423"/>
			<point x="484" y="423" type="curve" smooth="yes"/>
			<point x="407" y="423"/>
			<point x="375" y="348"/>
			<point x="375" y="267" type="curve" smooth="yes"/>
			<point x="375" y="153"/>
			<point x="412" y="95"/>
		</contour>
		<contour>
			<point x="681" y="-152" type="line"/>
			<point x="634" y="-169"/>
			<point x="581" y="-178"/>
			<point x="516" y="-178" type="curve" smooth="yes"/>
			<point x="223" y="-178"/>
			<point x="60" y="5"/>
			<point x="60" y="291" type="curve" smooth="yes"/>
			<point x="60" y="545"/>
			<point x="239" y="716"/>
			<point x="492" y="716" type="curve" smooth="yes"/>
			<point x="756" y="716"/>
			<point x="940" y="578"/>
			<point x="940" y="299" type="curve" smooth="yes"/>
			<point x="940" y="168"/>
			<point x="864" y="21"/>
			<point x="738" y="21" type="curve" smooth="yes"/>
			<point x="679" y="21"/>
			<point x="635" y="53"/>
			<point x="606" y="116" type="curve"/>
			<point x="575" y="60"/>
			<point x="538" y="26"/>
			<point x="457" y="26" type="curve" smooth="yes"/>
			<point x="346" y="26"/>
			<point x="278" y="143"/>
			<point x="278" y="266" type="curve" smooth="yes"/>
			<point x="278" y="384"/>
			<point x="341" y="492"/>
			<point x="457" y="492" type="curve" smooth="yes"/>
			<point x="537" y="492"/>
			<point x="560" y="470"/>
			<point x="597" y="427" type="curve"/>
			<point x="597" y="485" type="line"/>
			<point x="687" y="485" type="line"/>
			<point x="687" y="191" type="line" smooth="yes"/>
			<point x="687" y="149"/>
			<point x="702" y="108"/>
			<point x="743" y="108" type="curve" smooth="yes"/>
			<point x="816" y="108"/>
			<point x="843" y="240"/>
			<point x="843" y="299" type="curve" smooth="yes"/>
			<point x="843" y="527"/>
			<point x="723" y="626"/>
			<point x="500" y="626" type="curve" smooth="yes"/>
			<point x="288" y="626"/>
			<point x="154" y="505"/>
			<point x="154" y="292" type="curve" smooth="yes"/>
			<point x="154" y="61"/>
			<point x="270" y="-88"/>
			<point x="511" y="-88" type="curve" smooth="yes"/>
			<point x="593" y="-88"/>
			<point x="627" y="-84"/>
			<point x="681" y="-71" type="curve"/>
		</contour>
	</outline>
</glyph>
<glyph name="A" format="2">
	<unicode hex="0041"/>
	<advance width="760"/>
	<outline>
		<contour>
			<point x="20" y="0" type="line"/>
			<point x="123" y="0" type="line"/>
			<point x="376.036" y="613.292" type="line"/>
			<point x="634" y="0" type="line"/>
			<point x="740" y="0" type="line"/>
			<point x="433" y="722" type="line"/>
			<point x="323" y="722" type="line"/>
		</contour>
		<contour>
			<point x="539" y="278" type="line"/>
			<point x="216" y="278" type="line"/>
			<point x="177" y="193" type="line"/>
			<point x="581" y="193" type="line"/>
		</contour>
	</outline>
	<anchor name="bottom" x="380" y="-75"/>
	<anchor name="ogonekUC" x="667" y="10"/>
	<anchor name="top" x="380" y="797"/>
	<guideline x="377" y="611" angle="292.813"/>
	<guideline x="123" y="0" angle="67.5869"/>
	<guideline x="339" y="0" angle="90"/>
	<guideline x="0" y="231" angle="0"/>
	<guideline x="0" y="255" angle="0"/>
	<guideline x="376" y="613" angle="292.825"/>
	<guideline x="123" y="0" angle="67.5729"/>
</glyph>
<glyph name="B" format="2">
	<unicode hex="0042"/>
	<advance width="653"/>
	<outline>
		<component base="I" xOffset="-10"/>
		<contour>
			<point x="155" y="0" type="line"/>
			<point x="386" y="0" type="line" smooth="yes"/>
			<point x="507" y="0"/>
			<point x="603" y="92"/>
			<point x="603" y="208" type="curve" smooth="yes"/>
			<point x="603" y="296"/>
			<point x="546" y="364"/>
			<point x="454" y="385" type="curve"/>
			<point x="454" y="390" type="line"/>
			<point x="536" y="413"/>
			<point x="577" y="464"/>
			<point x="577" y="542" type="curve" smooth="yes"/>
			<point x="577" y="653"/>
			<point x="493" y="722"/>
			<point x="360" y="722" type="curve" smooth="yes"/>
			<point x="155" y="722" type="line"/>
			<point x="155" y="635" type="line"/>
			<point x="330" y="635" type="line" smooth="yes"/>
			<point x="433" y="635"/>
			<point x="484" y="599"/>
			<point x="484" y="528" type="curve" smooth="yes"/>
			<point x="484" y="455"/>
			<point x="429" y="420"/>
			<point x="316" y="420" type="curve" smooth="yes"/>
			<point x="155" y="420" type="line"/>
			<point x="155" y="337" type="line"/>
			<point x="323" y="337" type="line" smooth="yes"/>
			<point x="441" y="337"/>
			<point x="506" y="295"/>
			<point x="506" y="219" type="curve" smooth="yes"/>
			<point x="506" y="140"/>
			<point x="434" y="87"/>
			<point x="328" y="87" type="curve" smooth="yes"/>
			<point x="155" y="87" type="line"/>
		</contour>
	</outline>
	<anchor name="top" x="286" y="797"/>
</glyph>
<glyph name="C" format="2">
	<unicode hex="0043"/>
	<advance width="660"/>
	<outline>
		<contour>
			<point x="358" y="734" type="line"/>
			<point x="512" y="734"/>
			<point x="606" y="657"/>
			<point x="606" y="527" type="curve"/>
			<point x="505" y="527" type="line"/>
			<point x="505" y="605"/>
			<point x="452" y="646"/>
			<point x="358" y="646" type="curve"/>
		</contour>
		<contour>
			<point x="358" y="76" type="line"/>
			<point x="446" y="76"/>
			<point x="509" y="122"/>
			<point x="509" y="195" type="curve"/>
			<point x="610" y="195" type="line"/>
			<point x="610" y="64"/>
			<point x="519" y="-12"/>
			<point x="358" y="-12" type="curve"/>
		</contour>
		<contour>
			<point x="30" y="361" type="curve" smooth="yes"/>
			<point x="30" y="579"/>
			<point x="140" y="734"/>
			<point x="358" y="734" type="curve"/>
			<point x="358" y="646" type="line"/>
			<point x="198" y="646"/>
			<point x="133" y="541"/>
			<point x="133" y="361" type="curve" smooth="yes"/>
			<point x="133" y="181"/>
			<point x="198" y="76"/>
			<point x="358" y="76" type="curve"/>
			<point x="358" y="-12" type="line"/>
			<point x="140" y="-12"/>
			<point x="30" y="143"/>
		</contour>
	</outline>
	<anchor name="bottom" x="357" y="10"/>
	<anchor name="top" x="335" y="797"/>
</glyph>
<glyph name="D" format="2">
	<unicode hex="0044"/>
	<advance width="690"/>
	<outline>
		<contour>
			<point x="60" y="0" type="line"/>
			<point x="60" y="722" type="line"/>
			<point x="284" y="722" type="line" smooth="yes"/>
			<point x="517" y="722"/>
			<point x="640" y="593"/>
			<point x="640" y="366" type="curve" smooth="yes"/>
			<point x="640" y="134"/>
			<point x="512" y="0"/>
			<point x="284" y="0" type="curve" smooth="yes"/>
		</contour>
		<contour>
			<point x="160" y="87" type="line"/>
			<point x="286" y="87" type="line" smooth="yes"/>
			<point x="448" y="87"/>
			<point x="539" y="196"/>
			<point x="539" y="363" type="curve" smooth="yes"/>
			<point x="539" y="530"/>
			<point x="449" y="635"/>
			<point x="286" y="635" type="curve" smooth="yes"/>
			<point x="160" y="635" type="line"/>
		</contour>
	</outline>
	<anchor name="top" x="245" y="797"/>
</glyph>
<glyph name="E" format="2">
	<unicode hex="0045"/>
	<advance width="587"/>
	<outline>
		<component base="I" xOffset="-10"/>
		<contour>
			<point x="170" y="722" type="line"/>
			<point x="517" y="722" type="line"/>
			<point x="517" y="635" type="line"/>
			<point x="170" y="635" type="line"/>
		</contour>
		<contour>
			<point x="170" y="87" type="line"/>
			<point x="527" y="87" type="line"/>
			<point x="527" y="0" type="line"/>
			<point x="170" y="0" type="line"/>
		</contour>
		<contour>
			<point x="170" y="413" type="line"/>
			<point x="507" y="413" type="line"/>
			<point x="507" y="326" type="line"/>
			<point x="170" y="326" type="line"/>
		</contour>
	</outline>
	<anchor name="top" x="295" y="797"/>
	<guideline x="440" y="0" angle="90"/>
	<guideline x="70" y="0" angle="90"/>
	<guideline x="291" y="0" angle="90"/>
	<guideline x="221" y="0" angle="90"/>
	<guideline x="256" y="0" angle="90"/>
</glyph>
<glyph name="F" format="2">
	<unicode hex="0046"/>
	<advance width="540"/>
	<outline>
		<component base="I"/>
		<contour>
			<point x="180" y="413" type="line"/>
			<point x="517" y="413" type="line"/>
			<point x="517" y="326" type="line"/>
			<point x="180" y="326" type="line"/>
		</contour>
		<contour>
			<point x="170" y="722" type="line"/>
			<point x="517" y="722" type="line"/>
			<point x="517" y="635" type="line"/>
			<point x="170" y="635" type="line"/>
		</contour>
	</outline>
	<anchor name="top" x="275" y="797"/>
</glyph>
<glyph name="G" format="2">
	<unicode hex="0047"/>
	<advance width="735"/>
	<outline>
		<contour>
			<point x="50" y="390" type="curve" smooth="yes"/>
			<point x="50" y="592"/>
			<point x="195" y="736"/>
			<point x="400" y="736" type="curve" smooth="yes"/>
			<point x="556" y="736"/>
			<point x="675" y="653"/>
			<point x="675" y="542" type="curve"/>
			<point x="574" y="542" type="line"/>
			<point x="574" y="600"/>
			<point x="498" y="649"/>
			<point x="408" y="649" type="curve" smooth="yes"/>
			<point x="245" y="649"/>
			<point x="153" y="555"/>
			<point x="153" y="388" type="curve" smooth="yes"/>
			<point x="153" y="184"/>
			<point x="239" y="74"/>
			<point x="396" y="74" type="curve" smooth="yes"/>
			<point x="456" y="74"/>
			<point x="513" y="82"/>
			<point x="570" y="98" type="curve"/>
			<point x="570" y="297" type="line"/>
			<point x="406" y="297" type="line"/>
			<point x="406" y="384" type="line"/>
			<point x="671" y="384" type="line"/>
			<point x="671" y="36" type="line"/>
			<point x="592" y="2"/>
			<point x="508" y="-14"/>
			<point x="421" y="-14" type="curve" smooth="yes"/>
			<point x="170" y="-14"/>
			<point x="50" y="120"/>
		</contour>
	</outline>
	<anchor name="top" x="375" y="797"/>
</glyph>
<glyph name="H" format="2">
	<unicode hex="0048"/>
	<advance width="689"/>
	<outline>
		<component base="I" xOffset="-10"/>
		<component base="I" xOffset="439"/>
		<contour>
			<point x="150" y="413" type="line"/>
			<point x="539" y="413" type="line"/>
			<point x="539" y="326" type="line"/>
			<point x="150" y="326" type="line"/>
		</contour>
	</outline>
	<anchor name="bottom" x="335" y="-75"/>
	<anchor name="cedilla.bottom" x="120" y="10"/>
	<anchor name="left" x="20" y="361"/>
	<anchor name="top" x="335" y="797"/>
	<guideline x="70" y="0" angle="90"/>
	<guideline x="550" y="0" angle="90"/>
	<guideline x="273" y="0" angle="90"/>
	<guideline x="234" y="0" angle="90"/>
	<guideline x="313" y="0" angle="90"/>
</glyph>
<glyph name="I" format="2">
  <advance width="260"/>
  <unicode hex="0049"/>
  <anchor x="124" y="797" name="top"/>
  <outline>
    <contour>
      <point x="80" y="0" type="line"/>
      <point x="80" y="722" type="line"/>
      <point x="180" y="722" type="line"/>
      <point x="180" y="0" type="line"/>
    </contour>
  </outline>
</glyph>
<glyph name="J" format="2">
	<unicode hex="004A"/>
	<advance width="509"/>
	<outline>
		<contour>
			<point x="20" y="194" type="curve"/>
			<point x="120" y="194" type="line"/>
			<point x="120" y="114"/>
			<point x="161" y="74"/>
			<point x="227" y="74" type="curve" smooth="yes"/>
			<point x="308" y="74"/>
			<point x="349" y="135"/>
			<point x="349" y="215" type="curve" smooth="yes"/>
			<point x="349" y="722" type="line"/>
			<point x="449" y="722" type="line"/>
			<point x="449" y="215" type="line" smooth="yes"/>
			<point x="449" y="81"/>
			<point x="361" y="-14"/>
			<point x="231" y="-14" type="curve" smooth="yes"/>
			<point x="107" y="-14"/>
			<point x="20" y="72"/>
		</contour>
	</outline>
	<anchor name="top" x="394" y="797"/>
</glyph>
<glyph name="L" format="2">
  <advance width="495"/>
  <unicode hex="004C"/>
  <anchor x="106" y="797" name="top"/>
  <outline>
    <contour>
      <point x="60" y="0" type="line"/>
      <point x="60" y="722" type="line"/>
      <point x="160" y="722" type="line"/>
      <point x="160" y="87" type="line"/>
      <point x="480" y="87" type="line"/>
      <point x="480" y="0" type="line"/>
    </contour>
  </outline>
</glyph>
<glyph name="M" format="2">
	<unicode hex="004D"/>
	<advance width="858"/>
	<outline>
		<contour>
			<point x="60" y="0" type="line"/>
			<point x="60" y="722" type="line"/>
			<point x="214" y="722" type="line"/>
			<point x="428" y="140" type="line"/>
			<point x="644" y="722" type="line"/>
			<point x="798" y="722" type="line"/>
			<point x="798" y="0" type="line"/>
			<point x="698" y="0" type="line"/>
			<point x="698" y="627" type="line"/>
			<point x="702" y="627" type="line"/>
			<point x="468" y="0" type="line"/>
			<point x="388" y="0" type="line"/>
			<point x="156" y="622" type="line"/>
			<point x="160" y="622" type="line"/>
			<point x="160" y="0" type="line"/>
		</contour>
	</outline>
	<anchor name="top" x="375" y="797"/>
</glyph>
<glyph name="N" format="2">
	<unicode hex="004E"/>
	<advance width="683"/>
	<outline>
		<contour>
			<point x="89.7297" y="722" type="line"/>
			<point x="202" y="722" type="line"/>
			<point x="592.814" y="0" type="line"/>
			<point x="480" y="0" type="line"/>
		</contour>
		<contour>
			<point x="160" y="722" type="line"/>
			<point x="160" y="0" type="line"/>
			<point x="60" y="0" type="line"/>
			<point x="60" y="722" type="line"/>
		</contour>
		<contour>
			<point x="523" y="0" type="line"/>
			<point x="523" y="722" type="line"/>
			<point x="623" y="722" type="line"/>
			<point x="623" y="0" type="line"/>
		</contour>
	</outline>
	<anchor name="top" x="345" y="797"/>
	<guideline x="202" y="722" angle="298.468"/>
	<guideline x="480" y="0" angle="118.393"/>
</glyph>
<glyph name="O" format="2">
	<unicode hex="004F"/>
	<advance width="754"/>
	<outline>
		<contour>
			<point x="50" y="361" type="curve" smooth="yes"/>
			<point x="50" y="579"/>
			<point x="160" y="734"/>
			<point x="378" y="734" type="curve"/>
			<point x="378" y="646" type="line"/>
			<point x="218" y="646"/>
			<point x="153" y="541"/>
			<point x="153" y="361" type="curve" smooth="yes"/>
			<point x="153" y="181"/>
			<point x="218" y="76"/>
			<point x="378" y="76" type="curve"/>
			<point x="378" y="-12" type="line"/>
			<point x="160" y="-12"/>
			<point x="50" y="143"/>
		</contour>
		<contour>
			<point x="706" y="361" type="curve" smooth="yes"/>
			<point x="706" y="579"/>
			<point x="596" y="734"/>
			<point x="378" y="734" type="curve"/>
			<point x="378" y="646" type="line"/>
			<point x="538" y="646"/>
			<point x="603" y="541"/>
			<point x="603" y="361" type="curve" smooth="yes"/>
			<point x="603" y="181"/>
			<point x="538" y="76"/>
			<point x="378" y="76" type="curve"/>
			<point x="378" y="-12" type="line"/>
			<point x="596" y="-12"/>
			<point x="706" y="143"/>
		</contour>
	</outline>
	<anchor name="top" x="365" y="797"/>
	<guideline x="80" y="0" angle="90"/>
	<guideline x="100" y="0" angle="90"/>
	<guideline x="0" y="704" angle="0"/>
</glyph>
<glyph name="S" format="2">
  <advance width="642"/>
  <unicode hex="0053"/>
  <anchor x="305" y="797" name="top"/>
  <outline>
    <contour>
      <point x="49" y="214" type="curve"/>
      <point x="149" y="214" type="line"/>
      <point x="149" y="134"/>
      <point x="232" y="73"/>
      <point x="323" y="73" type="curve" smooth="yes"/>
      <point x="434" y="73"/>
      <point x="492" y="116"/>
      <point x="492" y="195" type="curve" smooth="yes"/>
      <point x="492" y="271"/>
      <point x="442" y="305"/>
      <point x="301" y="332" type="curve" smooth="yes"/>
      <point x="121" y="366"/>
      <point x="58" y="419"/>
      <point x="58" y="538" type="curve" smooth="yes"/>
      <point x="58" y="658"/>
      <point x="155" y="737"/>
      <point x="305" y="737" type="curve" smooth="yes"/>
      <point x="470" y="737"/>
      <point x="563" y="666"/>
      <point x="563" y="540" type="curve"/>
      <point x="463" y="540" type="line"/>
      <point x="463" y="617"/>
      <point x="414" y="649"/>
      <point x="298" y="649" type="curve" smooth="yes"/>
      <point x="207" y="649"/>
      <point x="158" y="612"/>
      <point x="158" y="541" type="curve" smooth="yes"/>
      <point x="158" y="448"/>
      <point x="245" y="431"/>
      <point x="340" y="412" type="curve" smooth="yes"/>
      <point x="458" y="389"/>
      <point x="591" y="362"/>
      <point x="591" y="206" type="curve" smooth="yes"/>
      <point x="591" y="56"/>
      <point x="503" y="-15"/>
      <point x="315" y="-15" type="curve" smooth="yes"/>
      <point x="156" y="-15"/>
      <point x="49" y="77"/>
    </contour>
  </outline>
</glyph>
<glyph name="T" format="2">
  <advance width="622"/>
  <unicode hex="0054"/>
  <anchor x="306" y="10" name="cedilla.bottom"/>
  <anchor x="305" y="797" name="top"/>
  <outline>
    <contour>
      <point x="592" y="635" type="line"/>
      <point x="356" y="635" type="line"/>
      <point x="356" y="0" type="line"/>
      <point x="256" y="0" type="line"/>
      <point x="256" y="635" type="line"/>
      <point x="20" y="635" type="line"/>
      <point x="20" y="722" type="line"/>
      <point x="592" y="722" type="line"/>
    </contour>
  </outline>
</glyph>
<glyph name="V" format="2">
	<unicode hex="0056"/>
	<advance width="664"/>
	<outline>
		<contour>
			<point x="644" y="722" type="line"/>
			<point x="387" y="0" type="line"/>
			<point x="277" y="0" type="line"/>
			<point x="20" y="722" type="line"/>
			<point x="133" y="722" type="line"/>
			<point x="332" y="130" type="line"/>
			<point x="531" y="722" type="line"/>
		</contour>
	</outline>
	<anchor name="top" x="380" y="797"/>
</glyph>
<glyph name="X" format="2">
  <advance width="684"/>
  <unicode hex="0058"/>
  <anchor x="375" y="797" name="top"/>
  <outline>
    <contour>
      <point x="669" y="0" type="line"/>
      <point x="541" y="0" type="line"/>
      <point x="335" y="314" type="line"/>
      <point x="133" y="0" type="line"/>
      <point x="15" y="0" type="line"/>
      <point x="280" y="385" type="line"/>
      <point x="49" y="722" type="line"/>
      <point x="177" y="722" type="line"/>
      <point x="349" y="456" type="line"/>
      <point x="516" y="722" type="line"/>
      <point x="634" y="722" type="line"/>
      <point x="403" y="385" type="line"/>
    </contour>
  </outline>
</glyph>
<glyph name="bracketright" format="2">
	<unicode hex="005D"/>
	<advance width="396"/>
	<outline>
		<contour>
			<point x="292" y="-198" type="line"/>
			<point x="106" y="-198" type="line"/>
			<point x="106" y="-147" type="line"/>
			<point x="205" y="-147" type="line"/>
			<point x="205" y="671" type="line"/>
			<point x="106" y="671" type="line"/>
			<point x="106" y="722" type="line"/>
			<point x="292" y="722" type="line"/>
		</contour>
	</outline>
</glyph>
<glyph name="asciicircum" format="2">
  <advance width="622"/>
  <unicode hex="005E"/>
  <outline>
    <contour>
      <point x="572" y="10" type="line"/>
      <point x="510" y="10" type="line"/>
      <point x="311" y="546" type="line"/>
      <point x="112" y="10" type="line"/>
      <point x="50" y="10" type="line"/>
      <point x="280" y="610" type="line"/>
      <point x="342" y="610" type="line"/>
    </contour>
  </outline>
</glyph>
<glyph name="grave" format="2">
  <advance width="229"/>
  <unicode hex="0060"/>
  <outline>
    <contour>
      <point x="176" y="600" type="line"/>
      <point x="115" y="600" type="line"/>
      <point x="-25" y="771" type="line"/>
      <point x="76" y="771" type="line"/>
    </contour>
  </outline>
</glyph>
<glyph name="a" format="2">
	<unicode hex="0061"/>
	<advance width="576"/>
	<outline>
		<contour>
			<point x="60" y="140" type="curve" smooth="yes"/>
			<point x="60" y="251"/>
			<point x="161" y="308"/>
			<point x="335.208" y="308" type="curve" smooth="yes"/>
			<point x="399.954" y="305" type="line"/>
			<point x="399.954" y="349" type="line" smooth="yes"/>
			<point x="399.954" y="410"/>
			<point x="360.774" y="444"/>
			<point x="290.452" y="444" type="curve" smooth="yes"/>
			<point x="224.147" y="444"/>
			<point x="182" y="414"/>
			<point x="182" y="365" type="curve"/>
			<point x="88" y="365" type="line"/>
			<point x="88" y="461.914"/>
			<point x="157.882" y="513"/>
			<point x="292.062" y="513" type="curve" smooth="yes"/>
			<point x="429.947" y="513"/>
			<point x="490.11" y="459.054"/>
			<point x="490.11" y="334" type="curve" smooth="yes"/>
			<point x="490.11" y="182" type="line" smooth="yes"/>
			<point x="490.11" y="81"/>
			<point x="497.033" y="24"/>
			<point x="506" y="0" type="curve"/>
			<point x="415.934" y="0" type="line"/>
			<point x="408.995" y="23"/>
			<point x="404.977" y="62"/>
			<point x="404.977" y="72" type="curve"/>
			<point x="349.724" y="6"/>
			<point x="312.553" y="-14"/>
			<point x="247.253" y="-14" type="curve" smooth="yes"/>
			<point x="133" y="-14"/>
			<point x="60" y="46"/>
		</contour>
		<contour>
			<point x="154" y="143" type="curve" smooth="yes"/>
			<point x="154" y="93"/>
			<point x="197.023" y="55"/>
			<point x="254.286" y="55" type="curve" smooth="yes"/>
			<point x="351.733" y="55"/>
			<point x="399.954" y="105"/>
			<point x="399.954" y="204" type="curve" smooth="yes"/>
			<point x="399.954" y="236" type="line"/>
			<point x="379.972" y="238"/>
			<point x="368.701" y="239"/>
			<point x="347.456" y="239" type="curve" smooth="yes"/>
			<point x="229.171" y="239"/>
			<point x="154" y="208"/>
		</contour>
	</outline>
	<anchor name="bottom" x="283" y="-50"/>
	<anchor name="ogonekLC" x="432" y="10"/>
	<anchor name="top" x="290" y="580"/>
</glyph>
<glyph name="b" format="2">
	<unicode hex="0062"/>
	<advance width="610"/>
	<outline>
		<contour>
			<point x="80" y="0" type="line"/>
			<point x="80" y="722" type="line"/>
			<point x="167" y="722" type="line"/>
			<point x="167" y="431" type="line"/>
			<point x="201" y="485"/>
			<point x="257" y="513"/>
			<point x="330" y="513" type="curve" smooth="yes"/>
			<point x="465" y="513"/>
			<point x="550" y="419"/>
			<point x="550" y="271" type="curve" smooth="yes"/>
			<point x="550" y="117"/>
			<point x="446" y="-13"/>
			<point x="325" y="-13" type="curve" smooth="yes"/>
			<point x="270" y="-13"/>
			<point x="212" y="14"/>
			<point x="167" y="59" type="curve"/>
			<point x="167" y="0" type="line"/>
		</contour>
		<contour>
			<point x="167" y="262" type="curve" smooth="yes"/>
			<point x="167" y="125"/>
			<point x="213" y="54"/>
			<point x="300" y="54" type="curve" smooth="yes"/>
			<point x="394" y="54"/>
			<point x="454" y="137"/>
			<point x="454" y="265" type="curve" smooth="yes"/>
			<point x="454" y="383"/>
			<point x="402" y="455"/>
			<point x="317" y="455" type="curve" smooth="yes"/>
			<point x="228" y="455"/>
			<point x="167" y="376"/>
		</contour>
	</outline>
	<anchor name="top" x="300" y="754"/>
</glyph>
<glyph name="c" format="2">
	<unicode hex="0063"/>
	<advance width="548"/>
	<outline>
		<contour>
			<point x="60" y="240" type="curve" smooth="yes"/>
			<point x="60" y="399"/>
			<point x="139" y="512"/>
			<point x="290" y="512" type="curve" smooth="yes"/>
			<point x="399" y="512"/>
			<point x="476" y="453"/>
			<point x="484" y="341" type="curve"/>
			<point x="389" y="341" type="line"/>
			<point x="384" y="402"/>
			<point x="349" y="447"/>
			<point x="282" y="447" type="curve" smooth="yes"/>
			<point x="179" y="447"/>
			<point x="155" y="342"/>
			<point x="155" y="246" type="curve" smooth="yes"/>
			<point x="155" y="118"/>
			<point x="198" y="52"/>
			<point x="281" y="52" type="curve" smooth="yes"/>
			<point x="349" y="52"/>
			<point x="393" y="97"/>
			<point x="393" y="169" type="curve"/>
			<point x="488" y="169" type="line"/>
			<point x="482" y="60"/>
			<point x="400" y="-12"/>
			<point x="279" y="-12" type="curve" smooth="yes"/>
			<point x="141" y="-12"/>
			<point x="60" y="79"/>
		</contour>
	</outline>
	<anchor name="top" x="274" y="580"/>
</glyph>
<glyph name="d" format="2">
	<unicode hex="0064"/>
	<advance width="611"/>
	<outline>
		<contour>
			<point x="150" y="248" type="curve" smooth="yes"/>
			<point x="150" y="152"/>
			<point x="202" y="55"/>
			<point x="304" y="55" type="curve" smooth="yes"/>
			<point x="393" y="55"/>
			<point x="441" y="129"/>
			<point x="441" y="244" type="curve" smooth="yes"/>
			<point x="441" y="344"/>
			<point x="405" y="449"/>
			<point x="294" y="449" type="curve" smooth="yes"/>
			<point x="185" y="449"/>
			<point x="150" y="346"/>
		</contour>
		<contour>
			<point x="60" y="253" type="curve" smooth="yes"/>
			<point x="60" y="421"/>
			<point x="165" y="513"/>
			<point x="287" y="513" type="curve" smooth="yes"/>
			<point x="361" y="513"/>
			<point x="408" y="479"/>
			<point x="441" y="435" type="curve"/>
			<point x="441" y="722" type="line"/>
			<point x="531" y="722" type="line"/>
			<point x="531" y="0" type="line"/>
			<point x="441" y="0" type="line"/>
			<point x="441" y="57" type="line"/>
			<point x="415" y="28"/>
			<point x="351" y="-13"/>
			<point x="291" y="-13" type="curve" smooth="yes"/>
			<point x="143" y="-13"/>
			<point x="60" y="103"/>
		</contour>
	</outline>
</glyph>
<glyph name="g" format="2">
  <advance width="613"/>
  <unicode hex="0067"/>
  <anchor x="272" y="580" name="cedilla.top"/>
  <anchor x="287" y="580" name="top"/>
  <outline>
    <contour>
      <point x="60" y="266" type="curve" smooth="yes"/>
      <point x="60" y="392"/>
      <point x="136" y="513"/>
      <point x="280" y="513" type="curve" smooth="yes"/>
      <point x="350" y="513"/>
      <point x="405" y="485"/>
      <point x="443" y="444" type="curve"/>
      <point x="443" y="500" type="line"/>
      <point x="533" y="500" type="line"/>
      <point x="533" y="29" type="line" smooth="yes"/>
      <point x="533" y="-111"/>
      <point x="436" y="-198"/>
      <point x="286" y="-198" type="curve" smooth="yes"/>
      <point x="186" y="-198"/>
      <point x="87" y="-141"/>
      <point x="87" y="-39" type="curve"/>
      <point x="181" y="-39" type="line"/>
      <point x="181" y="-102"/>
      <point x="239" y="-134"/>
      <point x="301" y="-134" type="curve" smooth="yes"/>
      <point x="389" y="-134"/>
      <point x="443" y="-71"/>
      <point x="443" y="21" type="curve" smooth="yes"/>
      <point x="443" y="95" type="line"/>
      <point x="409" y="51"/>
      <point x="364" y="14"/>
      <point x="276" y="14" type="curve" smooth="yes"/>
      <point x="128" y="14"/>
      <point x="60" y="120"/>
    </contour>
    <contour>
      <point x="289" y="78" type="curve" smooth="yes"/>
      <point x="390" y="78"/>
      <point x="443" y="172"/>
      <point x="443" y="264" type="curve" smooth="yes"/>
      <point x="443" y="380"/>
      <point x="393" y="448"/>
      <point x="294" y="448" type="curve" smooth="yes"/>
      <point x="202" y="448"/>
      <point x="154" y="388"/>
      <point x="154" y="270" type="curve" smooth="yes"/>
      <point x="154" y="164"/>
      <point x="193" y="78"/>
    </contour>
  </outline>
</glyph>
<glyph name="l" format="2">
	<unicode hex="006C"/>
	<advance width="250"/>
	<outline>
		<contour>
			<point x="80" y="0" type="line"/>
			<point x="80" y="722" type="line"/>
			<point x="170" y="722" type="line"/>
			<point x="170" y="0" type="line"/>
		</contour>
	</outline>
	<anchor name="top" x="122" y="762"/>
</glyph>
<glyph name="n" format="2">
	<unicode hex="006E"/>
	<advance width="595"/>
	<outline>
		<contour>
			<point x="80" y="0" type="line"/>
			<point x="80" y="500" type="line"/>
			<point x="170" y="500" type="line"/>
			<point x="170" y="436" type="line"/>
			<point x="204" y="484"/>
			<point x="263" y="513"/>
			<point x="327" y="513" type="curve" smooth="yes"/>
			<point x="452" y="513"/>
			<point x="515" y="452"/>
			<point x="515" y="329" type="curve" smooth="yes"/>
			<point x="515" y="0" type="line"/>
			<point x="425" y="0" type="line"/>
			<point x="425" y="311" type="line" smooth="yes"/>
			<point x="425" y="409"/>
			<point x="387" y="453"/>
			<point x="302" y="453" type="curve" smooth="yes"/>
			<point x="227" y="453"/>
			<point x="170" y="396"/>
			<point x="170" y="323" type="curve" smooth="yes"/>
			<point x="170" y="0" type="line"/>
		</contour>
	</outline>
</glyph>
<glyph name="o" format="2">
  <advance width="620"/>
  <unicode hex="006F"/>
  <anchor x="304" y="580" name="top"/>
  <outline>
    <contour>
      <point x="60" y="250" type="curve" smooth="yes"/>
      <point x="60" y="411"/>
      <point x="157" y="512"/>
      <point x="311" y="512" type="curve" smooth="yes"/>
      <point x="465" y="512"/>
      <point x="560" y="411"/>
      <point x="560" y="250" type="curve" smooth="yes"/>
      <point x="560" y="89"/>
      <point x="465" y="-12"/>
      <point x="311" y="-12" type="curve" smooth="yes"/>
      <point x="157" y="-12"/>
      <point x="60" y="89"/>
    </contour>
    <contour>
      <point x="154" y="250" type="curve" smooth="yes"/>
      <point x="154" y="117"/>
      <point x="210" y="53"/>
      <point x="310" y="53" type="curve" smooth="yes"/>
      <point x="410" y="53"/>
      <point x="466" y="117"/>
      <point x="466" y="250" type="curve" smooth="yes"/>
      <point x="466" y="383"/>
      <point x="410" y="447"/>
      <point x="310" y="447" type="curve" smooth="yes"/>
      <point x="210" y="447"/>
      <point x="154" y="383"/>
    </contour>
  </outline>
</glyph>
<glyph name="p" format="2">
	<unicode hex="0070"/>
	<advance width="616"/>
	<outline>
		<contour>
			<point x="83" y="-200" type="line"/>
			<point x="83" y="421" type="line" smooth="yes"/>
			<point x="83" y="447"/>
			<point x="82" y="474"/>
			<point x="80" y="500" type="curve"/>
			<point x="172" y="500" type="line"/>
			<point x="172.324" y="487.185"/>
			<point x="173.603" y="436.663"/>
			<point x="174" y="421" type="curve"/>
			<point x="208" y="479"/>
			<point x="270" y="512"/>
			<point x="345" y="512" type="curve" smooth="yes"/>
			<point x="475" y="512"/>
			<point x="556" y="413"/>
			<point x="556" y="252" type="curve" smooth="yes"/>
			<point x="556" y="89"/>
			<point x="468" y="-14"/>
			<point x="327" y="-14" type="curve" smooth="yes"/>
			<point x="259" y="-14"/>
			<point x="203" y="12"/>
			<point x="173" y="58" type="curve"/>
			<point x="173" y="-200" type="line"/>
		</contour>
		<contour>
			<point x="170" y="252" type="curve" smooth="yes"/>
			<point x="170" y="160"/>
			<point x="198" y="52"/>
			<point x="311" y="52" type="curve" smooth="yes"/>
			<point x="407" y="52"/>
			<point x="461" y="123"/>
			<point x="461" y="253" type="curve" smooth="yes"/>
			<point x="461" y="381"/>
			<point x="413" y="448"/>
			<point x="320" y="448" type="curve" smooth="yes"/>
			<point x="222" y="448"/>
			<point x="170" y="381"/>
		</contour>
	</outline>
</glyph>
<glyph name="q" format="2">
  <advance width="620"/>
  <unicode hex="0071"/>
  <anchor x="275" y="580" name="top"/>
  <outline>
    <contour>
      <point x="60" y="247.386" type="curve" smooth="yes"/>
      <point x="60" y="403.226"/>
      <point x="129.263" y="512"/>
      <point x="285.412" y="512" type="curve" smooth="yes"/>
      <point x="356.048" y="512"/>
      <point x="407.576" y="489.742"/>
      <point x="450" y="435.065" type="curve"/>
      <point x="450" y="499.587" type="line"/>
      <point x="540" y="499.587" type="line"/>
      <point x="540" y="-200" type="line"/>
      <point x="450" y="-200" type="line"/>
      <point x="450" y="52.995" type="line"/>
      <point x="394.437" y="11"/>
      <point x="340.894" y="-12"/>
      <point x="290.382" y="-12" type="curve" smooth="yes"/>
      <point x="127.284" y="-12"/>
      <point x="60" y="93.7889"/>
    </contour>
    <contour>
      <point x="154" y="250" type="curve" smooth="yes"/>
      <point x="154" y="145.528"/>
      <point x="198.451" y="53"/>
      <point x="302.505" y="53" type="curve" smooth="yes"/>
      <point x="402.519" y="53"/>
      <point x="450" y="139.558"/>
      <point x="450" y="250" type="curve" smooth="yes"/>
      <point x="450" y="360.442"/>
      <point x="402.519" y="447"/>
      <point x="302.505" y="447" type="curve" smooth="yes"/>
      <point x="198.451" y="447"/>
      <point x="154" y="354.472"/>
    </contour>
  </outline>
</glyph>
<glyph name="r" format="2">
	<unicode hex="0072"/>
	<advance width="372"/>
	<outline>
		<contour>
			<point x="80" y="0" type="line"/>
			<point x="80" y="500" type="line"/>
			<point x="170" y="500" type="line"/>
			<point x="170" y="432" type="line"/>
			<point x="198" y="481"/>
			<point x="232" y="500"/>
			<point x="352" y="500" type="curve"/>
			<point x="352" y="420" type="line"/>
			<point x="231" y="420"/>
			<point x="170" y="373"/>
			<point x="170" y="280" type="curve" smooth="yes"/>
			<point x="170" y="0" type="line"/>
		</contour>
	</outline>
</glyph>
<glyph name="s" format="2">
	<unicode hex="0073"/>
	<advance width="523"/>
	<outline>
		<contour>
			<point x="60" y="144" type="curve"/>
			<point x="152" y="144" type="line"/>
			<point x="152" y="82"/>
			<point x="189" y="51"/>
			<point x="253" y="51" type="curve" smooth="yes"/>
			<point x="315" y="51"/>
			<point x="371" y="81"/>
			<point x="371" y="139" type="curve" smooth="yes"/>
			<point x="371" y="195"/>
			<point x="315" y="206"/>
			<point x="261" y="217" type="curve" smooth="yes"/>
			<point x="120" y="246"/>
			<point x="74" y="282"/>
			<point x="74" y="362" type="curve" smooth="yes"/>
			<point x="74" y="450"/>
			<point x="129" y="512"/>
			<point x="264" y="512" type="curve" smooth="yes"/>
			<point x="380" y="512"/>
			<point x="453" y="479"/>
			<point x="453" y="366" type="curve"/>
			<point x="361" y="366" type="line"/>
			<point x="361" y="421"/>
			<point x="325" y="447"/>
			<point x="260" y="447" type="curve" smooth="yes"/>
			<point x="212" y="447"/>
			<point x="166" y="420"/>
			<point x="166" y="369" type="curve" smooth="yes"/>
			<point x="166" y="328"/>
			<point x="195" y="309"/>
			<point x="291" y="290" type="curve" smooth="yes"/>
			<point x="371" y="274"/>
			<point x="463" y="256"/>
			<point x="463" y="146" type="curve" smooth="yes"/>
			<point x="463" y="31"/>
			<point x="363" y="-14"/>
			<point x="252" y="-14" type="curve" smooth="yes"/>
			<point x="135" y="-14"/>
			<point x="60" y="34"/>
		</contour>
	</outline>
</glyph>
<glyph name="t" format="2">
	<unicode hex="0074"/>
	<advance width="344"/>
	<outline>
		<contour>
			<point x="204" y="128" type="line" smooth="yes"/>
			<point x="204" y="83"/>
			<point x="215" y="53"/>
			<point x="253" y="53" type="curve" smooth="yes"/>
			<point x="273" y="53"/>
			<point x="294" y="56"/>
			<point x="314" y="62" type="curve"/>
			<point x="314" y="-2" type="line"/>
			<point x="286" y="-11"/>
			<point x="256" y="-14"/>
			<point x="227" y="-14" type="curve" smooth="yes"/>
			<point x="141" y="-14"/>
			<point x="114" y="35"/>
			<point x="114" y="131" type="curve" smooth="yes"/>
			<point x="114" y="435" type="line"/>
			<point x="24" y="435" type="line"/>
			<point x="24" y="500" type="line"/>
			<point x="114" y="500" type="line"/>
			<point x="114" y="599" type="line"/>
			<point x="204" y="636" type="line"/>
			<point x="204" y="500" type="line"/>
			<point x="314" y="500" type="line"/>
			<point x="314" y="435" type="line"/>
			<point x="204" y="435" type="line"/>
		</contour>
	</outline>
	<anchor name="top" x="161" y="711"/>
</glyph>
<glyph name="u" format="2">
	<unicode hex="0075"/>
	<advance width="594"/>
	<outline>
		<contour>
			<point x="80" y="174" type="curve" smooth="yes"/>
			<point x="80" y="500" type="line"/>
			<point x="170" y="500" type="line"/>
			<point x="170" y="172" type="line" smooth="yes"/>
			<point x="170" y="106"/>
			<point x="226" y="53"/>
			<point x="295" y="53" type="curve" smooth="yes"/>
			<point x="367" y="53"/>
			<point x="424" y="109"/>
			<point x="424" y="181" type="curve" smooth="yes"/>
			<point x="424" y="500" type="line"/>
			<point x="514" y="500" type="line"/>
			<point x="514" y="0" type="line"/>
			<point x="424" y="0" type="line"/>
			<point x="424" y="69" type="line"/>
			<point x="390" y="15"/>
			<point x="338" y="-12"/>
			<point x="261" y="-12" type="curve" smooth="yes"/>
			<point x="141" y="-12"/>
			<point x="80" y="54"/>
		</contour>
	</outline>
	<anchor name="top" x="294" y="580"/>
</glyph>
<glyph name="v" format="2">
  <advance width="545"/>
  <unicode hex="0076"/>
  <outline>
    <contour>
      <point x="525" y="500" type="line"/>
      <point x="319" y="0" type="line"/>
      <point x="227" y="0" type="line"/>
      <point x="20" y="500" type="line"/>
      <point x="125" y="500" type="line"/>
      <point x="278" y="110" type="line"/>
      <point x="430" y="500" type="line"/>
    </contour>
  </outline>
</glyph>
<glyph name="w" format="2">
  <advance width="824"/>
  <unicode hex="0077"/>
  <outline>
    <contour>
      <point x="804" y="500" type="line"/>
      <point x="635" y="0" type="line"/>
      <point x="545" y="0" type="line"/>
      <point x="412" y="415" type="line"/>
      <point x="279" y="0" type="line"/>
      <point x="189" y="0" type="line"/>
      <point x="20" y="500" type="line"/>
      <point x="116" y="500" type="line"/>
      <point x="234" y="110" type="line"/>
      <point x="352" y="500" type="line"/>
      <point x="472" y="500" type="line"/>
      <point x="590" y="110" type="line"/>
      <point x="708" y="500" type="line"/>
    </contour>
  </outline>
</glyph>
<glyph name="x" format="2">
  <advance width="547"/>
  <unicode hex="0078"/>
  <outline>
    <contour>
      <point x="527" y="0" type="line"/>
      <point x="413" y="0" type="line"/>
      <point x="267" y="197" type="line"/>
      <point x="125" y="0" type="line"/>
      <point x="20" y="0" type="line"/>
      <point x="219" y="259" type="line"/>
      <point x="35" y="500" type="line"/>
      <point x="149" y="500" type="line"/>
      <point x="281" y="321" type="line"/>
      <point x="409" y="500" type="line"/>
      <point x="514" y="500" type="line"/>
      <point x="328" y="259" type="line"/>
    </contour>
  </outline>
</glyph>
<glyph name="y" format="2">
	<unicode hex="0079"/>
	<advance width="545"/>
	<outline>
		<contour>
			<point x="234" y="1" type="line"/>
			<point x="20" y="500" type="line"/>
			<point x="125" y="500" type="line"/>
			<point x="282" y="124" type="line"/>
			<point x="428" y="500" type="line"/>
			<point x="525" y="500" type="line"/>
			<point x="253" y="-200" type="line"/>
			<point x="161" y="-200" type="line"/>
		</contour>
	</outline>
</glyph>
<glyph name="z" format="2">
	<unicode hex="007A"/>
	<advance width="488"/>
	<outline>
		<contour>
			<point x="428" y="0" type="line"/>
			<point x="60" y="0" type="line"/>
			<point x="60" y="83" type="line"/>
			<point x="326" y="430" type="line"/>
			<point x="80" y="430" type="line"/>
			<point x="80" y="500" type="line"/>
			<point x="428" y="500" type="line"/>
			<point x="428" y="417" type="line"/>
			<point x="160" y="70" type="line"/>
			<point x="428" y="70" type="line"/>
		</contour>
	</outline>
</glyph>
<glyph name="bar" format="2">
	<unicode hex="007C"/>
	<advance width="250"/>
	<outline>
		<contour>
			<point x="170" y="-258" type="line"/>
			<point x="80" y="-258" type="line"/>
			<point x="80" y="796" type="line"/>
			<point x="170" y="796" type="line"/>
		</contour>
	</outline>
</glyph>
<glyph name="exclamdown" format="2">
	<unicode hex="00A1"/>
	<advance width="200"/>
	<outline>
		<contour>
			<point x="150" y="-198" type="line"/>
			<point x="67" y="-198" type="line"/>
			<point x="67" y="331" type="line"/>
			<point x="150" y="331" type="line"/>
		</contour>
		<contour>
			<point x="150" y="405" type="line"/>
			<point x="50" y="405" type="line"/>
			<point x="50" y="500" type="line"/>
			<point x="150" y="500" type="line"/>
		</contour>
	</outline>
</glyph>
<glyph name="ordfeminine" format="2">
	<unicode hex="00AA"/>
	<advance width="388"/>
	<outline>
		<component base="a" xScale="0.705183" xyScale="0" yScale="0.705183" xOffset="-7.52451" yOffset="351.093"/>
		<contour>
			<point x="368" y="243" type="line"/>
			<point x="19" y="243" type="line"/>
			<point x="19" y="280" type="line"/>
			<point x="368" y="280" type="line"/>
		</contour>
	</outline>
</glyph>
<glyph name="uni00AD" format="2">
	<unicode hex="00AD"/>
	<advance width="310"/>
	<outline>
		<contour>
			<point x="270" y="267" type="line"/>
			<point x="40" y="267" type="line"/>
			<point x="40" y="331" type="line"/>
			<point x="270" y="331" type="line"/>
		</contour>
	</outline>
</glyph>
<glyph name="macron" format="2">
	<unicode hex="00AF"/>
	<advance width="289"/>
	<outline>
		<contour>
			<point x="290" y="630" type="line"/>
			<point x="0" y="630" type="line"/>
			<point x="0" y="699" type="line"/>
			<point x="290" y="699" type="line"/>
		</contour>
	</outline>
</glyph>
<glyph name="degree" format="2">
	<unicode hex="00B0"/>
	<advance width="319"/>
	<outline>
		<contour>
			<point x="160" y="540" type="curve" smooth="yes"/>
			<point x="199" y="540"/>
			<point x="230" y="572"/>
			<point x="230" y="611" type="curve" smooth="yes"/>
			<point x="230" y="650"/>
			<point x="199" y="681"/>
			<point x="160" y="681" type="curve" smooth="yes"/>
			<point x="121" y="681"/>
			<point x="90" y="650"/>
			<point x="90" y="611" type="curve" smooth="yes"/>
			<point x="90" y="572"/>
			<point x="121" y="540"/>
		</contour>
		<contour>
			<point x="160" y="720" type="curve" smooth="yes"/>
			<point x="220" y="720"/>
			<point x="270" y="670"/>
			<point x="270" y="610" type="curve" smooth="yes"/>
			<point x="270" y="549"/>
			<point x="221" y="500"/>
			<point x="160" y="500" type="curve" smooth="yes"/>
			<point x="99" y="500"/>
			<point x="50" y="549"/>
			<point x="50" y="610" type="curve" smooth="yes"/>
			<point x="50" y="671"/>
			<point x="99" y="720"/>
		</contour>
	</outline>
</glyph>
<glyph name="twosuperior" format="2">
  <advance width="353"/>
  <unicode hex="00B2"/>
  <outline>
    <contour>
      <point x="28" y="416" type="line"/>
      <point x="79.9637" y="454.9" type="line" smooth="yes"/>
      <point x="228.292" y="566.451"/>
      <point x="243" y="587.105"/>
      <point x="243" y="622.145" type="curve" smooth="yes"/>
      <point x="243" y="665"/>
      <point x="221" y="684"/>
      <point x="179.045" y="684" type="curve" smooth="yes"/>
      <point x="136" y="684"/>
      <point x="116" y="664"/>
      <point x="111" y="624" type="curve"/>
      <point x="37" y="624" type="line"/>
      <point x="41" y="693"/>
      <point x="97" y="743"/>
      <point x="172" y="743" type="curve" smooth="yes"/>
      <point x="257" y="743"/>
      <point x="315" y="708"/>
      <point x="315" y="620.79" type="curve" smooth="yes"/>
      <point x="315" y="577.241"/>
      <point x="300.538" y="552.681"/>
      <point x="144.425" y="429.948" type="curve" smooth="yes"/>
      <point x="119" y="410" type="line"/>
      <point x="321" y="410" type="line"/>
      <point x="321" y="351" type="line"/>
      <point x="28" y="351" type="line"/>
    </contour>
  </outline>
</glyph>
<glyph name="threesuperior" format="2">
	<unicode hex="00B3"/>
	<advance width="371"/>
	<outline>
		<contour>
			<point x="31" y="461" type="curve"/>
			<point x="97" y="461" type="line"/>
			<point x="101.805" y="415.357"/>
			<point x="128.78" y="399"/>
			<point x="179.204" y="399" type="curve" smooth="yes"/>
			<point x="240.225" y="399"/>
			<point x="276" y="422.953"/>
			<point x="276" y="457.854" type="curve" smooth="yes"/>
			<point x="276" y="496.379"/>
			<point x="234.832" y="516"/>
			<point x="154" y="516" type="curve"/>
			<point x="154" y="569" type="line"/>
			<point x="222.591" y="569"/>
			<point x="252" y="588.806"/>
			<point x="252" y="626.23" type="curve" smooth="yes"/>
			<point x="252" y="661.257"/>
			<point x="226.238" y="678.648"/>
			<point x="182.153" y="678.648" type="curve" smooth="yes"/>
			<point x="140.856" y="678.648"/>
			<point x="115.665" y="663.388"/>
			<point x="110" y="626" type="curve"/>
			<point x="46" y="626" type="line"/>
			<point x="46" y="690.426"/>
			<point x="104.324" y="736"/>
			<point x="194.338" y="736" type="curve" smooth="yes"/>
			<point x="275.772" y="736"/>
			<point x="327" y="698.7"/>
			<point x="327" y="632.054" type="curve" smooth="yes"/>
			<point x="327" y="583.955"/>
			<point x="300.317" y="551.849"/>
			<point x="249.115" y="544.968" type="curve"/>
			<point x="249" y="549" type="line"/>
			<point x="309.558" y="539.581"/>
			<point x="344" y="506.573"/>
			<point x="344" y="456.16" type="curve" smooth="yes"/>
			<point x="344" y="387.733"/>
			<point x="280.547" y="340"/>
			<point x="177.582" y="340" type="curve" smooth="yes"/>
			<point x="85.2288" y="340"/>
			<point x="35.4648" y="378.401"/>
		</contour>
	</outline>
</glyph>
<glyph name="cedilla" format="2">
	<unicode hex="00B8"/>
	<advance width="317"/>
	<outline>
		<contour>
			<point x="257" y="-141.014" type="curve" smooth="yes"/>
			<point x="257" y="-197.535"/>
			<point x="215" y="-233"/>
			<point x="148.064" y="-233" type="curve" smooth="yes"/>
			<point x="123.064" y="-233"/>
			<point x="99.4799" y="-230"/>
			<point x="60.4799" y="-224" type="curve"/>
			<point x="60.4799" y="-174" type="line"/>
			<point x="81.8558" y="-181.911"/>
			<point x="111.586" y="-186"/>
			<point x="138.482" y="-186" type="curve" smooth="yes"/>
			<point x="169.197" y="-186"/>
			<point x="186" y="-170.446"/>
			<point x="186" y="-142.014" type="curve" smooth="yes"/>
			<point x="186" y="-109.667"/>
			<point x="160.287" y="-90"/>
			<point x="117.996" y="-90" type="curve" smooth="yes"/>
			<point x="65" y="-90" type="line"/>
			<point x="113" y="10" type="line"/>
			<point x="162" y="10" type="line"/>
			<point x="130.21" y="-53.1676" type="line"/>
			<point x="223.075" y="-53.1676"/>
			<point x="257" y="-83.1866"/>
		</contour>
	</outline>
</glyph>
<glyph name="guillemotright" format="2">
	<unicode hex="00BB"/>
	<advance width="557"/>
	<outline>
		<contour>
			<point x="289" y="252" type="line"/>
			<point x="152" y="57" type="line"/>
			<point x="74" y="57" type="line"/>
			<point x="193" y="252" type="line"/>
			<point x="74" y="447" type="line"/>
			<point x="152" y="447" type="line"/>
		</contour>
		<contour>
			<point x="484" y="252" type="line"/>
			<point x="347" y="57" type="line"/>
			<point x="269" y="57" type="line"/>
			<point x="388" y="252" type="line"/>
			<point x="269" y="447" type="line"/>
			<point x="347" y="447" type="line"/>
		</contour>
	</outline>
</glyph>
<glyph name="onequarter" format="2">
	<unicode hex="00BC"/>
	<advance width="799"/>
	<outline>
		<component base="onesuperior"/>
		<contour>
			<point x="613" y="736" type="line"/>
			<point x="187" y="-14" type="line"/>
			<point x="118" y="-14" type="line"/>
			<point x="544" y="736" type="line"/>
		</contour>
		<contour>
			<point x="744" y="95" type="line"/>
			<point x="663" y="95" type="line"/>
			<point x="663" y="0" type="line"/>
			<point x="599" y="0" type="line"/>
			<point x="599" y="95" type="line"/>
			<point x="419" y="95" type="line"/>
			<point x="419" y="147.981" type="line"/>
			<point x="593" y="390" type="line"/>
			<point x="663" y="390" type="line"/>
			<point x="663" y="149" type="line"/>
			<point x="744" y="149" type="line"/>
		</contour>
		<contour>
			<point x="599" y="149" type="line"/>
			<point x="599" y="314" type="line"/>
			<point x="478" y="149" type="line"/>
		</contour>
	</outline>
</glyph>
<glyph name="threequarters" format="2">
	<unicode hex="00BE"/>
	<advance width="799"/>
	<outline>
		<contour>
			<point x="249.119" y="545.146" type="curve"/>
			<point x="249" y="549" type="line"/>
			<point x="302.817" y="538.339"/>
			<point x="334" y="511"/>
			<point x="334" y="449" type="curve" smooth="yes"/>
			<point x="334" y="381.195"/>
			<point x="278.042" y="340"/>
			<point x="186.677" y="340" type="curve" smooth="yes"/>
			<point x="110.299" y="340"/>
			<point x="35" y="384"/>
			<point x="31" y="461" type="curve"/>
			<point x="97" y="461" type="line"/>
			<point x="101" y="422"/>
			<point x="148.299" y="399"/>
			<point x="194.299" y="399" type="curve" smooth="yes"/>
			<point x="233.968" y="399"/>
			<point x="266" y="419.426"/>
			<point x="266" y="445" type="curve" smooth="yes"/>
			<point x="266" y="505"/>
			<point x="219" y="516"/>
			<point x="154" y="516" type="curve"/>
			<point x="154" y="569" type="line"/>
			<point x="211" y="569"/>
			<point x="252" y="581"/>
			<point x="252" y="635" type="curve" smooth="yes"/>
			<point x="252" y="667"/>
			<point x="211" y="680"/>
			<point x="180.617" y="680" type="curve" smooth="yes"/>
			<point x="142" y="680"/>
			<point x="115" y="659"/>
			<point x="110" y="626" type="curve"/>
			<point x="46" y="626" type="line"/>
			<point x="46" y="701"/>
			<point x="110" y="736"/>
			<point x="190.763" y="736" type="curve" smooth="yes"/>
			<point x="263" y="736"/>
			<point x="327" y="708"/>
			<point x="327" y="636.408" type="curve" smooth="yes"/>
			<point x="327" y="585"/>
			<point x="301.411" y="559.429"/>
		</contour>
		<contour>
			<point x="660.594" y="736" type="line"/>
			<point x="235" y="-14" type="line"/>
			<point x="166" y="-14" type="line"/>
			<point x="592" y="736" type="line"/>
		</contour>
		<contour>
			<point x="768" y="95" type="line"/>
			<point x="687" y="95" type="line"/>
			<point x="687" y="0" type="line"/>
			<point x="622" y="0" type="line"/>
			<point x="622" y="95" type="line"/>
			<point x="443" y="95" type="line"/>
			<point x="443" y="147" type="line"/>
			<point x="617" y="390" type="line"/>
			<point x="687" y="390" type="line"/>
			<point x="687" y="148" type="line"/>
			<point x="768" y="148" type="line"/>
		</contour>
		<contour>
			<point x="622" y="148" type="line"/>
			<point x="622" y="313" type="line"/>
			<point x="501" y="148" type="line"/>
		</contour>
	</outline>
</glyph>
<glyph name="AE" format="2">
  <advance width="976"/>
  <unicode hex="00C6"/>
  <outline>
    <contour>
      <point x="15" y="0" type="line"/>
      <point x="398" y="722" type="line"/>
      <point x="906" y="722" type="line"/>
      <point x="906" y="635" type="line"/>
      <point x="560" y="635" type="line"/>
      <point x="560" y="413" type="line"/>
      <point x="896" y="413" type="line"/>
      <point x="896" y="326" type="line"/>
      <point x="560" y="326" type="line"/>
      <point x="560" y="87" type="line"/>
      <point x="916" y="87" type="line"/>
      <point x="916" y="0" type="line"/>
      <point x="460" y="0" type="line"/>
      <point x="460" y="193" type="line"/>
      <point x="229" y="193" type="line"/>
      <point x="121" y="0" type="line"/>
    </contour>
    <contour>
      <point x="278" y="278" type="line"/>
      <point x="460" y="278" type="line"/>
      <point x="460" y="641" type="line"/>
    </contour>
  </outline>
</glyph>
<glyph name="Eth" format="2">
	<unicode hex="00D0"/>
	<advance width="719"/>
	<outline>
		<component base="D" xOffset="10"/>
		<contour>
			<point x="0" y="403" type="line"/>
			<point x="0" y="320" type="line"/>
			<point x="351" y="320" type="line"/>
			<point x="351" y="403" type="line"/>
		</contour>
	</outline>
</glyph>
<glyph name="Oslash" format="2">
	<unicode hex="00D8"/>
	<advance width="755"/>
	<outline>
		<component base="O"/>
		<contour>
			<point x="126" y="-100" type="line"/>
			<point x="51" y="-51" type="line"/>
			<point x="632" y="817" type="line"/>
			<point x="707" y="768" type="line"/>
		</contour>
	</outline>
</glyph>
<glyph name="Thorn" format="2">
  <advance width="622"/>
  <unicode hex="00DE"/>
  <outline>
    <contour>
      <point x="80" y="1" type="line"/>
      <point x="80" y="723" type="line"/>
      <point x="181" y="723" type="line"/>
      <point x="181" y="588" type="line"/>
      <point x="284" y="588" type="line" smooth="yes"/>
      <point x="443" y="588"/>
      <point x="563" y="551"/>
      <point x="563" y="380" type="curve" smooth="yes"/>
      <point x="563" y="215"/>
      <point x="449" y="172"/>
      <point x="284" y="172" type="curve" smooth="yes"/>
      <point x="181" y="172" type="line"/>
      <point x="181" y="1" type="line"/>
    </contour>
    <contour>
      <point x="181" y="260" type="line"/>
      <point x="287" y="260" type="line" smooth="yes"/>
      <point x="396" y="260"/>
      <point x="466" y="280"/>
      <point x="466" y="379" type="curve" smooth="yes"/>
      <point x="466" y="478"/>
      <point x="395" y="501"/>
      <point x="287" y="501" type="curve" smooth="yes"/>
      <point x="181" y="501" type="line"/>
    </contour>
  </outline>
</glyph>
<glyph name="ae" format="2">
  <advance width="905"/>
  <unicode hex="00E6"/>
  <outline>
    <contour>
      <point x="229" y="-14" type="curve" smooth="yes"/>
      <point x="125" y="-14"/>
      <point x="39" y="37"/>
      <point x="39" y="136" type="curve" smooth="yes"/>
      <point x="39" y="247"/>
      <point x="120" y="307"/>
      <point x="281" y="307" type="curve" smooth="yes"/>
      <point x="321" y="307"/>
      <point x="375" y="303"/>
      <point x="399" y="301" type="curve"/>
      <point x="397" y="387"/>
      <point x="354" y="447"/>
      <point x="271" y="447" type="curve" smooth="yes"/>
      <point x="198" y="447"/>
      <point x="159" y="426"/>
      <point x="159" y="376" type="curve"/>
      <point x="66" y="376" type="line"/>
      <point x="66" y="467"/>
      <point x="148" y="512"/>
      <point x="275" y="512" type="curve" smooth="yes"/>
      <point x="369" y="512"/>
      <point x="426" y="472"/>
      <point x="459" y="390" type="curve"/>
      <point x="490" y="472"/>
      <point x="548" y="511"/>
      <point x="651" y="511" type="curve" smooth="yes"/>
      <point x="789" y="511"/>
      <point x="864.5" y="410"/>
      <point x="864.5" y="280" type="curve" smooth="yes"/>
      <point x="864.5" y="272.464"/>
      <point x="864.5" y="244.848"/>
      <point x="864.5" y="238" type="curve"/>
      <point x="811.348" y="238"/>
      <point x="568.213" y="238"/>
      <point x="500" y="238" type="curve"/>
      <point x="500" y="140"/>
      <point x="551" y="51"/>
      <point x="636" y="51" type="curve" smooth="yes"/>
      <point x="705" y="51"/>
      <point x="747" y="87"/>
      <point x="762" y="157" type="curve"/>
      <point x="771.108" y="157"/>
      <point x="843.123" y="157"/>
      <point x="857" y="157" type="curve"/>
      <point x="844" y="54"/>
      <point x="771" y="-14"/>
      <point x="656" y="-14" type="curve" smooth="yes"/>
      <point x="548" y="-14"/>
      <point x="472" y="37"/>
      <point x="454" y="126" type="curve"/>
      <point x="443" y="91"/>
      <point x="379" y="-14"/>
    </contour>
    <contour>
      <point x="404" y="243" type="curve"/>
      <point x="381" y="245"/>
      <point x="355" y="247"/>
      <point x="329" y="247" type="curve" smooth="yes"/>
      <point x="236" y="247"/>
      <point x="134" y="227"/>
      <point x="134" y="147" type="curve" smooth="yes"/>
      <point x="134" y="83"/>
      <point x="185" y="51"/>
      <point x="242" y="51" type="curve" smooth="yes"/>
      <point x="356" y="51"/>
      <point x="404" y="117"/>
      <point x="404" y="225" type="curve" smooth="yes"/>
      <point x="404" y="229.195"/>
      <point x="404" y="239.901"/>
    </contour>
    <contour>
      <point x="765" y="303" type="line"/>
      <point x="758" y="382"/>
      <point x="727" y="447"/>
      <point x="636" y="447" type="curve" smooth="yes"/>
      <point x="551" y="447"/>
      <point x="511" y="367"/>
      <point x="503" y="303" type="curve"/>
    </contour>
  </outline>
</glyph>
<glyph name="eth" format="2">
	<unicode hex="00F0"/>
	<advance width="587"/>
	<outline>
		<contour>
			<point x="48" y="254.086" type="curve" smooth="yes"/>
			<point x="48" y="90"/>
			<point x="132" y="-13"/>
			<point x="289.434" y="-13" type="curve" smooth="yes"/>
			<point x="443" y="-13"/>
			<point x="538" y="85"/>
			<point x="538" y="253.97" type="curve" smooth="yes"/>
			<point x="538" y="462.433"/>
			<point x="393.402" y="637.835"/>
			<point x="139" y="734" type="curve"/>
			<point x="89" y="705" type="line"/>
			<point x="168.534" y="672.511"/>
			<point x="326.873" y="562.487"/>
			<point x="359.768" y="505.318" type="curve"/>
			<point x="345.665" y="509.328"/>
			<point x="311.698" y="513"/>
			<point x="292" y="513" type="curve" smooth="yes"/>
			<point x="120" y="513"/>
			<point x="48" y="406"/>
		</contour>
		<contour>
			<point x="140" y="243.874" type="curve" smooth="yes"/>
			<point x="140" y="352"/>
			<point x="194" y="445"/>
			<point x="296.544" y="445" type="curve" smooth="yes"/>
			<point x="394" y="445"/>
			<point x="444" y="361"/>
			<point x="444" y="254" type="curve" smooth="yes"/>
			<point x="444" y="164"/>
			<point x="408" y="56"/>
			<point x="292" y="56" type="curve" smooth="yes"/>
			<point x="187" y="56"/>
			<point x="140" y="143"/>
		</contour>
		<contour>
			<point x="67" y="566" type="line"/>
			<point x="86" y="523" type="line"/>
			<point x="456.211" y="690.504" type="line"/>
			<point x="435" y="732" type="line"/>
		</contour>
	</outline>
</glyph>
<glyph name="oslash" format="2">
	<unicode hex="00F8"/>
	<advance width="591"/>
	<outline>
		<component base="o" xOffset="-14"/>
		<contour>
			<point x="82" y="-81" type="line"/>
			<point x="31" y="-44" type="line"/>
			<point x="499" y="591" type="line"/>
			<point x="550" y="554" type="line"/>
		</contour>
	</outline>
</glyph>
<glyph name="thorn" format="2">
	<unicode hex="00FE"/>
	<advance width="598"/>
	<outline>
		<contour>
			<point x="549" y="250" type="curve" smooth="yes"/>
			<point x="549" y="94"/>
			<point x="482.417" y="-13"/>
			<point x="320.082" y="-13" type="curve" smooth="yes"/>
			<point x="269.74" y="-13"/>
			<point x="216.377" y="9"/>
			<point x="161" y="53" type="curve"/>
			<point x="161" y="-200" type="line"/>
			<point x="71" y="-200" type="line"/>
			<point x="71" y="723" type="line"/>
			<point x="161" y="723" type="line"/>
			<point x="161" y="672.346"/>
			<point x="161" y="488.235"/>
			<point x="161" y="438" type="curve"/>
			<point x="194.964" y="489.55"/>
			<point x="253.63" y="514"/>
			<point x="327.224" y="514" type="curve" smooth="yes"/>
			<point x="480.458" y="514"/>
			<point x="549" y="407"/>
		</contour>
		<contour>
			<point x="308" y="449" type="curve" smooth="yes"/>
			<point x="205.301" y="449"/>
			<point x="161" y="355"/>
			<point x="161" y="248.2" type="curve" smooth="yes"/>
			<point x="161" y="139"/>
			<point x="207.315" y="51"/>
			<point x="308" y="51" type="curve" smooth="yes"/>
			<point x="407.678" y="51"/>
			<point x="455" y="139"/>
			<point x="455" y="250" type="curve" smooth="yes"/>
			<point x="455" y="361"/>
			<point x="407.678" y="449"/>
		</contour>
	</outline>
</glyph>
<glyph name="dcroat" format="2">
  <advance width="561"/>
  <unicode hex="0111"/>
  <outline>
    <component base="d" xOffset="-20"/>
    <contour>
      <point x="298" y="642" type="line"/>
      <point x="298" y="573" type="line"/>
      <point x="560" y="573" type="line"/>
      <point x="560" y="642" type="line"/>
    </contour>
  </outline>
</glyph>
<glyph name="hbar" format="2">
	<unicode hex="0127"/>
	<advance width="583"/>
	<outline>
		<component base="h"/>
		<contour>
			<point x="-31" y="620" type="line"/>
			<point x="-31" y="565" type="line"/>
			<point x="334" y="565" type="line"/>
			<point x="334" y="620" type="line"/>
		</contour>
	</outline>
</glyph>
<glyph name="dotlessi" format="2">
	<unicode hex="0131"/>
	<advance width="229"/>
	<outline>
		<contour>
			<point x="160" y="0" type="line"/>
			<point x="70" y="0" type="line"/>
			<point x="70" y="500" type="line"/>
			<point x="160" y="500" type="line"/>
		</contour>
	</outline>
</glyph>
<glyph name="kgreenlandic" format="2">
	<unicode hex="0138"/>
	<advance width="509"/>
	<outline>
		<contour>
			<point x="489" y="0" type="line"/>
			<point x="370" y="0" type="line"/>
			<point x="170" y="267" type="line"/>
			<point x="170" y="0" type="line"/>
			<point x="80" y="0" type="line"/>
			<point x="80" y="470" type="line"/>
			<point x="170" y="500" type="line"/>
			<point x="170" y="292" type="line"/>
			<point x="360" y="500" type="line"/>
			<point x="473" y="500" type="line"/>
			<point x="273" y="282" type="line"/>
		</contour>
	</outline>
</glyph>
<glyph name="ldot" format="2">
	<unicode hex="0140"/>
	<advance width="419"/>
	<outline>
		<contour>
			<point x="160" y="0" type="line"/>
			<point x="70" y="0" type="line"/>
			<point x="70" y="722" type="line"/>
			<point x="160" y="722" type="line"/>
		</contour>
		<contour>
			<point x="352" y="278" type="line"/>
			<point x="244" y="278" type="line"/>
			<point x="244" y="401" type="line"/>
			<point x="352" y="401" type="line"/>
		</contour>
	</outline>
</glyph>
<glyph name="Lslash" format="2">
	<unicode hex="0141"/>
	<advance width="576"/>
	<outline>
		<contour>
			<point x="561" y="0" type="line"/>
			<point x="141" y="0" type="line"/>
			<point x="141" y="300" type="line"/>
			<point x="35" y="196" type="line"/>
			<point x="35" y="275" type="line"/>
			<point x="141" y="380" type="line"/>
			<point x="141" y="722" type="line"/>
			<point x="242" y="722" type="line"/>
			<point x="242" y="479" type="line"/>
			<point x="348" y="584" type="line"/>
			<point x="348" y="502" type="line"/>
			<point x="242" y="398" type="line"/>
			<point x="242" y="87" type="line"/>
			<point x="561" y="87" type="line"/>
		</contour>
	</outline>
</glyph>
<glyph name="lslash" format="2">
	<unicode hex="0142"/>
	<advance width="343"/>
	<outline>
		<contour>
			<point x="309" y="483" type="line"/>
			<point x="217" y="393" type="line"/>
			<point x="217" y="0" type="line"/>
			<point x="127" y="0" type="line"/>
			<point x="127" y="305" type="line"/>
			<point x="35" y="215" type="line"/>
			<point x="35" y="294" type="line"/>
			<point x="127" y="385" type="line"/>
			<point x="127" y="722" type="line"/>
			<point x="217" y="722" type="line"/>
			<point x="217" y="474" type="line"/>
			<point x="309" y="565" type="line"/>
		</contour>
	</outline>
</glyph>
<glyph name="napostrophe" format="2">
	<unicode hex="0149"/>
	<advance width="710"/>
	<outline>
		<component base="n" xOffset="115"/>
		<contour>
			<point x="125" y="722" type="line"/>
			<point x="102" y="434" type="line"/>
			<point x="42" y="434" type="line"/>
			<point x="19" y="722" type="line"/>
		</contour>
	</outline>
</glyph>
<glyph name="Eng" format="2">
	<unicode hex="014A"/>
	<advance width="683"/>
	<outline>
		<component base="N"/>
		<contour>
			<point x="623" y="20" type="line"/>
			<point x="623" y="-62" type="line" smooth="yes"/>
			<point x="623" y="-146"/>
			<point x="563.337" y="-200"/>
			<point x="474.242" y="-200" type="curve" smooth="yes"/>
			<point x="421" y="-200"/>
			<point x="375" y="-181"/>
			<point x="340" y="-143" type="curve"/>
			<point x="397" y="-86" type="line"/>
			<point x="418" y="-115"/>
			<point x="443" y="-130"/>
			<point x="470.61" y="-130" type="curve" smooth="yes"/>
			<point x="509" y="-130"/>
			<point x="533" y="-101"/>
			<point x="533" y="-62" type="curve" smooth="yes"/>
			<point x="533" y="20" type="line"/>
		</contour>
	</outline>
</glyph>
<glyph name="OE" format="2">
	<unicode hex="0152"/>
	<advance width="1004"/>
	<outline>
		<contour>
			<point x="60" y="360" type="curve" smooth="yes"/>
			<point x="60" y="570"/>
			<point x="187" y="736"/>
			<point x="386" y="736" type="curve" smooth="yes"/>
			<point x="426" y="736"/>
			<point x="470" y="731"/>
			<point x="507" y="722" type="curve"/>
			<point x="945" y="722" type="line"/>
			<point x="945" y="635" type="line"/>
			<point x="635" y="635" type="line"/>
			<point x="635" y="413" type="line"/>
			<point x="925" y="413" type="line"/>
			<point x="925" y="326" type="line"/>
			<point x="635" y="326" type="line"/>
			<point x="635" y="87" type="line"/>
			<point x="945" y="87" type="line"/>
			<point x="945" y="0" type="line"/>
			<point x="501" y="0" type="line"/>
			<point x="469.938" y="-11.5633"/>
			<point x="430.077" y="-16"/>
			<point x="386" y="-16" type="curve" smooth="yes"/>
			<point x="187" y="-16"/>
			<point x="60" y="150"/>
		</contour>
		<contour>
			<point x="163" y="359" type="curve" smooth="yes"/>
			<point x="163" y="199"/>
			<point x="236" y="72"/>
			<point x="386" y="72" type="curve" smooth="yes"/>
			<point x="448.533" y="72"/>
			<point x="499.082" y="85.8166"/>
			<point x="534" y="115" type="curve"/>
			<point x="534" y="615" type="line"/>
			<point x="496.532" y="635.595"/>
			<point x="447" y="647"/>
			<point x="386" y="647" type="curve" smooth="yes"/>
			<point x="218" y="647"/>
			<point x="163" y="495"/>
		</contour>
	</outline>
</glyph>
<glyph name="oe" format="2">
  <advance width="935"/>
  <unicode hex="0153"/>
  <outline>
    <contour>
      <point x="50" y="251.825" type="curve" smooth="yes"/>
      <point x="50" y="421"/>
      <point x="145" y="513"/>
      <point x="290.797" y="513" type="curve" smooth="yes"/>
      <point x="382" y="513"/>
      <point x="441.953" y="477"/>
      <point x="474.798" y="406" type="curve"/>
      <point x="515" y="475"/>
      <point x="584.86" y="512"/>
      <point x="665.168" y="512" type="curve" smooth="yes"/>
      <point x="822.877" y="512"/>
      <point x="891.594" y="406.876"/>
      <point x="886" y="281" type="curve" smooth="yes"/>
      <point x="884" y="236" type="line"/>
      <point x="515" y="236" type="line"/>
      <point x="515" y="155"/>
      <point x="552" y="50"/>
      <point x="661" y="50" type="curve" smooth="yes"/>
      <point x="733" y="50"/>
      <point x="780" y="95"/>
      <point x="786" y="159" type="curve"/>
      <point x="883" y="159" type="line"/>
      <point x="868" y="56"/>
      <point x="778" y="-12"/>
      <point x="654.802" y="-12" type="curve" smooth="yes"/>
      <point x="561" y="-12"/>
      <point x="498.107" y="27"/>
      <point x="471.62" y="108" type="curve"/>
      <point x="437.715" y="27"/>
      <point x="380" y="-12"/>
      <point x="288.111" y="-12" type="curve" smooth="yes"/>
      <point x="148" y="-12"/>
      <point x="50" y="80"/>
    </contour>
    <contour>
      <point x="140" y="248.115" type="curve" smooth="yes"/>
      <point x="140" y="143"/>
      <point x="183" y="50"/>
      <point x="283" y="50" type="curve" smooth="yes"/>
      <point x="382" y="50"/>
      <point x="428" y="144"/>
      <point x="428" y="249" type="curve" smooth="yes"/>
      <point x="428" y="354"/>
      <point x="381" y="446"/>
      <point x="282" y="446" type="curve" smooth="yes"/>
      <point x="182" y="446"/>
      <point x="140" y="352"/>
    </contour>
    <contour>
      <point x="514" y="300" type="curve"/>
      <point x="786" y="300" type="line"/>
      <point x="786" y="399"/>
      <point x="744" y="448"/>
      <point x="667.066" y="448" type="curve" smooth="yes"/>
      <point x="570" y="448"/>
      <point x="514" y="370"/>
    </contour>
  </outline>
</glyph>
<glyph name="Tbar" format="2">
	<unicode hex="0166"/>
	<advance width="622"/>
	<outline>
		<component base="T"/>
		<contour>
			<point x="158" y="298" type="line"/>
			<point x="458" y="298" type="line"/>
			<point x="458" y="363" type="line"/>
			<point x="158" y="363" type="line"/>
		</contour>
	</outline>
</glyph>
<glyph name="tbar" format="2">
  <advance width="370"/>
  <unicode hex="0167"/>
  <outline>
    <component base="t" xOffset="16"/>
    <contour>
      <point x="57" y="313" type="line"/>
      <point x="57" y="248" type="line"/>
      <point x="297" y="248" type="line"/>
      <point x="297" y="313" type="line"/>
    </contour>
  </outline>
</glyph>
<glyph name="uni01C2" format="2">
  <advance width="405"/>
  <unicode hex="01C2"/>
  <outline>
    <contour>
      <point x="385" y="272" type="line"/>
      <point x="228" y="272" type="line"/>
      <point x="228" y="0" type="line"/>
      <point x="177" y="0" type="line"/>
      <point x="177" y="272" type="line"/>
      <point x="19" y="272" type="line"/>
      <point x="19" y="323" type="line"/>
      <point x="177" y="323" type="line"/>
      <point x="177" y="413" type="line"/>
      <point x="19" y="413" type="line"/>
      <point x="19" y="464" type="line"/>
      <point x="177" y="464" type="line"/>
      <point x="177" y="736" type="line"/>
      <point x="228" y="736" type="line"/>
      <point x="228" y="464" type="line"/>
      <point x="385" y="464" type="line"/>
      <point x="385" y="413" type="line"/>
      <point x="228" y="413" type="line"/>
      <point x="228" y="323" type="line"/>
      <point x="385" y="323" type="line"/>
    </contour>
  </outline>
</glyph>
<glyph name="uni01C3" format="2">
	<unicode hex="01C3"/>
	<advance width="369"/>
	<outline>
		<contour>
			<point x="231" y="0" type="line"/>
			<point x="131" y="0" type="line"/>
			<point x="131" y="95" type="line"/>
			<point x="231" y="95" type="line"/>
		</contour>
		<contour>
			<point x="238" y="722" type="line"/>
			<point x="218" y="169" type="line"/>
			<point x="135" y="169" type="line"/>
			<point x="115" y="722" type="line"/>
		</contour>
	</outline>
</glyph>
<glyph name="uni01D5" format="2">
	<unicode hex="01D5"/>
	<advance width="697"/>
	<outline>
		<contour>
			<point x="61" y="322" type="curve" smooth="yes"/>
			<point x="61" y="722" type="line"/>
			<point x="161" y="722" type="line"/>
			<point x="161" y="322" type="line" smooth="yes"/>
			<point x="161" y="168"/>
			<point x="199" y="74"/>
			<point x="348" y="74" type="curve" smooth="yes"/>
			<point x="496" y="74"/>
			<point x="536" y="171"/>
			<point x="536" y="322" type="curve" smooth="yes"/>
			<point x="536" y="722" type="line"/>
			<point x="636" y="722" type="line"/>
			<point x="636" y="322" type="line" smooth="yes"/>
			<point x="636" y="78"/>
			<point x="567" y="-14"/>
			<point x="349" y="-14" type="curve" smooth="yes"/>
			<point x="132" y="-14"/>
			<point x="61" y="96"/>
		</contour>
		<contour>
			<point x="293" y="797" type="line"/>
			<point x="203" y="797" type="line"/>
			<point x="203" y="897" type="line"/>
			<point x="293" y="897" type="line"/>
		</contour>
		<contour>
			<point x="493" y="797" type="line"/>
			<point x="403" y="797" type="line"/>
			<point x="403" y="897" type="line"/>
			<point x="493" y="897" type="line"/>
		</contour>
		<contour>
			<point x="494" y="972" type="line"/>
			<point x="204" y="972" type="line"/>
			<point x="204" y="1041" type="line"/>
			<point x="494" y="1041" type="line"/>
		</contour>
	</outline>
	<anchor name="bottom" x="349" y="-50"/>
	<anchor name="top" x="345" y="797"/>
	<anchor name="top.mkmk" x="349" y="1112"/>
</glyph>
<glyph name="uni01DD" format="2">
	<unicode hex="01DD"/>
	<advance width="575"/>
	<outline>
		<contour>
			<point x="515" y="248" type="curve" smooth="yes"/>
			<point x="515" y="93"/>
			<point x="441" y="-14"/>
			<point x="284" y="-14" type="curve" smooth="yes"/>
			<point x="141" y="-14"/>
			<point x="61" y="75"/>
			<point x="61" y="216" type="curve" smooth="yes"/>
			<point x="61" y="262" type="line"/>
			<point x="421" y="262" type="line"/>
			<point x="421" y="364"/>
			<point x="371" y="447"/>
			<point x="276" y="447" type="curve" smooth="yes"/>
			<point x="205" y="447"/>
			<point x="162" y="400"/>
			<point x="156" y="338" type="curve"/>
			<point x="60" y="338" type="line"/>
			<point x="80" y="443"/>
			<point x="157" y="512"/>
			<point x="284" y="512" type="curve" smooth="yes"/>
			<point x="447" y="512"/>
			<point x="515" y="396"/>
		</contour>
		<contour>
			<point x="421" y="197" type="curve"/>
			<point x="155" y="197" type="line"/>
			<point x="155" y="137"/>
			<point x="180" y="51"/>
			<point x="284" y="51" type="curve" smooth="yes"/>
			<point x="362" y="51"/>
			<point x="421" y="99"/>
		</contour>
	</outline>
</glyph>
<glyph name="uni01DF" format="2">
	<unicode hex="01DF"/>
	<advance width="576"/>
	<outline>
		<contour>
			<point x="60" y="140" type="curve" smooth="yes"/>
			<point x="60" y="251"/>
			<point x="161" y="308"/>
			<point x="331" y="308" type="curve" smooth="yes"/>
			<point x="357.52" y="308"/>
			<point x="372.48" y="307"/>
			<point x="399" y="305" type="curve"/>
			<point x="399" y="349" type="line" smooth="yes"/>
			<point x="399" y="410"/>
			<point x="360" y="444"/>
			<point x="290" y="444" type="curve" smooth="yes"/>
			<point x="224" y="444"/>
			<point x="182" y="414"/>
			<point x="182" y="365" type="curve"/>
			<point x="88" y="365" type="line"/>
			<point x="88" y="462"/>
			<point x="158" y="513"/>
			<point x="290" y="513" type="curve" smooth="yes"/>
			<point x="455" y="513"/>
			<point x="495.436" y="451.988"/>
			<point x="493" y="331" type="curve" smooth="yes"/>
			<point x="490" y="182" type="line" smooth="yes"/>
			<point x="487.967" y="81.0205"/>
			<point x="497" y="24"/>
			<point x="506" y="0" type="curve"/>
			<point x="415" y="0" type="line"/>
			<point x="408" y="23"/>
			<point x="404" y="62"/>
			<point x="404" y="72" type="curve"/>
			<point x="349" y="6"/>
			<point x="312" y="-14"/>
			<point x="247" y="-14" type="curve" smooth="yes"/>
			<point x="133" y="-14"/>
			<point x="60" y="46"/>
		</contour>
		<contour>
			<point x="154" y="143" type="curve" smooth="yes"/>
			<point x="154" y="93"/>
			<point x="197" y="55"/>
			<point x="254" y="55" type="curve" smooth="yes"/>
			<point x="351" y="55"/>
			<point x="399" y="105"/>
			<point x="399" y="204" type="curve" smooth="yes"/>
			<point x="399" y="236" type="line"/>
			<point x="379.11" y="238"/>
			<point x="367.89" y="239"/>
			<point x="348" y="239" type="curve" smooth="yes"/>
			<point x="229" y="239"/>
			<point x="154" y="208"/>
		</contour>
		<contour>
			<point x="438" y="580" type="line"/>
			<point x="348" y="580" type="line"/>
			<point x="348" y="680" type="line"/>
			<point x="438" y="680" type="line"/>
		</contour>
		<contour>
			<point x="238" y="580" type="line"/>
			<point x="148" y="580" type="line"/>
			<point x="148" y="680" type="line"/>
			<point x="238" y="680" type="line"/>
		</contour>
		<contour>
			<point x="439" y="755" type="line"/>
			<point x="149" y="755" type="line"/>
			<point x="149" y="824" type="line"/>
			<point x="439" y="824" type="line"/>
		</contour>
	</outline>
	<anchor name="bottom" x="283" y="-50"/>
	<anchor name="ogonekLC" x="432" y="10"/>
	<anchor name="top" x="290" y="580"/>
	<anchor name="top.mkmk" x="294" y="895"/>
</glyph>
<glyph name="uni01F3" format="2">
	<unicode hex="01F3"/>
	<advance width="1119"/>
	<outline>
		<contour>
			<point x="1075" y="0" type="line"/>
			<point x="657" y="0" type="line"/>
			<point x="657" y="105" type="line"/>
			<point x="922" y="415" type="line"/>
			<point x="662" y="415" type="line"/>
			<point x="662" y="500" type="line"/>
			<point x="1062" y="500" type="line"/>
			<point x="1062" y="395" type="line"/>
			<point x="797" y="85" type="line"/>
			<point x="1075" y="85" type="line"/>
		</contour>
		<contour>
			<point x="45" y="243" type="curve"/>
			<point x="45" y="242" type="line"/>
			<point x="45" y="398"/>
			<point x="118" y="513"/>
			<point x="266" y="513" type="curve" smooth="yes"/>
			<point x="314" y="513"/>
			<point x="360" y="502"/>
			<point x="382" y="481" type="curve" smooth="yes"/>
			<point x="391" y="472"/>
			<point x="401" y="463"/>
			<point x="412" y="454" type="curve"/>
			<point x="412" y="721" type="line"/>
			<point x="547" y="721" type="line"/>
			<point x="547" y="-1" type="line"/>
			<point x="412" y="-1" type="line"/>
			<point x="412" y="67" type="line"/>
			<point x="384" y="32"/>
			<point x="338" y="-15"/>
			<point x="274" y="-15" type="curve" smooth="yes"/>
			<point x="151" y="-15"/>
			<point x="84" y="56"/>
			<point x="57" y="151" type="curve" smooth="yes"/>
			<point x="49" y="180"/>
			<point x="45" y="211"/>
		</contour>
		<contour>
			<point x="298" y="75" type="curve"/>
			<point x="296" y="73" type="line"/>
			<point x="373" y="73"/>
			<point x="413" y="164"/>
			<point x="413" y="244" type="curve" smooth="yes"/>
			<point x="413" y="312"/>
			<point x="401" y="362"/>
			<point x="368" y="398" type="curve" smooth="yes"/>
			<point x="351" y="417"/>
			<point x="329" y="427"/>
			<point x="302" y="427" type="curve" smooth="yes"/>
			<point x="261" y="427"/>
			<point x="230" y="409"/>
			<point x="209" y="372" type="curve" smooth="yes"/>
			<point x="188" y="335"/>
			<point x="178" y="292"/>
			<point x="178" y="242" type="curve" smooth="yes"/>
			<point x="178" y="196"/>
			<point x="188" y="157"/>
			<point x="208" y="124" type="curve" smooth="yes"/>
			<point x="228" y="91"/>
			<point x="258" y="75"/>
		</contour>
	</outline>
</glyph>
<glyph name="uni022C" format="2">
  <advance width="754"/>
  <unicode hex="022C"/>
  <anchor x="365" y="797" name="top"/>
  <outline>
    <contour>
      <point x="50" y="372" type="curve" smooth="yes"/>
      <point x="50" y="589"/>
      <point x="163" y="736"/>
      <point x="378" y="736" type="curve" smooth="yes"/>
      <point x="592" y="736"/>
      <point x="704" y="589"/>
      <point x="704" y="372" type="curve" smooth="yes"/>
      <point x="704" y="157"/>
      <point x="595" y="-14"/>
      <point x="378" y="-14" type="curve" smooth="yes"/>
      <point x="160" y="-14"/>
      <point x="50" y="158"/>
    </contour>
    <contour>
      <point x="153" y="371" type="curve" smooth="yes"/>
      <point x="153" y="208"/>
      <point x="210" y="74"/>
      <point x="378" y="74" type="curve" smooth="yes"/>
      <point x="546" y="74"/>
      <point x="601" y="207"/>
      <point x="601" y="372" type="curve" smooth="yes"/>
      <point x="601" y="540"/>
      <point x="544" y="649"/>
      <point x="378" y="649" type="curve" smooth="yes"/>
      <point x="228" y="649"/>
      <point x="153" y="558"/>
    </contour>
    <contour>
      <point x="214" y="815" type="line"/>
      <point x="220" y="877"/>
      <point x="260" y="913"/>
      <point x="299" y="913" type="curve" smooth="yes"/>
      <point x="320" y="913"/>
      <point x="345" y="904"/>
      <point x="368" y="893" type="curve" smooth="yes"/>
      <point x="386" y="884"/>
      <point x="404" y="877"/>
      <point x="416" y="877" type="curve" smooth="yes"/>
      <point x="433" y="877"/>
      <point x="446" y="891"/>
      <point x="450" y="918" type="curve"/>
      <point x="505" y="918" type="line"/>
      <point x="500" y="863"/>
      <point x="467" y="820"/>
      <point x="422" y="820" type="curve" smooth="yes"/>
      <point x="399" y="820"/>
      <point x="373" y="830"/>
      <point x="352.089" y="840.455" type="curve" smooth="yes"/>
      <point x="333" y="850"/>
      <point x="316" y="856"/>
      <point x="304" y="856" type="curve" smooth="yes"/>
      <point x="287" y="856"/>
      <point x="272" y="842"/>
      <point x="269" y="815" type="curve"/>
    </contour>
    <contour>
      <point x="507" y="997" type="line"/>
      <point x="217" y="997" type="line"/>
      <point x="217" y="1066" type="line"/>
      <point x="507" y="1066" type="line"/>
    </contour>
  </outline>
</glyph>
<glyph name="j.dotless" format="2">
	<unicode hex="0237"/>
	<advance width="235"/>
	<outline>
		<contour>
			<point x="30" y="-200" type="line"/>
			<point x="30" y="-134" type="line"/>
			<point x="55" y="-134" type="line" smooth="yes"/>
			<point x="85" y="-134"/>
			<point x="86" y="-91"/>
			<point x="86" y="-44" type="curve" smooth="yes"/>
			<point x="86" y="500" type="line"/>
			<point x="176" y="500" type="line"/>
			<point x="176" y="-74" type="line" smooth="yes"/>
			<point x="176" y="-161"/>
			<point x="125" y="-200"/>
			<point x="55" y="-200" type="curve" smooth="yes"/>
		</contour>
	</outline>
</glyph>
<glyph name="uni0256" format="2">
	<unicode hex="0256"/>
	<advance width="591"/>
	<outline>
		<component base="d"/>
		<contour>
			<point x="441" y="134" type="line"/>
			<point x="441" y="-60" type="line" smooth="yes"/>
			<point x="441" y="-144"/>
			<point x="500" y="-199"/>
			<point x="587" y="-199" type="curve" smooth="yes"/>
			<point x="644" y="-199"/>
			<point x="690" y="-180"/>
			<point x="725" y="-142" type="curve"/>
			<point x="668" y="-85" type="line"/>
			<point x="647" y="-114"/>
			<point x="622" y="-129"/>
			<point x="593" y="-129" type="curve" smooth="yes"/>
			<point x="559" y="-129"/>
			<point x="531" y="-103"/>
			<point x="531" y="-61" type="curve" smooth="yes"/>
			<point x="531" y="134" type="line"/>
		</contour>
	</outline>
</glyph>
<glyph name="uni0260" format="2">
  <advance width="621"/>
  <unicode hex="0260"/>
  <outline>
    <component base="g"/>
    <contour>
      <point x="443" y="400" type="line"/>
      <point x="443" y="500" type="line" smooth="yes"/>
      <point x="443" y="591"/>
      <point x="481" y="638"/>
      <point x="569.978" y="638" type="curve" smooth="yes"/>
      <point x="599" y="638"/>
      <point x="619" y="633"/>
      <point x="634" y="623" type="curve"/>
      <point x="634" y="562" type="line"/>
      <point x="619" y="571"/>
      <point x="603" y="575"/>
      <point x="580.218" y="575" type="curve" smooth="yes"/>
      <point x="548" y="575"/>
      <point x="533" y="567"/>
      <point x="533" y="508" type="curve" smooth="yes"/>
      <point x="533" y="400" type="line"/>
    </contour>
  </outline>
</glyph>
<glyph name="uni026A" format="2">
	<unicode hex="026A"/>
	<advance width="352"/>
	<outline>
		<contour>
			<point x="295" y="0" type="line"/>
			<point x="57" y="0" type="line"/>
			<point x="57" y="74" type="line"/>
			<point x="132" y="74" type="line"/>
			<point x="132" y="420" type="line"/>
			<point x="57" y="420" type="line"/>
			<point x="57" y="500" type="line"/>
			<point x="295" y="500" type="line"/>
			<point x="295" y="420" type="line"/>
			<point x="222" y="420" type="line"/>
			<point x="222" y="74" type="line"/>
			<point x="295" y="74" type="line"/>
		</contour>
	</outline>
</glyph>
<glyph name="uni026B" format="2">
	<unicode hex="026B"/>
	<advance width="466"/>
	<outline>
		<component base="l" xOffset="108"/>
		<contour>
			<point x="46.6949" y="362" type="line"/>
			<point x="52.6949" y="424"/>
			<point x="92.6949" y="460"/>
			<point x="131.695" y="460" type="curve" smooth="yes"/>
			<point x="150.288" y="460"/>
			<point x="170.268" y="453.901"/>
			<point x="191.775" y="443.741" type="curve" smooth="yes"/>
			<point x="199.695" y="440" type="line"/>
			<point x="200.095" y="380.356" type="line"/>
			<point x="191.353" y="386.402" type="line" smooth="yes"/>
			<point x="176.462" y="396.702"/>
			<point x="158.695" y="403"/>
			<point x="136.695" y="403" type="curve" smooth="yes"/>
			<point x="119.695" y="403"/>
			<point x="104.695" y="389"/>
			<point x="101.695" y="362" type="curve"/>
		</contour>
		<contour>
			<point x="259.558" y="413.223" type="line"/>
			<point x="274.181" y="407.038" type="line" smooth="yes"/>
			<point x="301.916" y="395.307"/>
			<point x="315" y="391"/>
			<point x="327" y="391" type="curve" smooth="yes"/>
			<point x="344" y="391"/>
			<point x="357" y="405"/>
			<point x="361" y="432" type="curve"/>
			<point x="416" y="432" type="line"/>
			<point x="411" y="377"/>
			<point x="378" y="334"/>
			<point x="333" y="334" type="curve" smooth="yes"/>
			<point x="313.581" y="334"/>
			<point x="297.56" y="337.705"/>
			<point x="270.056" y="350.731" type="curve" smooth="yes"/>
			<point x="259.731" y="355.621" type="line"/>
		</contour>
	</outline>
</glyph>
<glyph name="uni026D" format="2">
	<unicode hex="026D"/>
	<advance width="282"/>
	<outline>
		<component base="l"/>
		<contour>
			<point x="291" y="-199.87" type="line"/>
			<point x="238.558" y="-199.87" type="line" smooth="yes"/>
			<point x="122.739" y="-199.87"/>
			<point x="80" y="-154.521"/>
			<point x="80" y="-39.7593" type="curve" smooth="yes"/>
			<point x="80" y="40" type="line"/>
			<point x="170" y="40" type="line"/>
			<point x="170" y="-40" type="line" smooth="yes"/>
			<point x="170" y="-103.484"/>
			<point x="188.309" y="-125.759"/>
			<point x="248.611" y="-125.759" type="curve" smooth="yes"/>
			<point x="291" y="-125.759" type="line"/>
		</contour>
	</outline>
</glyph>
<glyph name="uni0272" format="2">
  <advance width="619"/>
  <unicode hex="0272"/>
  <outline>
    <component base="n"/>
    <contour>
      <point x="-35" y="-134.843" type="line"/>
      <point x="14.5077" y="-134.843" type="line" smooth="yes"/>
      <point x="59.2633" y="-134.843"/>
      <point x="80" y="-111.779"/>
      <point x="80" y="-62" type="curve" smooth="yes"/>
      <point x="80" y="50" type="line"/>
      <point x="170" y="50" type="line"/>
      <point x="170" y="-62" type="line" smooth="yes"/>
      <point x="170" y="-162.147"/>
      <point x="127.293" y="-199.862"/>
      <point x="13.8925" y="-199.862" type="curve" smooth="yes"/>
      <point x="-35" y="-199.862" type="line"/>
    </contour>
  </outline>
</glyph>
<glyph name="uni0274" format="2">
	<unicode hex="0274"/>
	<advance width="535"/>
	<outline>
		<contour>
			<point x="57" y="0" type="line"/>
			<point x="57" y="500" type="line"/>
			<point x="166.883" y="500" type="line"/>
			<point x="399" y="98" type="line"/>
			<point x="399" y="500" type="line"/>
			<point x="478" y="500" type="line"/>
			<point x="478" y="0" type="line"/>
			<point x="366.125" y="0" type="line"/>
			<point x="136" y="402" type="line"/>
			<point x="136" y="0" type="line"/>
		</contour>
	</outline>
</glyph>
<glyph name="uni027A" format="2">
	<unicode hex="027A"/>
	<advance width="363"/>
	<outline>
		<contour>
			<point x="202" y="500" type="line"/>
			<point x="202" y="220" type="line" smooth="yes"/>
			<point x="202" y="127"/>
			<point x="141" y="80"/>
			<point x="20" y="80" type="curve"/>
			<point x="20" y="0" type="line"/>
			<point x="140" y="0"/>
			<point x="174" y="19"/>
			<point x="202" y="68" type="curve"/>
			<point x="202" y="0" type="line"/>
			<point x="292" y="0" type="line"/>
			<point x="292" y="500" type="line"/>
		</contour>
	</outline>
</glyph>
<glyph name="uni027B" format="2">
	<unicode hex="027B"/>
	<advance width="409"/>
	<outline>
		<contour>
			<point x="202" y="500" type="line"/>
			<point x="202" y="220" type="line" smooth="yes"/>
			<point x="202" y="127"/>
			<point x="141" y="80"/>
			<point x="20" y="80" type="curve"/>
			<point x="20" y="0" type="line"/>
			<point x="140" y="0"/>
			<point x="174" y="19"/>
			<point x="202" y="68" type="curve"/>
			<point x="202" y="-40" type="line" smooth="yes"/>
			<point x="202" y="-155"/>
			<point x="245" y="-200"/>
			<point x="361" y="-200" type="curve" smooth="yes"/>
			<point x="413" y="-200" type="line"/>
			<point x="413" y="-126" type="line"/>
			<point x="371" y="-126" type="line" smooth="yes"/>
			<point x="310" y="-126"/>
			<point x="292" y="-104"/>
			<point x="292" y="-40" type="curve" smooth="yes"/>
			<point x="292" y="500" type="line"/>
		</contour>
	</outline>
</glyph>
<glyph name="uni027C" format="2">
  <advance width="363"/>
  <unicode hex="027C"/>
  <outline>
    <contour>
      <point x="170" y="-200" type="line"/>
      <point x="170" y="280" type="line" smooth="yes"/>
      <point x="170" y="373"/>
      <point x="231" y="420"/>
      <point x="352" y="420" type="curve"/>
      <point x="352" y="500" type="line"/>
      <point x="232" y="500"/>
      <point x="198" y="481"/>
      <point x="170" y="432" type="curve"/>
      <point x="170" y="500" type="line"/>
      <point x="80" y="500" type="line"/>
      <point x="80" y="-200" type="line"/>
    </contour>
  </outline>
</glyph>
<glyph name="uni027D" format="2">
  <advance width="363"/>
  <unicode hex="027D"/>
  <outline>
    <contour>
      <point x="291" y="-126" type="line"/>
      <point x="249" y="-126" type="line" smooth="yes"/>
      <point x="188" y="-126"/>
      <point x="170" y="-104"/>
      <point x="170" y="-40" type="curve" smooth="yes"/>
      <point x="170" y="280" type="line" smooth="yes"/>
      <point x="170" y="373"/>
      <point x="231" y="420"/>
      <point x="352" y="420" type="curve"/>
      <point x="352" y="500" type="line"/>
      <point x="232" y="500"/>
      <point x="198" y="481"/>
      <point x="170" y="432" type="curve"/>
      <point x="170" y="500" type="line"/>
      <point x="80" y="500" type="line"/>
      <point x="80" y="-40" type="line" smooth="yes"/>
      <point x="80" y="-155"/>
      <point x="123" y="-200"/>
      <point x="239" y="-200" type="curve" smooth="yes"/>
      <point x="291" y="-200" type="line"/>
    </contour>
  </outline>
</glyph>
<glyph name="uni0282" format="2">
  <advance width="503"/>
  <unicode hex="0282"/>
  <outline>
    <component base="s"/>
    <contour>
      <point x="98" y="-83" type="line" smooth="yes"/>
      <point x="98" y="-119"/>
      <point x="131" y="-147"/>
      <point x="177" y="-147" type="curve" smooth="yes"/>
      <point x="214" y="-147"/>
      <point x="248" y="-128"/>
      <point x="248" y="-88" type="curve"/>
      <point x="331" y="-88" type="line"/>
      <point x="331" y="-176"/>
      <point x="291" y="-200"/>
      <point x="192" y="-200" type="curve" smooth="yes"/>
      <point x="113" y="-200"/>
      <point x="60" y="-167.602"/>
      <point x="60" y="-100" type="curve" smooth="yes"/>
      <point x="60" y="144" type="line"/>
      <point x="98" y="144" type="line"/>
    </contour>
  </outline>
</glyph>
<glyph name="uni0284" format="2">
	<unicode hex="0284"/>
	<advance width="350"/>
	<outline>
		<contour>
			<point x="214" y="-43" type="line" smooth="yes"/>
			<point x="214" y="-156"/>
			<point x="171" y="-200"/>
			<point x="66.9232" y="-200" type="curve" smooth="yes"/>
			<point x="39.747" y="-200"/>
			<point x="13" y="-197"/>
			<point x="-7" y="-190" type="curve"/>
			<point x="-7" y="-116" type="line"/>
			<point x="8.96311" y="-125.236"/>
			<point x="29.4262" y="-128"/>
			<point x="47.4929" y="-128" type="curve" smooth="yes"/>
			<point x="105" y="-128"/>
			<point x="124" y="-100"/>
			<point x="124" y="-41" type="curve" smooth="yes"/>
			<point x="124" y="100" type="line"/>
			<point x="214" y="100" type="line"/>
		</contour>
		<contour>
			<point x="124" y="575" type="line" smooth="yes"/>
			<point x="124" y="688"/>
			<point x="167" y="732"/>
			<point x="271.077" y="732" type="curve" smooth="yes"/>
			<point x="298.253" y="732"/>
			<point x="325" y="729"/>
			<point x="345" y="722" type="curve"/>
			<point x="345" y="648" type="line"/>
			<point x="329.037" y="657.236"/>
			<point x="308.574" y="660"/>
			<point x="290.507" y="660" type="curve" smooth="yes"/>
			<point x="233" y="660"/>
			<point x="214" y="632"/>
			<point x="214" y="573" type="curve" smooth="yes"/>
			<point x="214" y="310" type="line"/>
			<point x="334" y="310" type="line"/>
			<point x="334" y="245" type="line"/>
			<point x="214" y="245" type="line"/>
			<point x="214" y="0" type="line"/>
			<point x="124" y="0" type="line"/>
			<point x="124" y="245" type="line"/>
			<point x="24" y="245" type="line"/>
			<point x="24" y="310" type="line"/>
			<point x="124" y="310" type="line"/>
		</contour>
	</outline>
</glyph>
<glyph name="uni0289" format="2">
	<unicode hex="0289"/>
	<advance width="627"/>
	<outline>
		<component base="u"/>
		<contour>
			<point x="35" y="232" type="line"/>
			<point x="560" y="232" type="line"/>
			<point x="560" y="278" type="line"/>
			<point x="35" y="278" type="line"/>
		</contour>
	</outline>
</glyph>
<glyph name="uni028B" format="2">
	<unicode hex="028B"/>
	<advance width="580"/>
	<outline>
		<contour>
			<point x="272" y="-12" type="curve" smooth="yes"/>
			<point x="141" y="-12"/>
			<point x="70" y="56"/>
			<point x="70" y="175" type="curve" smooth="yes"/>
			<point x="70" y="500" type="line"/>
			<point x="160" y="500" type="line"/>
			<point x="160" y="173" type="line" smooth="yes"/>
			<point x="160" y="107"/>
			<point x="227" y="52"/>
			<point x="297.718" y="52" type="curve" smooth="yes"/>
			<point x="370.643" y="52"/>
			<point x="443" y="110.485"/>
			<point x="443" y="193" type="curve" smooth="yes"/>
			<point x="443" y="288"/>
			<point x="415" y="376"/>
			<point x="360" y="458" type="curve"/>
			<point x="438" y="516" type="line"/>
			<point x="487" y="474"/>
			<point x="530" y="356"/>
			<point x="530" y="250" type="curve" smooth="yes"/>
			<point x="530" y="91.1118"/>
			<point x="431.427" y="-12"/>
		</contour>
	</outline>
</glyph>
<glyph name="uni028F" format="2">
  <advance width="493"/>
  <unicode hex="028F"/>
  <outline>
    <contour>
      <point x="484" y="500" type="line"/>
      <point x="286" y="199" type="line"/>
      <point x="286" y="0" type="line"/>
      <point x="207" y="0" type="line"/>
      <point x="207" y="199" type="line"/>
      <point x="9" y="500" type="line"/>
      <point x="104" y="500" type="line"/>
      <point x="253" y="260" type="line"/>
      <point x="249" y="260" type="line"/>
      <point x="396" y="500" type="line"/>
    </contour>
  </outline>
</glyph>
<glyph name="uni0290" format="2">
  <advance width="622"/>
  <unicode hex="0290"/>
  <outline>
    <component base="z"/>
    <contour>
      <point x="428" y="-83" type="line" smooth="yes"/>
      <point x="428" y="-119"/>
      <point x="461" y="-147"/>
      <point x="507" y="-147" type="curve" smooth="yes"/>
      <point x="544" y="-147"/>
      <point x="578" y="-128"/>
      <point x="578" y="-88" type="curve"/>
      <point x="661" y="-88" type="line"/>
      <point x="661" y="-176"/>
      <point x="621" y="-200"/>
      <point x="522" y="-200" type="curve" smooth="yes"/>
      <point x="443" y="-200"/>
      <point x="390" y="-167.602"/>
      <point x="390" y="-100" type="curve" smooth="yes"/>
      <point x="390" y="70.0326" type="line"/>
      <point x="428" y="70.0326" type="line"/>
    </contour>
  </outline>
</glyph>
<glyph name="uni0291" format="2">
	<unicode hex="0291"/>
	<advance width="595"/>
	<outline>
		<contour>
			<point x="60" y="0" type="line"/>
			<point x="60" y="82.1327" type="line"/>
			<point x="326" y="431" type="line"/>
			<point x="80" y="431" type="line"/>
			<point x="80" y="500" type="line"/>
			<point x="428" y="500" type="line"/>
			<point x="428" y="417.938" type="line"/>
			<point x="160" y="69" type="line"/>
			<point x="218" y="69" type="line"/>
			<point x="218" y="0" type="line"/>
		</contour>
		<contour>
			<point x="462" y="127.399" type="curve" smooth="yes"/>
			<point x="462" y="149.816"/>
			<point x="445" y="168"/>
			<point x="419.119" y="168" type="curve" smooth="yes"/>
			<point x="367" y="168"/>
			<point x="324" y="94.2551"/>
			<point x="317" y="67.6875" type="curve"/>
			<point x="326" y="66.5625"/>
			<point x="336" y="66"/>
			<point x="347.74" y="66" type="curve" smooth="yes"/>
			<point x="415.867" y="66"/>
			<point x="462" y="90.471"/>
		</contour>
		<contour>
			<point x="130" y="0" type="line"/>
			<point x="130" y="69" type="line"/>
			<point x="254" y="69" type="line"/>
			<point x="282" y="174"/>
			<point x="356" y="221"/>
			<point x="435.38" y="221" type="curve" smooth="yes"/>
			<point x="493.641" y="221"/>
			<point x="542" y="195.143"/>
			<point x="542" y="136.684" type="curve" smooth="yes"/>
			<point x="542" y="39"/>
			<point x="399" y="-3"/>
			<point x="321.897" y="-3" type="curve" smooth="yes"/>
			<point x="310" y="-3"/>
			<point x="301" y="-2"/>
			<point x="294" y="0" type="curve"/>
			<point x="269" y="-130" type="line"/>
			<point x="218" y="-130" type="line"/>
			<point x="240" y="0" type="line"/>
		</contour>
	</outline>
</glyph>
<glyph name="uni0294" format="2">
	<unicode hex="0294"/>
	<advance width="489"/>
	<outline>
		<contour>
			<point x="152" y="0" type="line"/>
			<point x="152" y="412" type="line"/>
			<point x="274" y="422"/>
			<point x="333" y="472"/>
			<point x="333" y="556" type="curve" smooth="yes"/>
			<point x="333" y="619"/>
			<point x="269" y="655"/>
			<point x="171.402" y="655" type="curve" smooth="yes"/>
			<point x="136" y="655"/>
			<point x="100" y="650"/>
			<point x="64" y="640" type="curve"/>
			<point x="64" y="714" type="line"/>
			<point x="119" y="726"/>
			<point x="166" y="732"/>
			<point x="202.192" y="732" type="curve" smooth="yes"/>
			<point x="331" y="732"/>
			<point x="433" y="658"/>
			<point x="433" y="548.601" type="curve" smooth="yes"/>
			<point x="433" y="464"/>
			<point x="372" y="404"/>
			<point x="249" y="369" type="curve"/>
			<point x="249" y="0" type="line"/>
		</contour>
	</outline>
</glyph>
<glyph name="uni0298" format="2">
  <advance width="872"/>
  <unicode hex="0298"/>
  <outline>
    <contour>
      <point x="496.799" y="364" type="curve" smooth="yes"/>
      <point x="496.799" y="327.173"/>
      <point x="471.655" y="300"/>
      <point x="435.003" y="300" type="curve" smooth="yes"/>
      <point x="399.25" y="300"/>
      <point x="373.201" y="327.172"/>
      <point x="373.201" y="364" type="curve" smooth="yes"/>
      <point x="373.201" y="400.66"/>
      <point x="398.226" y="425"/>
      <point x="435" y="425" type="curve" smooth="yes"/>
      <point x="471.774" y="425"/>
      <point x="496.799" y="400.66"/>
    </contour>
    <contour>
      <point x="742" y="361" type="curve" smooth="yes"/>
      <point x="742" y="538.78"/>
      <point x="613.78" y="667"/>
      <point x="435" y="667" type="curve" smooth="yes"/>
      <point x="256.22" y="667"/>
      <point x="128" y="538.78"/>
      <point x="128" y="361" type="curve" smooth="yes"/>
      <point x="128" y="182.188"/>
      <point x="257.188" y="53"/>
      <point x="435" y="53" type="curve" smooth="yes"/>
      <point x="612.812" y="53"/>
      <point x="742" y="182.188"/>
    </contour>
    <contour>
      <point x="811" y="358.922" type="curve" smooth="yes"/>
      <point x="811" y="142.087"/>
      <point x="651.983" y="-16"/>
      <point x="434.003" y="-16" type="curve" smooth="yes"/>
      <point x="216.017" y="-16"/>
      <point x="59" y="141.017"/>
      <point x="59" y="358.922" type="curve" smooth="yes"/>
      <point x="59" y="577.985"/>
      <point x="216.085" y="736"/>
      <point x="434.003" y="736" type="curve" smooth="yes"/>
      <point x="652.049" y="736"/>
      <point x="811" y="577.049"/>
    </contour>
  </outline>
</glyph>
<glyph name="uni029B" format="2">
  <advance width="605"/>
  <unicode hex="029B"/>
  <outline>
    <component base="uni0262"/>
    <contour>
      <point x="396.666" y="366.459" type="line"/>
      <point x="396.666" y="466.459" type="line" smooth="yes"/>
      <point x="396.666" y="557.459"/>
      <point x="434.666" y="604.459"/>
      <point x="523.644" y="604.459" type="curve" smooth="yes"/>
      <point x="552.666" y="604.459"/>
      <point x="572.666" y="599.459"/>
      <point x="587.666" y="589.459" type="curve"/>
      <point x="587.666" y="528.459" type="line"/>
      <point x="572.666" y="537.459"/>
      <point x="556.666" y="541.459"/>
      <point x="533.884" y="541.459" type="curve" smooth="yes"/>
      <point x="501.666" y="541.459"/>
      <point x="486.666" y="533.459"/>
      <point x="486.666" y="474.459" type="curve" smooth="yes"/>
      <point x="486.666" y="366.459" type="line"/>
    </contour>
  </outline>
</glyph>
<glyph name="uni029D" format="2">
	<unicode hex="029D"/>
	<advance width="414"/>
	<outline>
		<contour>
			<point x="209" y="0" type="line"/>
			<point x="209" y="500" type="line"/>
			<point x="299" y="500" type="line"/>
			<point x="299" y="0" type="line"/>
		</contour>
		<contour>
			<point x="390" y="43" type="line"/>
			<point x="390" y="11" type="line"/>
			<point x="299" y="11" type="line"/>
			<point x="299" y="-71.2298" type="line" smooth="yes"/>
			<point x="299" y="-156.123"/>
			<point x="255.123" y="-200"/>
			<point x="167.69" y="-200" type="curve" smooth="yes"/>
			<point x="79.2992" y="-200"/>
			<point x="31" y="-155.565"/>
			<point x="31" y="-76.0857" type="curve" smooth="yes"/>
			<point x="31" y="-1.64201"/>
			<point x="73.3731" y="43"/>
			<point x="149" y="43" type="curve" smooth="yes"/>
			<point x="209" y="43" type="line"/>
			<point x="209" y="82.6338" type="line"/>
			<point x="299" y="82.6338" type="line"/>
			<point x="299" y="43" type="line"/>
		</contour>
		<contour>
			<point x="209" y="-75.3413" type="curve" smooth="yes"/>
			<point x="209" y="11" type="line"/>
			<point x="148" y="11" type="line" smooth="yes"/>
			<point x="113.462" y="11"/>
			<point x="92" y="-22.0901"/>
			<point x="92" y="-65.4572" type="curve" smooth="yes"/>
			<point x="92" y="-111.317"/>
			<point x="116" y="-131"/>
			<point x="158" y="-131" type="curve" smooth="yes"/>
			<point x="195.204" y="-131"/>
			<point x="209" y="-115.944"/>
		</contour>
		<contour>
			<point x="202" y="630" type="line"/>
			<point x="202" y="722" type="line"/>
			<point x="308" y="722" type="line"/>
			<point x="308" y="630" type="line"/>
		</contour>
	</outline>
</glyph>
<glyph name="uni029F" format="2">
	<unicode hex="029F"/>
	<advance width="392"/>
	<outline>
		<contour>
			<point x="372" y="0" type="line"/>
			<point x="57" y="0" type="line"/>
			<point x="57" y="500" type="line"/>
			<point x="147" y="500" type="line"/>
			<point x="147" y="65" type="line"/>
			<point x="372" y="65" type="line"/>
		</contour>
	</outline>
</glyph>
<glyph name="uni02A1" format="2">
  <advance width="489"/>
  <unicode hex="02A1"/>
  <outline>
    <component base="uni0294"/>
    <contour>
      <point x="370" y="278" type="line"/>
      <point x="31" y="278" type="line"/>
      <point x="31" y="222" type="line"/>
      <point x="370" y="222" type="line"/>
    </contour>
  </outline>
</glyph>
<glyph name="hfishhookturned" format="2">
	<unicode hex="02AE"/>
	<advance width="627"/>
	<outline>
		<contour>
			<point x="256" y="-12" type="curve" smooth="yes"/>
			<point x="137" y="-12"/>
			<point x="80" y="49"/>
			<point x="80" y="190" type="curve" smooth="yes"/>
			<point x="80" y="500" type="line"/>
			<point x="170" y="500" type="line"/>
			<point x="170" y="186" type="line" smooth="yes"/>
			<point x="170" y="113"/>
			<point x="208" y="55"/>
			<point x="275" y="55" type="curve" smooth="yes"/>
			<point x="345" y="55"/>
			<point x="423" y="104"/>
			<point x="423" y="199" type="curve" smooth="yes"/>
			<point x="423" y="500" type="line"/>
			<point x="513" y="500" type="line"/>
			<point x="513" y="-200" type="line"/>
			<point x="423" y="-200" type="line"/>
			<point x="423" y="63" type="line"/>
			<point x="393" y="21"/>
			<point x="335" y="-12"/>
		</contour>
		<contour>
			<point x="170" y="380" type="line"/>
			<point x="80" y="380" type="line"/>
			<point x="80" y="505.724" type="line" smooth="yes"/>
			<point x="80" y="591.108"/>
			<point x="60.3488" y="662"/>
			<point x="-28" y="662" type="curve" smooth="yes"/>
			<point x="-69" y="662"/>
			<point x="-102" y="652"/>
			<point x="-127" y="631" type="curve"/>
			<point x="-181" y="683" type="line"/>
			<point x="-149" y="716"/>
			<point x="-97" y="732"/>
			<point x="-25" y="732" type="curve" smooth="yes"/>
			<point x="88.3473" y="732"/>
			<point x="170" y="653.789"/>
			<point x="170" y="545" type="curve" smooth="yes"/>
		</contour>
	</outline>
</glyph>
<glyph name="uni02B0" format="2">
	<unicode hex="02B0"/>
	<advance width="595"/>
	<outline>
		<contour>
			<point x="363" y="514" type="curve"/>
			<point x="364" y="513" type="line"/>
			<point x="474" y="513"/>
			<point x="532" y="446"/>
			<point x="532" y="339" type="curve" smooth="yes"/>
			<point x="532" y="-1" type="line"/>
			<point x="397" y="-1" type="line"/>
			<point x="397" y="299" type="line" smooth="yes"/>
			<point x="397" y="388"/>
			<point x="367" y="432"/>
			<point x="307" y="432" type="curve" smooth="yes"/>
			<point x="245" y="432"/>
			<point x="201" y="352"/>
			<point x="201" y="288" type="curve" smooth="yes"/>
			<point x="201" y="-1" type="line"/>
			<point x="66" y="-1" type="line"/>
			<point x="66" y="721" type="line"/>
			<point x="201" y="721" type="line"/>
			<point x="201" y="442" type="line"/>
			<point x="223" y="477"/>
			<point x="231" y="489"/>
			<point x="276" y="503" type="curve" smooth="yes"/>
			<point x="299" y="510"/>
			<point x="328" y="514"/>
		</contour>
	</outline>
</glyph>
<glyph name="uni02B7" format="2">
	<unicode hex="02B7"/>
	<advance width="570"/>
	<outline>
		<contour>
			<point x="559" y="700" type="line"/>
			<point x="441" y="350" type="line"/>
			<point x="378" y="350" type="line"/>
			<point x="285" y="640" type="line"/>
			<point x="192" y="350" type="line"/>
			<point x="129" y="350" type="line"/>
			<point x="10" y="700" type="line"/>
			<point x="78" y="700" type="line"/>
			<point x="160" y="427" type="line"/>
			<point x="243" y="700" type="line"/>
			<point x="327" y="700" type="line"/>
			<point x="409" y="427" type="line"/>
			<point x="492" y="700" type="line"/>
		</contour>
	</outline>
</glyph>
<glyph name="uni02BC" format="2">
	<unicode hex="02BC"/>
	<advance width="146"/>
	<outline>
		<contour>
			<point x="126" y="722" type="line"/>
			<point x="103" y="434" type="line"/>
			<point x="43" y="434" type="line"/>
			<point x="20" y="722" type="line"/>
		</contour>
	</outline>
</glyph>
<glyph name="circumflex" format="2">
	<unicode hex="02C6"/>
	<advance width="289"/>
	<outline>
		<contour>
			<point x="290" y="600" type="line"/>
			<point x="230" y="600" type="line"/>
			<point x="145" y="710" type="line"/>
			<point x="60" y="600" type="line"/>
			<point x="0" y="600" type="line"/>
			<point x="90" y="770" type="line"/>
			<point x="200" y="770" type="line"/>
		</contour>
	</outline>
	<anchor name="_top" x="145" y="600"/>
</glyph>
<glyph name="uni02D1" format="2">
  <advance width="372"/>
  <unicode hex="02D1"/>
  <outline>
    <contour>
      <point x="261" y="500" type="line"/>
      <point x="212" y="329" type="line"/>
      <point x="160" y="329" type="line"/>
      <point x="110" y="500" type="line"/>
    </contour>
  </outline>
</glyph>
<glyph name="ring" format="2">
  <advance width="219"/>
  <unicode hex="02DA"/>
  <outline>
    <contour>
      <point x="110" y="820" type="curve" smooth="yes"/>
      <point x="171" y="820"/>
      <point x="220" y="771"/>
      <point x="220" y="710" type="curve" smooth="yes"/>
      <point x="220" y="650"/>
      <point x="170" y="600"/>
      <point x="110" y="600" type="curve" smooth="yes"/>
      <point x="49" y="600"/>
      <point x="0" y="649"/>
      <point x="0" y="710" type="curve" smooth="yes"/>
      <point x="0" y="771"/>
      <point x="49" y="820"/>
    </contour>
    <contour>
      <point x="110" y="640" type="curve" smooth="yes"/>
      <point x="149" y="640"/>
      <point x="180" y="671"/>
      <point x="180" y="710" type="curve" smooth="yes"/>
      <point x="180" y="749"/>
      <point x="149" y="780"/>
      <point x="110" y="780" type="curve" smooth="yes"/>
      <point x="71" y="780"/>
      <point x="39" y="749"/>
      <point x="39" y="710" type="curve" smooth="yes"/>
      <point x="39" y="671"/>
      <point x="71" y="640"/>
    </contour>
  </outline>
</glyph>
<glyph name="ogonek" format="2">
	<unicode hex="02DB"/>
	<advance width="199"/>
	<outline>
		<contour>
			<point x="90" y="-220" type="curve" smooth="yes"/>
			<point x="33" y="-220"/>
			<point x="0" y="-190"/>
			<point x="0" y="-143" type="curve" smooth="yes"/>
			<point x="0" y="-92"/>
			<point x="39" y="-41"/>
			<point x="61" y="-19" type="curve" smooth="yes"/>
			<point x="64.4059" y="-15.5941"/>
			<point x="77.9222" y="-2.07777"/>
			<point x="80" y="0" type="curve"/>
			<point x="120" y="0" type="line"/>
			<point x="102" y="-18"/>
			<point x="70" y="-66"/>
			<point x="70" y="-109" type="curve" smooth="yes"/>
			<point x="70" y="-139"/>
			<point x="86" y="-150"/>
			<point x="119" y="-150" type="curve"/>
			<point x="127.01" y="-149.199"/>
			<point x="149.868" y="-146.913"/>
			<point x="159" y="-146" type="curve"/>
			<point x="159" y="-216" type="line"/>
			<point x="138" y="-219"/>
			<point x="100" y="-220"/>
		</contour>
	</outline>
</glyph>
<glyph name="tilde" format="2">
  <advance width="289"/>
  <unicode hex="02DC"/>
  <outline>
    <contour>
      <point x="-1" y="618" type="line"/>
      <point x="5" y="680"/>
      <point x="45" y="716"/>
      <point x="84" y="716" type="curve" smooth="yes"/>
      <point x="105" y="716"/>
      <point x="130" y="707"/>
      <point x="153" y="696" type="curve" smooth="yes"/>
      <point x="171" y="687"/>
      <point x="189" y="680"/>
      <point x="201" y="680" type="curve" smooth="yes"/>
      <point x="218" y="680"/>
      <point x="231" y="694"/>
      <point x="235" y="721" type="curve"/>
      <point x="290" y="721" type="line"/>
      <point x="285" y="666"/>
      <point x="252" y="623"/>
      <point x="207" y="623" type="curve" smooth="yes"/>
      <point x="184" y="623"/>
      <point x="158" y="633"/>
      <point x="137.089" y="643.455" type="curve" smooth="yes"/>
      <point x="118" y="653"/>
      <point x="101" y="659"/>
      <point x="89" y="659" type="curve" smooth="yes"/>
      <point x="72" y="659"/>
      <point x="57" y="645"/>
      <point x="54" y="618" type="curve"/>
    </contour>
  </outline>
</glyph>
<glyph name="hungarumlaut" format="2">
	<unicode hex="02DD"/>
	<advance width="319"/>
	<outline>
		<contour>
			<point x="168" y="771" type="line"/>
			<point x="58" y="600" type="line"/>
			<point x="8" y="600" type="line"/>
			<point x="78" y="771" type="line"/>
		</contour>
		<contour>
			<point x="308" y="771" type="line"/>
			<point x="198" y="600" type="line"/>
			<point x="148" y="600" type="line"/>
			<point x="218" y="771" type="line"/>
		</contour>
	</outline>
</glyph>
<glyph name="uni02DE" format="2">
  <advance width="180"/>
  <unicode hex="02DE"/>
  <outline>
    <contour>
      <point x="174" y="319" type="line"/>
      <point x="174" y="257"/>
      <point x="139.273" y="213"/>
      <point x="89.4222" y="213" type="curve" smooth="yes"/>
      <point x="17.6163" y="213"/>
      <point x="-4.98314" y="245.064"/>
      <point x="-4.98314" y="313.271" type="curve" smooth="yes"/>
      <point x="-4.98314" y="361" type="line"/>
      <point x="-93" y="317" type="line"/>
      <point x="-110" y="377" type="line"/>
      <point x="40" y="452" type="line"/>
      <point x="40" y="303" type="line" smooth="yes"/>
      <point x="40" y="268.425"/>
      <point x="52.7875" y="253"/>
      <point x="80.5714" y="253" type="curve" smooth="yes"/>
      <point x="115.228" y="253"/>
      <point x="129" y="277"/>
      <point x="129" y="319" type="curve"/>
    </contour>
  </outline>
</glyph>
<glyph name="uni02E5" format="2">
	<unicode hex="02E5"/>
	<advance width="357"/>
	<outline>
		<contour>
			<point x="287" y="0" type="line"/>
			<point x="223" y="0" type="line"/>
			<point x="223" y="658" type="line"/>
			<point x="21" y="658" type="line"/>
			<point x="21" y="722" type="line"/>
			<point x="287" y="722" type="line"/>
		</contour>
	</outline>
</glyph>
<glyph name="uni02E7" format="2">
  <advance width="357"/>
  <unicode hex="02E7"/>
  <outline>
    <contour>
      <point x="287" y="0" type="line"/>
      <point x="223" y="0" type="line"/>
      <point x="223" y="329" type="line"/>
      <point x="20" y="329" type="line"/>
      <point x="20" y="393" type="line"/>
      <point x="223" y="393" type="line"/>
      <point x="223" y="722" type="line"/>
      <point x="287" y="722" type="line"/>
    </contour>
  </outline>
</glyph>
<glyph name="uni02E8" format="2">
  <advance width="357"/>
  <unicode hex="02E8"/>
  <outline>
    <contour>
      <point x="287" y="0" type="line"/>
      <point x="223" y="0" type="line"/>
      <point x="223" y="161" type="line"/>
      <point x="20" y="161" type="line"/>
      <point x="20" y="225" type="line"/>
      <point x="223" y="225" type="line"/>
      <point x="223" y="722" type="line"/>
      <point x="287" y="722" type="line"/>
    </contour>
  </outline>
</glyph>
<glyph name="uni02E9" format="2">
	<unicode hex="02E9"/>
	<advance width="357"/>
	<outline>
		<contour>
			<point x="287" y="0" type="line"/>
			<point x="21" y="0" type="line"/>
			<point x="21" y="64" type="line"/>
			<point x="223" y="64" type="line"/>
			<point x="223" y="722" type="line"/>
			<point x="287" y="722" type="line"/>
		</contour>
	</outline>
</glyph>
<glyph name="gravecomb" format="2">
	<unicode hex="0300"/>
	<advance width="1"/>
	<outline>
		<contour>
			<point x="-146" y="600" type="line"/>
			<point x="-207" y="600" type="line"/>
			<point x="-347" y="771" type="line"/>
			<point x="-246" y="771" type="line"/>
		</contour>
	</outline>
	<anchor name="_top" x="-180" y="600"/>
	<anchor name="_top.mkmk" x="-180" y="600"/>
</glyph>
<glyph name="acutecomb" format="2">
	<unicode hex="0301"/>
	<advance width="1"/>
	<outline>
		<contour>
			<point x="-156" y="771" type="line"/>
			<point x="-296" y="600" type="line"/>
			<point x="-357" y="600" type="line"/>
			<point x="-257" y="771" type="line"/>
		</contour>
	</outline>
	<anchor name="_top" x="-330" y="600"/>
	<anchor name="_top.mkmk" x="-330" y="600"/>
</glyph>
<glyph name="uni0302" format="2">
	<unicode hex="0302"/>
	<advance width="1"/>
	<outline>
		<contour>
			<point x="-151" y="600" type="line"/>
			<point x="-211" y="600" type="line"/>
			<point x="-296" y="710" type="line"/>
			<point x="-381" y="600" type="line"/>
			<point x="-441" y="600" type="line"/>
			<point x="-351" y="770" type="line"/>
			<point x="-241" y="770" type="line"/>
		</contour>
	</outline>
	<anchor name="_top" x="-300" y="600"/>
	<anchor name="top.mkmk" x="-296" y="790"/>
</glyph>
<glyph name="uni0305" format="2">
	<unicode hex="0305"/>
	<outline>
		<contour>
			<point x="0" y="600" type="line"/>
			<point x="-560" y="600" type="line"/>
			<point x="-560" y="669" type="line"/>
			<point x="0" y="669" type="line"/>
		</contour>
	</outline>
	<anchor name="_top" x="-280" y="600"/>
</glyph>
<glyph name="uni0306" format="2">
	<unicode hex="0306"/>
	<advance width="1"/>
	<outline>
		<contour>
			<point x="-439" y="717" type="curve"/>
			<point x="-387" y="717" type="line"/>
			<point x="-381" y="686"/>
			<point x="-333" y="664"/>
			<point x="-297" y="664" type="curve" smooth="yes"/>
			<point x="-261" y="664"/>
			<point x="-213" y="686"/>
			<point x="-207" y="717" type="curve"/>
			<point x="-157" y="717" type="line"/>
			<point x="-168" y="651"/>
			<point x="-229" y="600"/>
			<point x="-298" y="600" type="curve" smooth="yes"/>
			<point x="-369" y="600"/>
			<point x="-431" y="651"/>
		</contour>
	</outline>
	<anchor name="_top" x="-300" y="600"/>
</glyph>
<glyph name="uni0307" format="2">
	<unicode hex="0307"/>
	<advance width="1"/>
	<outline>
		<contour>
			<point x="-337" y="600" type="line"/>
			<point x="-337" y="700" type="line"/>
			<point x="-247" y="700" type="line"/>
			<point x="-247" y="600" type="line"/>
		</contour>
	</outline>
	<anchor name="_top" x="-290" y="600"/>
</glyph>
<glyph name="uni0308" format="2">
	<unicode hex="0308"/>
	<advance width="1"/>
	<outline>
		<contour>
			<point x="-347" y="600" type="line"/>
			<point x="-437" y="600" type="line"/>
			<point x="-437" y="700" type="line"/>
			<point x="-347" y="700" type="line"/>
		</contour>
		<contour>
			<point x="-147" y="600" type="line"/>
			<point x="-237" y="600" type="line"/>
			<point x="-237" y="700" type="line"/>
			<point x="-147" y="700" type="line"/>
		</contour>
	</outline>
	<anchor name="_top" x="-295" y="600"/>
</glyph>
<glyph name="hookabovecomb" format="2">
  <unicode hex="0309"/>
  <outline>
    <contour>
      <point x="-156" y="697" type="curve" smooth="yes"/>
      <point x="-156" y="651"/>
      <point x="-188" y="618"/>
      <point x="-252" y="600" type="curve"/>
      <point x="-252" y="536" type="line"/>
      <point x="-312" y="536" type="line"/>
      <point x="-312" y="622" type="line"/>
      <point x="-248" y="627"/>
      <point x="-216" y="654"/>
      <point x="-216" y="698" type="curve" smooth="yes"/>
      <point x="-216" y="731"/>
      <point x="-238" y="751"/>
      <point x="-275" y="751" type="curve" smooth="yes"/>
      <point x="-294" y="751"/>
      <point x="-315" y="740"/>
      <point x="-318" y="714" type="curve"/>
      <point x="-378" y="714" type="line"/>
      <point x="-370" y="768"/>
      <point x="-325" y="791"/>
      <point x="-274" y="791" type="curve" smooth="yes"/>
      <point x="-204" y="791"/>
      <point x="-156" y="753"/>
    </contour>
  </outline>
</glyph>
<glyph name="uni030A" format="2">
	<unicode hex="030A"/>
	<advance width="1"/>
	<outline>
		<contour>
			<point x="-297" y="820" type="curve" smooth="yes"/>
			<point x="-237" y="820"/>
			<point x="-187" y="770"/>
			<point x="-187" y="710" type="curve" smooth="yes"/>
			<point x="-187" y="650"/>
			<point x="-237" y="600"/>
			<point x="-297" y="600" type="curve" smooth="yes"/>
			<point x="-357" y="600"/>
			<point x="-407" y="650"/>
			<point x="-407" y="710" type="curve" smooth="yes"/>
			<point x="-407" y="770"/>
			<point x="-357" y="820"/>
		</contour>
		<contour>
			<point x="-367" y="710" type="curve" smooth="yes"/>
			<point x="-367" y="670.009"/>
			<point x="-336.991" y="640"/>
			<point x="-297" y="640" type="curve" smooth="yes"/>
			<point x="-256.801" y="640"/>
			<point x="-227" y="669.801"/>
			<point x="-227" y="710" type="curve" smooth="yes"/>
			<point x="-227" y="750.05"/>
			<point x="-256.95" y="780"/>
			<point x="-297" y="780" type="curve" smooth="yes"/>
			<point x="-336.679" y="780"/>
			<point x="-367" y="749.679"/>
		</contour>
	</outline>
	<anchor name="_top" x="-290" y="600"/>
</glyph>
<glyph name="uni030C" format="2">
	<unicode hex="030C"/>
	<advance width="1"/>
	<outline>
		<contour>
			<point x="-351" y="600" type="line"/>
			<point x="-441" y="770" type="line"/>
			<point x="-381" y="770" type="line"/>
			<point x="-296" y="660" type="line"/>
			<point x="-211" y="770" type="line"/>
			<point x="-151" y="770" type="line"/>
			<point x="-241" y="600" type="line"/>
		</contour>
	</outline>
	<anchor name="_top" x="-296" y="600"/>
	<anchor name="_top.mkmk" x="-290" y="600"/>
	<guideline x="-296" y="0" angle="90"/>
</glyph>
<glyph name="uni0311" format="2">
	<unicode hex="0311"/>
	<outline>
		<contour>
			<point x="-155" y="600" type="curve"/>
			<point x="-205" y="600" type="line"/>
			<point x="-211" y="631"/>
			<point x="-259" y="653"/>
			<point x="-295" y="653" type="curve" smooth="yes"/>
			<point x="-331" y="653"/>
			<point x="-379" y="631"/>
			<point x="-385" y="600" type="curve"/>
			<point x="-437" y="600" type="line"/>
			<point x="-429" y="666"/>
			<point x="-367" y="717"/>
			<point x="-296" y="717" type="curve" smooth="yes"/>
			<point x="-227" y="717"/>
			<point x="-166" y="665"/>
		</contour>
	</outline>
	<anchor name="_top" x="-290" y="600"/>
</glyph>
<glyph name="uni0325" format="2">
	<unicode hex="0325"/>
	<advance width="1"/>
	<outline>
		<contour>
			<point x="-297" y="-99" type="curve" smooth="yes"/>
			<point x="-237" y="-99"/>
			<point x="-187" y="-149"/>
			<point x="-187" y="-209" type="curve" smooth="yes"/>
			<point x="-187" y="-269"/>
			<point x="-237" y="-319"/>
			<point x="-297" y="-319" type="curve" smooth="yes"/>
			<point x="-357" y="-319"/>
			<point x="-407" y="-269"/>
			<point x="-407" y="-209" type="curve" smooth="yes"/>
			<point x="-407" y="-149"/>
			<point x="-357" y="-99"/>
		</contour>
		<contour>
			<point x="-367" y="-209" type="curve" smooth="yes"/>
			<point x="-367" y="-248.991"/>
			<point x="-336.991" y="-279"/>
			<point x="-297" y="-279" type="curve" smooth="yes"/>
			<point x="-256.801" y="-279"/>
			<point x="-227" y="-249.199"/>
			<point x="-227" y="-209" type="curve" smooth="yes"/>
			<point x="-227" y="-168.95"/>
			<point x="-256.95" y="-139"/>
			<point x="-297" y="-139" type="curve" smooth="yes"/>
			<point x="-336.679" y="-139"/>
			<point x="-367" y="-169.321"/>
		</contour>
	</outline>
</glyph>
<glyph name="uni033C" format="2">
	<unicode hex="033C"/>
	<advance width="1"/>
	<outline>
		<contour>
			<point x="-141" y="-240" type="curve"/>
			<point x="-158" y="-239" type="line"/>
			<point x="-169" y="-209"/>
			<point x="-206" y="-162"/>
			<point x="-224" y="-162" type="curve" smooth="yes"/>
			<point x="-255" y="-162"/>
			<point x="-267" y="-176"/>
			<point x="-291" y="-229" type="curve"/>
			<point x="-305" y="-229" type="line"/>
			<point x="-330" y="-176"/>
			<point x="-341" y="-162"/>
			<point x="-372" y="-162" type="curve" smooth="yes"/>
			<point x="-394" y="-162"/>
			<point x="-416" y="-188"/>
			<point x="-438" y="-239" type="curve"/>
			<point x="-453" y="-239" type="line"/>
			<point x="-453" y="-122"/>
			<point x="-434" y="-100"/>
			<point x="-372" y="-100" type="curve" smooth="yes"/>
			<point x="-341" y="-100"/>
			<point x="-316" y="-118"/>
			<point x="-297" y="-155" type="curve"/>
			<point x="-278" y="-118"/>
			<point x="-253" y="-100"/>
			<point x="-222" y="-100" type="curve" smooth="yes"/>
			<point x="-160" y="-100"/>
			<point x="-141" y="-123"/>
		</contour>
	</outline>
</glyph>
<glyph name="uni035C" format="2">
	<unicode hex="035C"/>
	<advance width="1"/>
	<outline>
		<contour>
			<point x="430" y="-168" type="line"/>
			<point x="397" y="-281"/>
			<point x="254" y="-338"/>
			<point x="1" y="-338" type="curve" smooth="yes"/>
			<point x="-254" y="-338"/>
			<point x="-398" y="-281"/>
			<point x="-431" y="-168" type="curve"/>
			<point x="-369" y="-168" type="line"/>
			<point x="-345" y="-227"/>
			<point x="-242" y="-246"/>
			<point x="0" y="-246" type="curve" smooth="yes"/>
			<point x="242" y="-246"/>
			<point x="345" y="-227"/>
			<point x="369" y="-168" type="curve"/>
		</contour>
	</outline>
</glyph>
<glyph name="tonos" format="2">
	<unicode hex="0384"/>
	<advance width="161"/>
	<outline>
		<contour>
			<point x="140" y="722" type="line"/>
			<point x="50" y="512" type="line"/>
			<point x="-20" y="512" type="line"/>
			<point x="40" y="722" type="line"/>
		</contour>
	</outline>
	<anchor name="_tonos.top" x="16" y="512"/>
	<anchor name="_top" x="17" y="512"/>
</glyph>
<glyph name="Gamma" format="2">
  <advance width="500"/>
  <unicode hex="0393"/>
  <outline>
    <contour>
      <point x="480" y="635" type="line"/>
      <point x="161" y="635" type="line"/>
      <point x="161" y="0" type="line"/>
      <point x="60" y="0" type="line"/>
      <point x="60" y="722" type="line"/>
      <point x="480" y="722" type="line"/>
    </contour>
  </outline>
</glyph>
<glyph name="Zeta" format="2">
  <advance width="626"/>
  <unicode hex="0396"/>
  <outline>
    <contour>
      <point x="576" y="0" type="line"/>
      <point x="50" y="0" type="line"/>
      <point x="50" y="110" type="line"/>
      <point x="456" y="635" type="line"/>
      <point x="70" y="635" type="line"/>
      <point x="70" y="722" type="line"/>
      <point x="566" y="722" type="line"/>
      <point x="566" y="612" type="line"/>
      <point x="160" y="87" type="line"/>
      <point x="576" y="87" type="line"/>
    </contour>
  </outline>
</glyph>
<glyph name="Theta" format="2">
	<unicode hex="0398"/>
	<advance width="754"/>
	<outline>
		<component base="Omicron"/>
		<contour>
			<point x="558" y="332" type="line"/>
			<point x="198" y="332" type="line"/>
			<point x="198" y="414" type="line"/>
			<point x="558" y="414" type="line"/>
		</contour>
	</outline>
</glyph>
<glyph name="Lambda" format="2">
	<unicode hex="039B"/>
	<advance width="654"/>
	<outline>
		<contour>
			<point x="15" y="0" type="line"/>
			<point x="272" y="722" type="line"/>
			<point x="382" y="722" type="line"/>
			<point x="639" y="0" type="line"/>
			<point x="526" y="0" type="line"/>
			<point x="327" y="592" type="line"/>
			<point x="128" y="0" type="line"/>
		</contour>
	</outline>
</glyph>
<glyph name="Xi" format="2">
	<unicode hex="039E"/>
	<advance width="669"/>
	<outline>
		<contour>
			<point x="609" y="621" type="line"/>
			<point x="61" y="621" type="line"/>
			<point x="61" y="722" type="line"/>
			<point x="609" y="722" type="line"/>
		</contour>
		<contour>
			<point x="508" y="320" type="line"/>
			<point x="161" y="320" type="line"/>
			<point x="161" y="421" type="line"/>
			<point x="508" y="421" type="line"/>
		</contour>
		<contour>
			<point x="609" y="0" type="line"/>
			<point x="61" y="0" type="line"/>
			<point x="61" y="101" type="line"/>
			<point x="609" y="101" type="line"/>
		</contour>
	</outline>
</glyph>
<glyph name="Sigma" format="2">
	<unicode hex="03A3"/>
	<advance width="626"/>
	<outline>
		<contour>
			<point x="50" y="0" type="line"/>
			<point x="50" y="87" type="line"/>
			<point x="265" y="375" type="line"/>
			<point x="60" y="612" type="line"/>
			<point x="60" y="722" type="line"/>
			<point x="556" y="722" type="line"/>
			<point x="556" y="635" type="line"/>
			<point x="170" y="635" type="line"/>
			<point x="385" y="375" type="line"/>
			<point x="174" y="86" type="line"/>
			<point x="576" y="86" type="line"/>
			<point x="576" y="0" type="line"/>
		</contour>
	</outline>
</glyph>
<glyph name="Psi" format="2">
	<unicode hex="03A8"/>
	<advance width="697"/>
	<outline>
		<contour>
			<point x="401" y="0" type="line"/>
			<point x="300" y="0" type="line"/>
			<point x="300" y="297" type="line"/>
			<point x="121" y="313"/>
			<point x="60" y="423"/>
			<point x="60" y="631" type="curve" smooth="yes"/>
			<point x="60" y="722" type="line"/>
			<point x="161" y="722" type="line"/>
			<point x="161" y="631" type="line" smooth="yes"/>
			<point x="161" y="495"/>
			<point x="191" y="406"/>
			<point x="300" y="387" type="curve"/>
			<point x="300" y="722" type="line"/>
			<point x="401" y="722" type="line"/>
			<point x="401" y="387" type="line"/>
			<point x="500" y="406"/>
			<point x="536" y="491"/>
			<point x="536" y="631" type="curve" smooth="yes"/>
			<point x="536" y="722" type="line"/>
			<point x="637" y="722" type="line"/>
			<point x="637" y="631" type="line" smooth="yes"/>
			<point x="637" y="424"/>
			<point x="577" y="314"/>
			<point x="401" y="297" type="curve"/>
		</contour>
	</outline>
</glyph>
<glyph name="beta" format="2">
	<unicode hex="03B2"/>
	<advance width="608"/>
	<outline>
		<contour>
			<point x="301.503" y="660" type="curve" smooth="yes"/>
			<point x="221.456" y="660"/>
			<point x="174" y="594.47"/>
			<point x="174" y="508" type="curve" smooth="yes"/>
			<point x="174" y="189.485" type="line" smooth="yes"/>
			<point x="174" y="113.004"/>
			<point x="236.687" y="56"/>
			<point x="320.278" y="56" type="curve" smooth="yes"/>
			<point x="398.428" y="56"/>
			<point x="456" y="115.321"/>
			<point x="456" y="195.5" type="curve" smooth="yes"/>
			<point x="456" y="271.266"/>
			<point x="405.815" y="339"/>
			<point x="342.94" y="339" type="curve" smooth="yes"/>
			<point x="250.072" y="339" type="line"/>
			<point x="250.072" y="413" type="line"/>
			<point x="329.108" y="413" type="line" smooth="yes"/>
			<point x="383.339" y="413"/>
			<point x="420" y="471.033"/>
			<point x="420" y="548" type="curve" smooth="yes"/>
			<point x="420" y="608.304"/>
			<point x="368.25" y="660"/>
		</contour>
		<contour>
			<point x="293.884" y="734" type="curve" smooth="yes"/>
			<point x="418.339" y="734"/>
			<point x="510" y="648.316"/>
			<point x="510" y="544.766" type="curve" smooth="yes"/>
			<point x="510" y="476.033"/>
			<point x="469.616" y="412.373"/>
			<point x="397.277" y="386.644" type="curve"/>
			<point x="496.389" y="360.934"/>
			<point x="548" y="288.841"/>
			<point x="548" y="193.868" type="curve" smooth="yes"/>
			<point x="548" y="72.6347"/>
			<point x="463.902" y="-12"/>
			<point x="329.108" y="-12" type="curve" smooth="yes"/>
			<point x="275.497" y="-12"/>
			<point x="220.245" y="11.7713"/>
			<point x="174" y="61.9627" type="curve"/>
			<point x="174" y="-193" type="line"/>
			<point x="84" y="-193" type="line"/>
			<point x="84" y="542" type="line" smooth="yes"/>
			<point x="84" y="653.884"/>
			<point x="170.742" y="734"/>
		</contour>
	</outline>
</glyph>
<glyph name="gamma" format="2">
	<unicode hex="03B3"/>
	<advance width="551"/>
	<outline>
		<contour>
			<point x="142" y="467" type="curve" smooth="yes"/>
			<point x="288.484" y="126" type="line"/>
			<point x="280.484" y="126" type="line"/>
			<point x="435" y="503" type="line"/>
			<point x="526" y="503" type="line"/>
			<point x="328" y="27" type="line"/>
			<point x="328" y="-200" type="line"/>
			<point x="238" y="-200" type="line"/>
			<point x="238" y="33" type="line"/>
			<point x="73" y="409" type="line" smooth="yes"/>
			<point x="64.1504" y="429.166"/>
			<point x="52.3468" y="436.65"/>
			<point x="34.3256" y="437.872" type="curve" smooth="yes"/>
			<point x="25.9762" y="438.439"/>
			<point x="11.2976" y="438"/>
			<point x="5" y="437" type="curve"/>
			<point x="5" y="511" type="line"/>
			<point x="22.4787" y="513.496"/>
			<point x="31.2015" y="514"/>
			<point x="40.5793" y="514" type="curve" smooth="yes"/>
			<point x="84.7993" y="514"/>
			<point x="126.622" y="502.799"/>
		</contour>
	</outline>
</glyph>
<glyph name="eta" format="2">
  <advance width="608"/>
  <unicode hex="03B7"/>
  <anchor x="280" y="600" name="tonos.top"/>
  <outline>
    <contour>
      <point x="341" y="512" type="curve" smooth="yes"/>
      <point x="429.336" y="512"/>
      <point x="518" y="459.871"/>
      <point x="518" y="364" type="curve" smooth="yes"/>
      <point x="518" y="-200" type="line"/>
      <point x="428" y="-200" type="line"/>
      <point x="428" y="326" type="line" smooth="yes"/>
      <point x="428" y="389.876"/>
      <point x="402.034" y="435"/>
      <point x="327" y="435" type="curve" smooth="yes"/>
      <point x="248" y="435"/>
      <point x="181" y="381.397"/>
      <point x="181" y="300" type="curve" smooth="yes"/>
      <point x="181" y="0" type="line"/>
      <point x="91" y="0" type="line"/>
      <point x="91" y="410" type="line" smooth="yes"/>
      <point x="91" y="425.297"/>
      <point x="70" y="439"/>
      <point x="52" y="439" type="curve" smooth="yes"/>
      <point x="44.9235" y="439"/>
      <point x="35.0541" y="437.517"/>
      <point x="32" y="437" type="curve"/>
      <point x="32" y="504" type="line"/>
      <point x="52.67" y="510.12"/>
      <point x="64.3297" y="512"/>
      <point x="85" y="512" type="curve" smooth="yes"/>
      <point x="143" y="512"/>
      <point x="171" y="484"/>
      <point x="174" y="428" type="curve"/>
      <point x="215" y="489"/>
      <point x="279" y="512"/>
    </contour>
  </outline>
</glyph>
<glyph name="theta" format="2">
  <advance width="528"/>
  <unicode hex="03B8"/>
  <outline>
    <contour>
      <point x="469.658" y="300.327" type="curve" smooth="yes"/>
      <point x="469.658" y="435.76" type="line" smooth="yes"/>
      <point x="469.658" y="654.012"/>
      <point x="404.835" y="734"/>
      <point x="260.245" y="734" type="curve" smooth="yes"/>
      <point x="121.307" y="734"/>
      <point x="58.2186" y="660.296"/>
      <point x="58.2186" y="436.064" type="curve" smooth="yes"/>
      <point x="58.2186" y="300.327" type="line" smooth="yes"/>
      <point x="58.2186" y="71.8912"/>
      <point x="114" y="-12"/>
      <point x="264" y="-12" type="curve" smooth="yes"/>
      <point x="414" y="-12"/>
      <point x="469.658" y="71.8912"/>
    </contour>
    <contour>
      <point x="264" y="665" type="curve" smooth="yes"/>
      <point x="354.485" y="665"/>
      <point x="379.967" y="606.313"/>
      <point x="379.967" y="436.495" type="curve" smooth="yes"/>
      <point x="379.967" y="300.251" type="line" smooth="yes"/>
      <point x="379.967" y="131.547"/>
      <point x="353.907" y="57"/>
      <point x="264" y="57" type="curve" smooth="yes"/>
      <point x="174.164" y="57"/>
      <point x="148.027" y="131.262"/>
      <point x="148.027" y="300.251" type="curve" smooth="yes"/>
      <point x="148.027" y="436.329" type="line" smooth="yes"/>
      <point x="148.027" y="606.155"/>
      <point x="174.473" y="665"/>
    </contour>
    <contour>
      <point x="414" y="403" type="line"/>
      <point x="114" y="403" type="line"/>
      <point x="114" y="348" type="line"/>
      <point x="414" y="348" type="line"/>
    </contour>
  </outline>
</glyph>
<glyph name="iota" format="2">
	<unicode hex="03B9"/>
	<advance width="276"/>
	<outline>
		<contour>
			<point x="85" y="59" type="curve"/>
			<point x="85" y="501" type="line"/>
			<point x="175" y="501" type="line"/>
			<point x="175" y="98" type="line" smooth="yes"/>
			<point x="175" y="70"/>
			<point x="204.25" y="61"/>
			<point x="222.775" y="61" type="curve" smooth="yes"/>
			<point x="232.525" y="61"/>
			<point x="245.2" y="64"/>
			<point x="253" y="66" type="curve"/>
			<point x="253" y="-3" type="line"/>
			<point x="157.614" y="-3" type="line" smooth="yes"/>
			<point x="119.773" y="-3"/>
			<point x="97.2727" y="24"/>
		</contour>
	</outline>
	<anchor name="tonos.top" x="130" y="600"/>
</glyph>
<glyph name="kappa" format="2">
	<unicode hex="03BA"/>
	<advance width="546"/>
	<outline>
		<contour>
			<point x="170" y="0" type="line"/>
			<point x="170" y="500" type="line"/>
			<point x="80" y="500" type="line"/>
			<point x="80" y="0" type="line"/>
		</contour>
		<contour>
			<point x="235.602" y="271.429" type="line"/>
			<point x="419" y="0" type="line"/>
			<point x="526" y="0" type="line"/>
			<point x="301.572" y="330.408" type="line"/>
		</contour>
		<contour>
			<point x="510" y="500" type="line"/>
			<point x="390" y="500" type="line"/>
			<point x="158.926" y="288.882" type="line"/>
			<point x="158.806" y="183.016" type="line"/>
		</contour>
	</outline>
</glyph>
<glyph name="pi" format="2">
	<unicode hex="03C0"/>
	<advance width="608"/>
	<outline>
		<contour>
			<point x="21" y="429" type="line"/>
			<point x="21" y="501" type="line"/>
			<point x="583" y="501" type="line"/>
			<point x="583" y="429" type="line"/>
			<point x="510" y="429" type="line"/>
			<point x="510" y="99" type="line" smooth="yes"/>
			<point x="510" y="76"/>
			<point x="531" y="64"/>
			<point x="549" y="64" type="curve" smooth="yes"/>
			<point x="558" y="64" type="line" smooth="yes"/>
			<point x="566" y="64"/>
			<point x="574" y="65"/>
			<point x="582" y="66" type="curve"/>
			<point x="582" y="-1" type="line"/>
			<point x="505" y="-8" type="line"/>
			<point x="445" y="-8"/>
			<point x="427" y="35"/>
			<point x="420" y="77" type="curve"/>
			<point x="420" y="429" type="line"/>
			<point x="181" y="429" type="line"/>
			<point x="181" y="0" type="line"/>
			<point x="91" y="0" type="line"/>
			<point x="91" y="429" type="line"/>
		</contour>
	</outline>
</glyph>
<glyph name="sigma1" format="2">
	<unicode hex="03C2"/>
	<advance width="580"/>
	<outline>
		<contour>
			<point x="303.933" y="512" type="curve" smooth="yes"/>
			<point x="419.204" y="512"/>
			<point x="514.745" y="457.266"/>
			<point x="520" y="318" type="curve"/>
			<point x="434" y="318" type="line"/>
			<point x="427" y="432"/>
			<point x="345.709" y="441.198"/>
			<point x="290.753" y="441" type="curve" smooth="yes"/>
			<point x="195.564" y="440.657"/>
			<point x="151" y="358"/>
			<point x="151" y="274.873" type="curve" smooth="yes"/>
			<point x="151" y="182"/>
			<point x="206.627" y="124.418"/>
			<point x="265" y="108" type="curve" smooth="yes"/>
			<point x="443.129" y="57.9013" type="line" smooth="yes"/>
			<point x="482.925" y="46.7087"/>
			<point x="501.252" y="12.486"/>
			<point x="500.944" y="-33.9126" type="curve" smooth="yes"/>
			<point x="500.648" y="-78.5771"/>
			<point x="483" y="-154"/>
			<point x="459" y="-200" type="curve"/>
			<point x="379" y="-200" type="line"/>
			<point x="399.475" y="-155.886"/>
			<point x="421" y="-74.9907"/>
			<point x="421" y="-49.5727" type="curve" smooth="yes"/>
			<point x="421" y="-25.7306"/>
			<point x="409.157" y="-11.1266"/>
			<point x="394" y="-7" type="curve" smooth="yes"/>
			<point x="203" y="45" type="line" smooth="yes"/>
			<point x="91.5365" y="75.3461"/>
			<point x="60" y="179"/>
			<point x="60" y="266.71" type="curve" smooth="yes"/>
			<point x="60" y="415.785"/>
			<point x="151.103" y="512"/>
		</contour>
	</outline>
</glyph>
<glyph name="sigma" format="2">
	<unicode hex="03C3"/>
	<advance width="608"/>
	<outline>
		<contour>
			<point x="302" y="512" type="curve" smooth="yes"/>
			<point x="153.609" y="512"/>
			<point x="47" y="398.131"/>
			<point x="47" y="249.511" type="curve" smooth="yes"/>
			<point x="47" y="101.779"/>
			<point x="154.355" y="-17"/>
			<point x="301.744" y="-17" type="curve" smooth="yes"/>
			<point x="449.606" y="-17"/>
			<point x="541.979" y="102.455"/>
			<point x="542" y="249.545" type="curve" smooth="yes"/>
			<point x="542.021" y="397.828"/>
			<point x="447.772" y="512"/>
		</contour>
		<contour>
			<point x="302" y="439" type="curve" smooth="yes"/>
			<point x="408.355" y="439"/>
			<point x="450" y="364.26"/>
			<point x="450" y="250.175" type="curve" smooth="yes"/>
			<point x="450" y="136.047"/>
			<point x="408.2" y="52"/>
			<point x="302.268" y="52" type="curve" smooth="yes"/>
			<point x="196.492" y="52"/>
			<point x="136" y="136.112"/>
			<point x="136" y="249.534" type="curve" smooth="yes"/>
			<point x="136" y="363.543"/>
			<point x="196.18" y="439"/>
		</contour>
		<contour>
			<point x="454" y="431" type="line"/>
			<point x="599" y="431" type="line"/>
			<point x="599" y="500" type="line"/>
			<point x="348" y="500" type="line"/>
		</contour>
	</outline>
</glyph>
<glyph name="upsilon" format="2">
	<unicode hex="03C5"/>
	<advance width="608"/>
	<outline>
		<contour>
			<point x="86" y="158" type="curve" smooth="yes"/>
			<point x="86" y="500" type="line"/>
			<point x="176" y="500" type="line"/>
			<point x="176" y="165" type="line" smooth="yes"/>
			<point x="176" y="65"/>
			<point x="250.661" y="54"/>
			<point x="300.46" y="54" type="curve" smooth="yes"/>
			<point x="371.173" y="54"/>
			<point x="424" y="64.6153"/>
			<point x="424" y="165" type="curve" smooth="yes"/>
			<point x="424" y="500" type="line"/>
			<point x="514" y="500" type="line"/>
			<point x="514" y="158" type="line" smooth="yes"/>
			<point x="514" y="38"/>
			<point x="395.682" y="-12"/>
			<point x="322.274" y="-12" type="curve" smooth="yes"/>
			<point x="277.75" y="-12" type="line" smooth="yes"/>
			<point x="184.434" y="-12"/>
			<point x="86" y="37.9149"/>
		</contour>
	</outline>
	<anchor name="tonos.top" x="290" y="600"/>
</glyph>
<glyph name="theta1" format="2">
	<unicode hex="03D1"/>
	<advance width="620"/>
	<outline>
		<contour>
			<point x="259" y="619" type="curve" smooth="yes"/>
			<point x="249" y="619" type="line" smooth="yes"/>
			<point x="210.724" y="619"/>
			<point x="178" y="582.84"/>
			<point x="178" y="544.128" type="curve" smooth="yes"/>
			<point x="178" y="475.79"/>
			<point x="279.672" y="400.172"/>
			<point x="397" y="380.583" type="curve" smooth="yes"/>
			<point x="445" y="372.569" type="line"/>
			<point x="444" y="390.601" type="line" smooth="yes"/>
			<point x="437.614" y="505.758"/>
			<point x="352.419" y="619"/>
		</contour>
		<contour>
			<point x="267.224" y="694.996" type="curve" smooth="yes"/>
			<point x="450.82" y="694.686"/>
			<point x="538.75" y="551.775"/>
			<point x="539" y="256.365" type="curve" smooth="yes"/>
			<point x="539.148" y="81.8847"/>
			<point x="451.14" y="-12"/>
			<point x="296.844" y="-12" type="curve" smooth="yes"/>
			<point x="170.247" y="-12"/>
			<point x="80" y="57.2609"/>
			<point x="80" y="158.178" type="curve" smooth="yes"/>
			<point x="80" y="331.497" type="line"/>
			<point x="170" y="331.497" type="line"/>
			<point x="170" y="162.185" type="line" smooth="yes"/>
			<point x="170" y="101.957"/>
			<point x="227.063" y="57"/>
			<point x="297.371" y="57" type="curve" smooth="yes"/>
			<point x="386.517" y="57"/>
			<point x="449" y="120.276"/>
			<point x="449" y="216.295" type="curve" smooth="yes"/>
			<point x="449" y="319.476" type="line"/>
			<point x="244.756" y="336.293"/>
			<point x="90" y="441.387"/>
			<point x="90" y="563.272" type="curve" smooth="yes"/>
			<point x="90" y="644.995"/>
			<point x="158.245" y="695.18"/>
		</contour>
	</outline>
</glyph>
<glyph name="uni0406" format="2">
	<unicode hex="0406"/>
	<advance width="261"/>
	<outline>
		<contour>
			<point x="181" y="0" type="line"/>
			<point x="80" y="0" type="line"/>
			<point x="80" y="722" type="line"/>
			<point x="181" y="722" type="line"/>
		</contour>
	</outline>
</glyph>
<glyph name="uni0407" format="2">
	<unicode hex="0407"/>
	<advance width="261"/>
	<outline>
		<contour>
			<point x="180" y="0" type="line"/>
			<point x="79" y="0" type="line"/>
			<point x="79" y="722" type="line"/>
			<point x="180" y="722" type="line"/>
		</contour>
		<contour>
			<point x="75" y="796" type="line"/>
			<point x="-15" y="796" type="line"/>
			<point x="-15" y="888" type="line"/>
			<point x="75" y="888" type="line"/>
		</contour>
		<contour>
			<point x="275" y="796" type="line"/>
			<point x="185" y="796" type="line"/>
			<point x="185" y="888" type="line"/>
			<point x="275" y="888" type="line"/>
		</contour>
	</outline>
</glyph>
<glyph name="Dzhecyr" format="2">
  <advance width="689"/>
  <unicode hex="040F"/>
  <outline>
    <component base="uni041F" yScale="-1" yOffset="722"/>
    <contour>
      <point x="295" y="-162" type="line"/>
      <point x="295" y="30" type="line"/>
      <point x="395" y="30" type="line"/>
      <point x="395" y="-162" type="line"/>
    </contour>
  </outline>
</glyph>
<glyph name="uni0411" format="2">
	<unicode hex="0411"/>
	<advance width="653"/>
	<outline>
		<contour>
			<point x="172" y="88" type="line"/>
			<point x="349" y="88" type="line" smooth="yes"/>
			<point x="439" y="88"/>
			<point x="507" y="129"/>
			<point x="507" y="213" type="curve" smooth="yes"/>
			<point x="507" y="307"/>
			<point x="446" y="338"/>
			<point x="344" y="338" type="curve" smooth="yes"/>
			<point x="172" y="338" type="line"/>
		</contour>
		<contour>
			<point x="70" y="0" type="line"/>
			<point x="70" y="722" type="line"/>
			<point x="510" y="722" type="line"/>
			<point x="510" y="636" type="line"/>
			<point x="172" y="636" type="line"/>
			<point x="172" y="421" type="line"/>
			<point x="349" y="421" type="line" smooth="yes"/>
			<point x="524" y="421"/>
			<point x="604" y="339"/>
			<point x="604" y="202" type="curve" smooth="yes"/>
			<point x="604" y="88"/>
			<point x="522" y="0"/>
			<point x="406" y="0" type="curve" smooth="yes"/>
		</contour>
	</outline>
</glyph>
<glyph name="uni0414" format="2">
	<unicode hex="0414"/>
	<advance width="724"/>
	<outline>
		<contour>
			<point x="526" y="86" type="line"/>
			<point x="526" y="637" type="line"/>
			<point x="287" y="637" type="line"/>
			<point x="287" y="576" type="line" smooth="yes"/>
			<point x="287" y="409"/>
			<point x="281" y="225"/>
			<point x="179" y="86" type="curve"/>
		</contour>
		<contour>
			<point x="707" y="-161" type="line"/>
			<point x="607" y="-162" type="line"/>
			<point x="607" y="-1" type="line"/>
			<point x="113" y="-1" type="line"/>
			<point x="113" y="-162" type="line"/>
			<point x="13" y="-162" type="line"/>
			<point x="13" y="85" type="line"/>
			<point x="69" y="85" type="line"/>
			<point x="187" y="230"/>
			<point x="193" y="411"/>
			<point x="193" y="587" type="curve" smooth="yes"/>
			<point x="193" y="722" type="line"/>
			<point x="628" y="722" type="line"/>
			<point x="628" y="86" type="line"/>
			<point x="707" y="86" type="line"/>
		</contour>
	</outline>
</glyph>
<glyph name="uni0417" format="2">
	<unicode hex="0417"/>
	<advance width="567"/>
	<outline>
		<contour>
			<point x="48" y="190" type="curve"/>
			<point x="154" y="190" type="line"/>
			<point x="162" y="105"/>
			<point x="204" y="63"/>
			<point x="281" y="63" type="curve" smooth="yes"/>
			<point x="376" y="63"/>
			<point x="415" y="125"/>
			<point x="415" y="195" type="curve" smooth="yes"/>
			<point x="415" y="282"/>
			<point x="357" y="336"/>
			<point x="250" y="336" type="curve" smooth="yes"/>
			<point x="213" y="336" type="line"/>
			<point x="213" y="416" type="line"/>
			<point x="242" y="416" type="line" smooth="yes"/>
			<point x="336" y="416"/>
			<point x="403" y="456"/>
			<point x="403" y="553" type="curve" smooth="yes"/>
			<point x="403" y="624"/>
			<point x="354" y="659"/>
			<point x="298" y="659" type="curve" smooth="yes"/>
			<point x="231" y="659"/>
			<point x="180" y="617"/>
			<point x="164" y="534" type="curve"/>
			<point x="63" y="534" type="line"/>
			<point x="81" y="655"/>
			<point x="159" y="736"/>
			<point x="297" y="736" type="curve" smooth="yes"/>
			<point x="409" y="736"/>
			<point x="503" y="664"/>
			<point x="503" y="546" type="curve" smooth="yes"/>
			<point x="503" y="458"/>
			<point x="440" y="396"/>
			<point x="371" y="377" type="curve"/>
			<point x="371" y="381" type="line"/>
			<point x="440" y="365"/>
			<point x="515" y="308"/>
			<point x="515" y="203" type="curve" smooth="yes"/>
			<point x="515" y="72"/>
			<point x="407" y="-14"/>
			<point x="278" y="-14" type="curve" smooth="yes"/>
			<point x="144" y="-14"/>
			<point x="48" y="65"/>
		</contour>
	</outline>
</glyph>
<glyph name="uni041B" format="2">
  <advance width="703"/>
  <unicode hex="041B"/>
  <outline>
    <contour>
      <point x="15" y="2" type="curve"/>
      <point x="15" y="88" type="line"/>
      <point x="26" y="83"/>
      <point x="43" y="82"/>
      <point x="53" y="82" type="curve" smooth="yes"/>
      <point x="154" y="82"/>
      <point x="165" y="242"/>
      <point x="165" y="418" type="curve" smooth="yes"/>
      <point x="165" y="722" type="line"/>
      <point x="633" y="722" type="line"/>
      <point x="633" y="0" type="line"/>
      <point x="533" y="0" type="line"/>
      <point x="533" y="637" type="line"/>
      <point x="265" y="637" type="line"/>
      <point x="265" y="394" type="line" smooth="yes"/>
      <point x="265" y="129"/>
      <point x="230" y="-7"/>
      <point x="68" y="-7" type="curve" smooth="yes"/>
      <point x="49" y="-7"/>
      <point x="29" y="-4"/>
    </contour>
  </outline>
</glyph>
<glyph name="uni0426" format="2">
	<unicode hex="0426"/>
	<advance width="709"/>
	<outline>
		<contour>
			<point x="588" y="0" type="line"/>
			<point x="70" y="0" type="line"/>
			<point x="70" y="722" type="line"/>
			<point x="171" y="722" type="line"/>
			<point x="171" y="87" type="line"/>
			<point x="518" y="87" type="line"/>
			<point x="518" y="722" type="line"/>
			<point x="619" y="722" type="line"/>
			<point x="619" y="87" type="line"/>
			<point x="689" y="87" type="line"/>
			<point x="689" y="-155" type="line"/>
			<point x="588" y="-155" type="line"/>
		</contour>
	</outline>
</glyph>
<glyph name="uni0427" format="2">
	<unicode hex="0427"/>
	<advance width="706"/>
	<outline>
		<contour>
			<point x="348" y="226" type="curve"/>
			<point x="348" y="227" type="line"/>
			<point x="131" y="227"/>
			<point x="59" y="337"/>
			<point x="59" y="563" type="curve" smooth="yes"/>
			<point x="59" y="723" type="line"/>
			<point x="160" y="723" type="line"/>
			<point x="160" y="563" type="line" smooth="yes"/>
			<point x="160" y="409"/>
			<point x="198" y="315"/>
			<point x="347" y="315" type="curve" smooth="yes"/>
			<point x="441" y="315"/>
			<point x="485" y="337"/>
			<point x="535" y="387" type="curve"/>
			<point x="535" y="723" type="line"/>
			<point x="636" y="723" type="line"/>
			<point x="636" y="1" type="line"/>
			<point x="535" y="1" type="line"/>
			<point x="535" y="274" type="line"/>
			<point x="491" y="242"/>
			<point x="430" y="226"/>
		</contour>
	</outline>
</glyph>
<glyph name="uni0428" format="2">
  <advance width="963"/>
  <unicode hex="0428"/>
  <outline>
    <contour>
      <point x="431" y="87" type="line"/>
      <point x="431" y="722" type="line"/>
      <point x="532" y="722" type="line"/>
      <point x="532" y="87" type="line"/>
      <point x="792" y="87" type="line"/>
      <point x="792" y="722" type="line"/>
      <point x="893" y="722" type="line"/>
      <point x="893" y="0" type="line"/>
      <point x="70" y="0" type="line"/>
      <point x="70" y="722" type="line"/>
      <point x="171" y="722" type="line"/>
      <point x="171" y="87" type="line"/>
    </contour>
  </outline>
</glyph>
<glyph name="uni042A" format="2">
  <advance width="666"/>
  <unicode hex="042A"/>
  <outline>
    <contour>
      <point x="632" y="209" type="curve" smooth="yes"/>
      <point x="632" y="37"/>
      <point x="512" y="1"/>
      <point x="353" y="1" type="curve" smooth="yes"/>
      <point x="149" y="1" type="line"/>
      <point x="149" y="636" type="line"/>
      <point x="20" y="636" type="line"/>
      <point x="20" y="723" type="line"/>
      <point x="250" y="723" type="line"/>
      <point x="250" y="417" type="line"/>
      <point x="353" y="417" type="line" smooth="yes"/>
      <point x="515" y="417"/>
      <point x="632" y="375"/>
    </contour>
    <contour>
      <point x="356" y="328" type="curve" smooth="yes"/>
      <point x="250" y="328" type="line"/>
      <point x="250" y="87" type="line"/>
      <point x="356" y="87" type="line" smooth="yes"/>
      <point x="464" y="87"/>
      <point x="535" y="110"/>
      <point x="535" y="209" type="curve" smooth="yes"/>
      <point x="535" y="308"/>
      <point x="465" y="328"/>
    </contour>
  </outline>
</glyph>
<glyph name="uni042B" format="2">
  <advance width="811"/>
  <unicode hex="042B"/>
  <outline>
    <contour>
      <point x="277" y="327" type="curve" smooth="yes"/>
      <point x="171" y="327" type="line"/>
      <point x="171" y="86" type="line"/>
      <point x="277" y="86" type="line" smooth="yes"/>
      <point x="385" y="86"/>
      <point x="456" y="109"/>
      <point x="456" y="208" type="curve" smooth="yes"/>
      <point x="456" y="307"/>
      <point x="386" y="327"/>
    </contour>
    <contour>
      <point x="553" y="208" type="curve" smooth="yes"/>
      <point x="553" y="36"/>
      <point x="433" y="0"/>
      <point x="274" y="0" type="curve" smooth="yes"/>
      <point x="70" y="0" type="line"/>
      <point x="70" y="722" type="line"/>
      <point x="171" y="722" type="line"/>
      <point x="171" y="416" type="line"/>
      <point x="274" y="416" type="line" smooth="yes"/>
      <point x="436" y="416"/>
      <point x="553" y="374"/>
    </contour>
    <contour>
      <point x="741" y="0" type="line"/>
      <point x="640" y="0" type="line"/>
      <point x="640" y="722" type="line"/>
      <point x="741" y="722" type="line"/>
    </contour>
  </outline>
</glyph>
<glyph name="uni042C" format="2">
	<unicode hex="042C"/>
	<advance width="588"/>
	<outline>
		<contour>
			<point x="277" y="328" type="curve" smooth="yes"/>
			<point x="171" y="328" type="line"/>
			<point x="171" y="87" type="line"/>
			<point x="277" y="87" type="line" smooth="yes"/>
			<point x="385" y="87"/>
			<point x="456" y="110"/>
			<point x="456" y="209" type="curve" smooth="yes"/>
			<point x="456" y="308"/>
			<point x="386" y="328"/>
		</contour>
		<contour>
			<point x="553" y="209" type="curve" smooth="yes"/>
			<point x="553" y="37"/>
			<point x="433" y="1"/>
			<point x="274" y="1" type="curve" smooth="yes"/>
			<point x="70" y="1" type="line"/>
			<point x="70" y="723" type="line"/>
			<point x="171" y="723" type="line"/>
			<point x="171" y="417" type="line"/>
			<point x="274" y="417" type="line" smooth="yes"/>
			<point x="436" y="417"/>
			<point x="553" y="375"/>
		</contour>
	</outline>
</glyph>
<glyph name="uni0434" format="2">
	<unicode hex="0434"/>
	<advance width="584"/>
	<outline>
		<contour>
			<point x="420" y="65" type="line"/>
			<point x="420" y="435" type="line"/>
			<point x="229.813" y="435" type="line"/>
			<point x="227.813" y="395.939" type="line" smooth="yes"/>
			<point x="217.069" y="186.098"/>
			<point x="194.901" y="117.795"/>
			<point x="165" y="65" type="curve"/>
		</contour>
		<contour>
			<point x="574" y="-141" type="line"/>
			<point x="484" y="-141" type="line"/>
			<point x="484" y="0" type="line"/>
			<point x="100" y="0" type="line"/>
			<point x="100" y="-141" type="line"/>
			<point x="10" y="-141" type="line"/>
			<point x="10" y="65" type="line"/>
			<point x="61" y="65" type="line"/>
			<point x="116" y="159"/>
			<point x="128.599" y="230.177"/>
			<point x="137" y="429" type="curve" smooth="yes"/>
			<point x="140" y="500" type="line"/>
			<point x="510" y="500" type="line"/>
			<point x="510" y="65" type="line"/>
			<point x="574" y="65" type="line"/>
		</contour>
	</outline>
</glyph>
<glyph name="uni0436" format="2">
  <advance width="748"/>
  <unicode hex="0436"/>
  <outline>
    <contour>
      <point x="10" y="0" type="line"/>
      <point x="236" y="265" type="line"/>
      <point x="23" y="500" type="line"/>
      <point x="141" y="500" type="line"/>
      <point x="327" y="272" type="line"/>
      <point x="329" y="272" type="line"/>
      <point x="329" y="500" type="line"/>
      <point x="419" y="500" type="line"/>
      <point x="419" y="272" type="line"/>
      <point x="421" y="272" type="line"/>
      <point x="607" y="500" type="line"/>
      <point x="725" y="500" type="line"/>
      <point x="511" y="265" type="line"/>
      <point x="738" y="0" type="line"/>
      <point x="620" y="0" type="line"/>
      <point x="421" y="248" type="line"/>
      <point x="419" y="248" type="line"/>
      <point x="419" y="0" type="line"/>
      <point x="329" y="0" type="line"/>
      <point x="329" y="248" type="line"/>
      <point x="327" y="248" type="line"/>
      <point x="128" y="0" type="line"/>
    </contour>
  </outline>
</glyph>
<glyph name="uni0437" format="2">
  <advance width="519"/>
  <unicode hex="0437"/>
  <outline>
    <contour>
      <point x="459" y="144" type="curve" smooth="yes"/>
      <point x="459" y="47"/>
      <point x="385" y="-14"/>
      <point x="257" y="-14" type="curve" smooth="yes"/>
      <point x="160" y="-14"/>
      <point x="71" y="23"/>
      <point x="60" y="136" type="curve"/>
      <point x="155" y="136" type="line"/>
      <point x="160" y="73"/>
      <point x="203" y="51"/>
      <point x="262" y="51" type="curve" smooth="yes"/>
      <point x="329" y="51"/>
      <point x="364" y="90"/>
      <point x="364" y="139" type="curve" smooth="yes"/>
      <point x="364" y="192"/>
      <point x="320" y="226"/>
      <point x="250" y="226" type="curve" smooth="yes"/>
      <point x="210" y="226" type="line"/>
      <point x="210" y="291" type="line"/>
      <point x="242" y="291" type="line" smooth="yes"/>
      <point x="313" y="291"/>
      <point x="354" y="322"/>
      <point x="354" y="376" type="curve" smooth="yes"/>
      <point x="354" y="421"/>
      <point x="324" y="447"/>
      <point x="263" y="447" type="curve" smooth="yes"/>
      <point x="207" y="447"/>
      <point x="174" y="425"/>
      <point x="159" y="367" type="curve"/>
      <point x="64" y="367" type="line"/>
      <point x="70" y="447"/>
      <point x="140" y="512"/>
      <point x="264" y="512" type="curve" smooth="yes"/>
      <point x="382" y="512"/>
      <point x="449" y="458"/>
      <point x="449" y="378" type="curve" smooth="yes"/>
      <point x="449" y="322"/>
      <point x="405" y="279"/>
      <point x="341" y="265" type="curve"/>
      <point x="341" y="269" type="line"/>
      <point x="405" y="260"/>
      <point x="459" y="212"/>
    </contour>
  </outline>
</glyph>
<glyph name="uni0438" format="2">
	<unicode hex="0438"/>
	<advance width="620"/>
	<outline>
		<contour>
			<point x="80" y="0" type="line"/>
			<point x="80" y="500" type="line"/>
			<point x="170" y="500" type="line"/>
			<point x="170" y="124" type="line"/>
			<point x="173" y="124" type="line"/>
			<point x="437" y="500" type="line"/>
			<point x="540" y="500" type="line"/>
			<point x="540" y="0" type="line"/>
			<point x="450" y="0" type="line"/>
			<point x="450" y="377" type="line"/>
			<point x="447" y="377" type="line"/>
			<point x="183" y="0" type="line"/>
		</contour>
	</outline>
</glyph>
<glyph name="uni0439" format="2">
	<unicode hex="0439"/>
	<advance width="620"/>
	<outline>
		<component base="uni0438"/>
		<component base="uni0438"/>
		<contour>
			<point x="194" y="722" type="curve"/>
			<point x="204" y="676"/>
			<point x="236" y="651"/>
			<point x="285" y="651" type="curve" smooth="yes"/>
			<point x="336" y="651"/>
			<point x="366" y="674"/>
			<point x="379" y="722" type="curve"/>
			<point x="387.472" y="722"/>
			<point x="418.677" y="722"/>
			<point x="428" y="722" type="curve"/>
			<point x="423" y="634"/>
			<point x="371" y="584"/>
			<point x="284" y="584" type="curve" smooth="yes"/>
			<point x="200" y="584"/>
			<point x="151" y="634"/>
			<point x="146" y="722" type="curve"/>
			<point x="151.444" y="722"/>
			<point x="184.926" y="722"/>
		</contour>
	</outline>
</glyph>
<glyph name="uni043B" format="2">
  <advance width="576"/>
  <unicode hex="043B"/>
  <outline>
    <contour>
      <point x="30" y="75" type="line"/>
      <point x="36" y="73"/>
      <point x="46" y="69"/>
      <point x="53" y="69" type="curve" smooth="yes"/>
      <point x="108" y="69"/>
      <point x="119.495" y="143.342"/>
      <point x="132" y="372" type="curve" smooth="yes"/>
      <point x="139" y="500" type="line"/>
      <point x="496" y="500" type="line"/>
      <point x="496" y="0" type="line"/>
      <point x="406" y="0" type="line"/>
      <point x="406" y="435" type="line"/>
      <point x="226" y="435" type="line"/>
      <point x="221" y="327" type="line" smooth="yes"/>
      <point x="209.901" y="87.2568"/>
      <point x="180" y="-7"/>
      <point x="73" y="-7" type="curve" smooth="yes"/>
      <point x="62" y="-7"/>
      <point x="40" y="-3"/>
      <point x="30" y="0" type="curve"/>
    </contour>
  </outline>
</glyph>
<glyph name="uni043D" format="2">
	<unicode hex="043D"/>
	<advance width="610"/>
	<outline>
		<contour>
			<point x="80" y="0" type="line"/>
			<point x="80" y="500" type="line"/>
			<point x="170" y="500" type="line"/>
			<point x="170" y="296" type="line"/>
			<point x="440" y="296" type="line"/>
			<point x="440" y="500" type="line"/>
			<point x="530" y="500" type="line"/>
			<point x="530" y="0" type="line"/>
			<point x="440" y="0" type="line"/>
			<point x="440" y="233" type="line"/>
			<point x="170" y="233" type="line"/>
			<point x="170" y="0" type="line"/>
		</contour>
	</outline>
</glyph>
<glyph name="uni043F" format="2">
	<unicode hex="043F"/>
	<advance width="592"/>
	<outline>
		<contour>
			<point x="80" y="0" type="line"/>
			<point x="80" y="500" type="line"/>
			<point x="512" y="500" type="line"/>
			<point x="512" y="0" type="line"/>
			<point x="422" y="0" type="line"/>
			<point x="422" y="435" type="line"/>
			<point x="170" y="435" type="line"/>
			<point x="170" y="0" type="line"/>
		</contour>
	</outline>
</glyph>
<glyph name="uni0442" format="2">
	<unicode hex="0442"/>
	<advance width="474"/>
	<outline>
		<contour>
			<point x="192" y="0" type="line"/>
			<point x="192" y="435" type="line"/>
			<point x="30" y="435" type="line"/>
			<point x="30" y="500" type="line"/>
			<point x="444" y="500" type="line"/>
			<point x="444" y="435" type="line"/>
			<point x="282" y="435" type="line"/>
			<point x="282" y="0" type="line"/>
		</contour>
	</outline>
</glyph>
<glyph name="uni0443" format="2">
	<unicode hex="0443"/>
	<advance width="551"/>
	<outline>
		<contour>
			<point x="131" y="-198" type="line"/>
			<point x="219" y="-198" type="line"/>
			<point x="531" y="500" type="line"/>
			<point x="438" y="500" type="line"/>
		</contour>
		<contour>
			<point x="245.178" y="-7.21871" type="line"/>
			<point x="292.428" y="101.942" type="line"/>
			<point x="130" y="500" type="line"/>
			<point x="30" y="500" type="line"/>
		</contour>
	</outline>
</glyph>
<glyph name="uni0445" format="2">
	<unicode hex="0445"/>
	<advance width="547"/>
	<outline>
		<contour>
			<point x="527" y="0" type="line"/>
			<point x="413" y="0" type="line"/>
			<point x="267" y="197" type="line"/>
			<point x="125" y="0" type="line"/>
			<point x="20" y="0" type="line"/>
			<point x="219" y="259" type="line"/>
			<point x="35" y="500" type="line"/>
			<point x="149" y="500" type="line"/>
			<point x="281" y="321" type="line"/>
			<point x="409" y="500" type="line"/>
			<point x="514" y="500" type="line"/>
			<point x="328" y="259" type="line"/>
		</contour>
	</outline>
</glyph>
<glyph name="uni0448" format="2">
	<unicode hex="0448"/>
	<advance width="828"/>
	<outline>
		<contour>
			<point x="80" y="0" type="line"/>
			<point x="80" y="500" type="line"/>
			<point x="170" y="500" type="line"/>
			<point x="170" y="65" type="line"/>
			<point x="369" y="65" type="line"/>
			<point x="369" y="500" type="line"/>
			<point x="459" y="500" type="line"/>
			<point x="459" y="65" type="line"/>
			<point x="658" y="65" type="line"/>
			<point x="658" y="500" type="line"/>
			<point x="748" y="500" type="line"/>
			<point x="748" y="0" type="line"/>
		</contour>
	</outline>
</glyph>
<glyph name="djecyr" format="2">
  <advance width="593"/>
  <unicode hex="0452"/>
  <outline>
    <component base="h"/>
    <contour>
      <point x="513" y="134" type="line"/>
      <point x="513" y="-60" type="line" smooth="yes"/>
      <point x="513" y="-144"/>
      <point x="454" y="-199"/>
      <point x="367" y="-199" type="curve" smooth="yes"/>
      <point x="310" y="-199"/>
      <point x="264" y="-180"/>
      <point x="229" y="-142" type="curve"/>
      <point x="286" y="-85" type="line"/>
      <point x="307" y="-114"/>
      <point x="332" y="-129"/>
      <point x="361" y="-129" type="curve" smooth="yes"/>
      <point x="395" y="-129"/>
      <point x="423" y="-103"/>
      <point x="423" y="-61" type="curve" smooth="yes"/>
      <point x="423" y="134" type="line"/>
    </contour>
    <contour>
      <point x="290" y="560" type="line"/>
      <point x="0" y="560" type="line"/>
      <point x="0" y="629" type="line"/>
      <point x="290" y="629" type="line"/>
    </contour>
  </outline>
</glyph>
<glyph name="uni0454" format="2">
  <advance width="591"/>
  <unicode hex="0454"/>
  <outline>
    <contour>
      <point x="442" y="146" type="curve"/>
      <point x="542" y="143" type="line"/>
      <point x="510" y="40"/>
      <point x="419" y="-15"/>
      <point x="311" y="-15" type="curve" smooth="yes"/>
      <point x="169" y="-15"/>
      <point x="65" y="77"/>
      <point x="65" y="248" type="curve" smooth="yes"/>
      <point x="65" y="418"/>
      <point x="169" y="511"/>
      <point x="311" y="511" type="curve" smooth="yes"/>
      <point x="413" y="511"/>
      <point x="503" y="461"/>
      <point x="538" y="367" type="curve"/>
      <point x="436" y="367" type="line"/>
      <point x="411" y="416"/>
      <point x="371" y="448"/>
      <point x="311" y="448" type="curve" smooth="yes"/>
      <point x="222" y="448"/>
      <point x="169" y="370"/>
      <point x="160" y="280" type="curve"/>
      <point x="386" y="280" type="line"/>
      <point x="386" y="217" type="line"/>
      <point x="161" y="217" type="line"/>
      <point x="170" y="126"/>
      <point x="222" y="52"/>
      <point x="310" y="52" type="curve" smooth="yes"/>
      <point x="376" y="52"/>
      <point x="418" y="92"/>
    </contour>
  </outline>
</glyph>
<glyph name="uni0456" format="2">
  <advance width="246"/>
  <unicode hex="0456"/>
  <outline>
    <contour>
      <point x="168" y="0" type="line"/>
      <point x="78" y="0" type="line"/>
      <point x="78" y="500" type="line"/>
      <point x="168" y="500" type="line"/>
    </contour>
    <contour>
      <point x="176" y="630" type="line"/>
      <point x="70" y="630" type="line"/>
      <point x="70" y="722" type="line"/>
      <point x="176" y="722" type="line"/>
    </contour>
  </outline>
</glyph>
<glyph name="uni04E1" format="2">
	<unicode hex="04E1"/>
	<advance width="511"/>
	<outline>
		<contour>
			<point x="462" y="13" type="curve" smooth="yes"/>
			<point x="462" y="-112.197"/>
			<point x="370.494" y="-200"/>
			<point x="240.015" y="-200" type="curve" smooth="yes"/>
			<point x="98.2376" y="-200"/>
			<point x="22" y="-141.252"/>
			<point x="22" y="-32" type="curve"/>
			<point x="112" y="-32" type="line"/>
			<point x="112" y="-104.649"/>
			<point x="149.803" y="-135"/>
			<point x="240.29" y="-135" type="curve" smooth="yes"/>
			<point x="320.805" y="-135"/>
			<point x="372" y="-78.3902"/>
			<point x="372" y="10.6415" type="curve" smooth="yes"/>
			<point x="372" y="124.277"/>
			<point x="288" y="187"/>
			<point x="135.817" y="187" type="curve"/>
			<point x="135.817" y="224" type="line"/>
			<point x="335.282" y="431" type="line"/>
			<point x="50.3145" y="431" type="line"/>
			<point x="50.3145" y="500" type="line"/>
			<point x="430.307" y="500" type="line"/>
			<point x="430.307" y="418.936" type="line"/>
			<point x="259.863" y="241" type="line"/>
			<point x="391.585" y="223.546"/>
			<point x="462" y="144.123"/>
		</contour>
	</outline>
</glyph>
<glyph name="uni1E1D" format="2">
  <advance width="575"/>
  <unicode hex="1E1D"/>
  <anchor x="284" y="580" name="top"/>
  <outline>
    <contour>
      <point x="60" y="250" type="curve" smooth="yes"/>
      <point x="60" y="405"/>
      <point x="134" y="512"/>
      <point x="291" y="512" type="curve" smooth="yes"/>
      <point x="434" y="512"/>
      <point x="514" y="423"/>
      <point x="514" y="282" type="curve" smooth="yes"/>
      <point x="514" y="236" type="line"/>
      <point x="154" y="236" type="line"/>
      <point x="154" y="134"/>
      <point x="204" y="51"/>
      <point x="299" y="51" type="curve" smooth="yes"/>
      <point x="370" y="51"/>
      <point x="413" y="98"/>
      <point x="419" y="160" type="curve"/>
      <point x="515" y="160" type="line"/>
      <point x="495" y="55"/>
      <point x="418" y="-14"/>
      <point x="291" y="-14" type="curve" smooth="yes"/>
      <point x="128" y="-14"/>
      <point x="60" y="102"/>
    </contour>
    <contour>
      <point x="154" y="301" type="curve"/>
      <point x="420" y="301" type="line"/>
      <point x="420" y="361"/>
      <point x="395" y="447"/>
      <point x="291" y="447" type="curve" smooth="yes"/>
      <point x="213" y="447"/>
      <point x="154" y="399"/>
    </contour>
    <contour>
      <point x="406.146" y="-140.014" type="curve" smooth="yes"/>
      <point x="406.146" y="-196.535"/>
      <point x="364.146" y="-232"/>
      <point x="297.21" y="-232" type="curve" smooth="yes"/>
      <point x="272.21" y="-232"/>
      <point x="248.626" y="-229"/>
      <point x="209.626" y="-223" type="curve"/>
      <point x="209.626" y="-173" type="line"/>
      <point x="231.002" y="-180.911"/>
      <point x="260.732" y="-185"/>
      <point x="287.629" y="-185" type="curve" smooth="yes"/>
      <point x="318.343" y="-185"/>
      <point x="335.146" y="-169.446"/>
      <point x="335.146" y="-141.014" type="curve" smooth="yes"/>
      <point x="335.146" y="-108.667"/>
      <point x="309.434" y="-89"/>
      <point x="267.142" y="-89" type="curve" smooth="yes"/>
      <point x="214.146" y="-89" type="line"/>
      <point x="262.146" y="11" type="line"/>
      <point x="311.146" y="11" type="line"/>
      <point x="279.356" y="-52.1676" type="line"/>
      <point x="372.222" y="-52.1676"/>
      <point x="406.146" y="-82.1866"/>
    </contour>
    <contour>
      <point x="145" y="697" type="curve"/>
      <point x="197" y="697" type="line"/>
      <point x="203" y="666"/>
      <point x="251" y="644"/>
      <point x="287" y="644" type="curve" smooth="yes"/>
      <point x="323" y="644"/>
      <point x="371" y="666"/>
      <point x="377" y="697" type="curve"/>
      <point x="427" y="697" type="line"/>
      <point x="416" y="631"/>
      <point x="355" y="580"/>
      <point x="286" y="580" type="curve" smooth="yes"/>
      <point x="215" y="580"/>
      <point x="153" y="631"/>
    </contour>
  </outline>
</glyph>
<glyph name="uni1EA6" format="2">
	<unicode hex="1EA6"/>
	<advance width="750"/>
	<outline>
		<component base="Acircumflex"/>
		<contour>
			<point x="409" y="1007" type="line"/>
			<point x="348" y="1007" type="line"/>
			<point x="208" y="1178" type="line"/>
			<point x="309" y="1178" type="line"/>
		</contour>
	</outline>
	<anchor name="_top" x="375" y="797"/>
	<anchor name="top" x="375" y="797"/>
</glyph>
<glyph name="uni1EB4" format="2">
  <advance width="750"/>
  <unicode hex="1EB4"/>
  <anchor x="375" y="927" name="_top"/>
  <anchor x="375" y="797" name="top"/>
  <outline>
    <contour>
      <point x="15" y="0" type="line"/>
      <point x="318" y="722" type="line"/>
      <point x="428" y="722" type="line"/>
      <point x="735" y="0" type="line"/>
      <point x="629" y="0" type="line"/>
      <point x="551" y="193" type="line"/>
      <point x="197" y="193" type="line"/>
      <point x="118" y="0" type="line"/>
    </contour>
    <contour>
      <point x="236" y="278" type="line"/>
      <point x="509" y="278" type="line"/>
      <point x="371" y="611" type="line"/>
    </contour>
    <contour>
      <point x="518" y="914" type="curve"/>
      <point x="507" y="848"/>
      <point x="446" y="797"/>
      <point x="377" y="797" type="curve" smooth="yes"/>
      <point x="306" y="797"/>
      <point x="244" y="848"/>
      <point x="236" y="914" type="curve"/>
      <point x="244.99" y="914"/>
      <point x="278.106" y="914"/>
      <point x="288" y="914" type="curve"/>
      <point x="294" y="883"/>
      <point x="342" y="861"/>
      <point x="378" y="861" type="curve" smooth="yes"/>
      <point x="414" y="861"/>
      <point x="462" y="883"/>
      <point x="468" y="914" type="curve"/>
      <point x="473.671" y="914"/>
      <point x="508.548" y="914"/>
    </contour>
    <contour>
      <point x="224" y="945" type="line"/>
      <point x="230" y="1007"/>
      <point x="270" y="1043"/>
      <point x="309" y="1043" type="curve" smooth="yes"/>
      <point x="330" y="1043"/>
      <point x="355" y="1034"/>
      <point x="378" y="1023" type="curve" smooth="yes"/>
      <point x="396" y="1014"/>
      <point x="414" y="1007"/>
      <point x="426" y="1007" type="curve" smooth="yes"/>
      <point x="443" y="1007"/>
      <point x="456" y="1021"/>
      <point x="460" y="1048" type="curve"/>
      <point x="515" y="1048" type="line"/>
      <point x="510" y="993"/>
      <point x="477" y="950"/>
      <point x="432" y="950" type="curve" smooth="yes"/>
      <point x="409" y="950"/>
      <point x="383" y="960"/>
      <point x="362.089" y="970.455" type="curve" smooth="yes"/>
      <point x="343" y="980"/>
      <point x="326" y="986"/>
      <point x="314" y="986" type="curve" smooth="yes"/>
      <point x="297" y="986"/>
      <point x="282" y="972"/>
      <point x="279" y="945" type="curve"/>
    </contour>
  </outline>
</glyph>
<glyph name="uni1EB5" format="2">
	<unicode hex="1EB5"/>
	<advance width="535"/>
	<outline>
		<contour>
			<point x="129" y="728" type="line"/>
			<point x="135" y="790"/>
			<point x="175" y="826"/>
			<point x="214" y="826" type="curve" smooth="yes"/>
			<point x="235" y="826"/>
			<point x="260.086" y="817.178"/>
			<point x="283" y="806" type="curve" smooth="yes"/>
			<point x="301.087" y="797.177"/>
			<point x="319" y="790"/>
			<point x="331" y="790" type="curve" smooth="yes"/>
			<point x="348" y="790"/>
			<point x="361" y="804"/>
			<point x="365" y="831" type="curve"/>
			<point x="420" y="831" type="line"/>
			<point x="415" y="776"/>
			<point x="382" y="733"/>
			<point x="337" y="733" type="curve" smooth="yes"/>
			<point x="314" y="733"/>
			<point x="288" y="743"/>
			<point x="267.089" y="753.455" type="curve" smooth="yes"/>
			<point x="248" y="763"/>
			<point x="231" y="769"/>
			<point x="219" y="769" type="curve" smooth="yes"/>
			<point x="202" y="769"/>
			<point x="187" y="755"/>
			<point x="184" y="728" type="curve"/>
		</contour>
		<contour>
			<point x="50" y="140" type="curve" smooth="yes"/>
			<point x="50" y="251"/>
			<point x="151" y="318"/>
			<point x="321" y="318" type="curve" smooth="yes"/>
			<point x="389" y="318" type="line"/>
			<point x="389" y="349" type="line" smooth="yes"/>
			<point x="389" y="410"/>
			<point x="350" y="444"/>
			<point x="280" y="444" type="curve" smooth="yes"/>
			<point x="214" y="444"/>
			<point x="172" y="414"/>
			<point x="172" y="365" type="curve"/>
			<point x="78" y="365" type="line"/>
			<point x="78" y="462"/>
			<point x="148" y="513"/>
			<point x="280" y="513" type="curve" smooth="yes"/>
			<point x="445" y="513"/>
			<point x="483" y="472"/>
			<point x="483" y="291" type="curve" smooth="yes"/>
			<point x="483" y="182" type="line" smooth="yes"/>
			<point x="483" y="81"/>
			<point x="487" y="24"/>
			<point x="496" y="0" type="curve"/>
			<point x="405" y="0" type="line"/>
			<point x="398" y="23"/>
			<point x="394" y="62"/>
			<point x="394" y="72" type="curve"/>
			<point x="339" y="6"/>
			<point x="302" y="-14"/>
			<point x="237" y="-14" type="curve" smooth="yes"/>
			<point x="123" y="-14"/>
			<point x="50" y="46"/>
		</contour>
		<contour>
			<point x="144" y="143" type="curve" smooth="yes"/>
			<point x="144" y="93"/>
			<point x="187" y="55"/>
			<point x="244" y="55" type="curve" smooth="yes"/>
			<point x="341" y="55"/>
			<point x="389" y="105"/>
			<point x="389" y="204" type="curve" smooth="yes"/>
			<point x="389" y="249" type="line"/>
			<point x="338" y="249" type="line" smooth="yes"/>
			<point x="219" y="249"/>
			<point x="144" y="208"/>
		</contour>
		<contour>
			<point x="423" y="697" type="curve"/>
			<point x="412" y="631"/>
			<point x="351" y="580"/>
			<point x="282" y="580" type="curve" smooth="yes"/>
			<point x="211" y="580"/>
			<point x="149" y="631"/>
			<point x="141" y="697" type="curve"/>
			<point x="149.99" y="697"/>
			<point x="183.106" y="697"/>
			<point x="193" y="697" type="curve"/>
			<point x="199" y="666"/>
			<point x="247" y="644"/>
			<point x="283" y="644" type="curve" smooth="yes"/>
			<point x="319" y="644"/>
			<point x="367" y="666"/>
			<point x="373" y="697" type="curve"/>
			<point x="378.671" y="697"/>
			<point x="413.548" y="697"/>
		</contour>
	</outline>
	<anchor name="_top" x="280" y="580"/>
	<anchor name="top" x="280" y="580"/>
</glyph>
<glyph name="uni1EC0" format="2">
	<unicode hex="1EC0"/>
	<advance width="577"/>
	<outline>
		<component base="Ecircumflex"/>
		<contour>
			<point x="319" y="1007" type="line"/>
			<point x="258" y="1007" type="line"/>
			<point x="118" y="1178" type="line"/>
			<point x="219" y="1178" type="line"/>
		</contour>
	</outline>
	<anchor name="_top" x="285" y="797"/>
	<anchor name="top" x="285" y="797"/>
</glyph>
<glyph name="uni1EC1" format="2">
	<unicode hex="1EC1"/>
	<advance width="537"/>
	<outline>
		<component base="ecircumflex"/>
		<contour>
			<point x="298" y="790" type="line"/>
			<point x="237" y="790" type="line"/>
			<point x="97" y="961" type="line"/>
			<point x="198" y="961" type="line"/>
		</contour>
	</outline>
	<anchor name="_top" x="264" y="580"/>
</glyph>
<glyph name="uni1EC4" format="2">
  <advance width="577"/>
  <unicode hex="1EC4"/>
  <anchor x="285" y="797" name="_top"/>
  <anchor x="285" y="797" name="top"/>
  <outline>
    <contour>
      <point x="134" y="995" type="line"/>
      <point x="140" y="1057"/>
      <point x="180" y="1093"/>
      <point x="219" y="1093" type="curve" smooth="yes"/>
      <point x="240" y="1093"/>
      <point x="265.086" y="1084.18"/>
      <point x="288" y="1073" type="curve" smooth="yes"/>
      <point x="306.087" y="1064.18"/>
      <point x="324" y="1057"/>
      <point x="336" y="1057" type="curve" smooth="yes"/>
      <point x="353" y="1057"/>
      <point x="366" y="1071"/>
      <point x="370" y="1098" type="curve"/>
      <point x="425" y="1098" type="line"/>
      <point x="420" y="1043"/>
      <point x="387" y="1000"/>
      <point x="342" y="1000" type="curve" smooth="yes"/>
      <point x="319" y="1000"/>
      <point x="293" y="1010"/>
      <point x="272.089" y="1020.46" type="curve" smooth="yes"/>
      <point x="253" y="1030"/>
      <point x="236" y="1036"/>
      <point x="224" y="1036" type="curve" smooth="yes"/>
      <point x="207" y="1036"/>
      <point x="192" y="1022"/>
      <point x="189" y="995" type="curve"/>
    </contour>
    <contour>
      <point x="60" y="0" type="line"/>
      <point x="60" y="722" type="line"/>
      <point x="507" y="722" type="line"/>
      <point x="507" y="635" type="line"/>
      <point x="160" y="635" type="line"/>
      <point x="160" y="413" type="line"/>
      <point x="497" y="413" type="line"/>
      <point x="497" y="326" type="line"/>
      <point x="160" y="326" type="line"/>
      <point x="160" y="87" type="line"/>
      <point x="517" y="87" type="line"/>
      <point x="517" y="0" type="line"/>
    </contour>
    <contour>
      <point x="434" y="797" type="line"/>
      <point x="374" y="797" type="line"/>
      <point x="289" y="907" type="line"/>
      <point x="204" y="797" type="line"/>
      <point x="144" y="797" type="line"/>
      <point x="234" y="967" type="line"/>
      <point x="344" y="967" type="line"/>
    </contour>
  </outline>
</glyph>
<glyph name="uni1ED2" format="2">
  <advance width="754"/>
  <unicode hex="1ED2"/>
  <anchor x="365" y="797" name="_top"/>
  <anchor x="365" y="797" name="top"/>
  <outline>
    <component base="Ocircumflex"/>
    <contour>
      <point x="399" y="1007" type="line"/>
      <point x="338" y="1007" type="line"/>
      <point x="198" y="1178" type="line"/>
      <point x="299" y="1178" type="line"/>
    </contour>
  </outline>
</glyph>
<glyph name="uni1ED3" format="2">
	<unicode hex="1ED3"/>
	<advance width="580"/>
	<outline>
		<component base="ocircumflex"/>
		<contour>
			<point x="318" y="800" type="line"/>
			<point x="257" y="800" type="line"/>
			<point x="117" y="971" type="line"/>
			<point x="218" y="971" type="line"/>
		</contour>
	</outline>
	<anchor name="_top" x="284" y="580"/>
</glyph>
<glyph name="uni1ED6" format="2">
	<unicode hex="1ED6"/>
	<advance width="754"/>
	<outline>
		<contour>
			<point x="50" y="372" type="curve" smooth="yes"/>
			<point x="50" y="589"/>
			<point x="163" y="736"/>
			<point x="378" y="736" type="curve" smooth="yes"/>
			<point x="592" y="736"/>
			<point x="704" y="589"/>
			<point x="704" y="372" type="curve" smooth="yes"/>
			<point x="704" y="157"/>
			<point x="595" y="-14"/>
			<point x="378" y="-14" type="curve" smooth="yes"/>
			<point x="160" y="-14"/>
			<point x="50" y="158"/>
		</contour>
		<contour>
			<point x="153" y="371" type="curve" smooth="yes"/>
			<point x="153" y="208"/>
			<point x="210" y="74"/>
			<point x="378" y="74" type="curve" smooth="yes"/>
			<point x="546" y="74"/>
			<point x="601" y="207"/>
			<point x="601" y="372" type="curve" smooth="yes"/>
			<point x="601" y="540"/>
			<point x="544" y="649"/>
			<point x="378" y="649" type="curve" smooth="yes"/>
			<point x="228" y="649"/>
			<point x="153" y="558"/>
		</contour>
		<contour>
			<point x="514" y="797" type="line"/>
			<point x="454" y="797" type="line"/>
			<point x="369" y="907" type="line"/>
			<point x="284" y="797" type="line"/>
			<point x="224" y="797" type="line"/>
			<point x="314" y="967" type="line"/>
			<point x="424" y="967" type="line"/>
		</contour>
		<contour>
			<point x="214" y="1015" type="line"/>
			<point x="220" y="1077"/>
			<point x="260" y="1113"/>
			<point x="299" y="1113" type="curve" smooth="yes"/>
			<point x="320" y="1113"/>
			<point x="345" y="1104"/>
			<point x="368" y="1093" type="curve" smooth="yes"/>
			<point x="386" y="1084"/>
			<point x="404" y="1077"/>
			<point x="416" y="1077" type="curve" smooth="yes"/>
			<point x="433" y="1077"/>
			<point x="446" y="1091"/>
			<point x="450" y="1118" type="curve"/>
			<point x="505" y="1118" type="line"/>
			<point x="500" y="1063"/>
			<point x="467" y="1020"/>
			<point x="422" y="1020" type="curve" smooth="yes"/>
			<point x="399" y="1020"/>
			<point x="373" y="1030"/>
			<point x="352.089" y="1040.46" type="curve" smooth="yes"/>
			<point x="333" y="1050"/>
			<point x="316" y="1056"/>
			<point x="304" y="1056" type="curve" smooth="yes"/>
			<point x="287" y="1056"/>
			<point x="272" y="1042"/>
			<point x="269" y="1015" type="curve"/>
		</contour>
	</outline>
	<anchor name="_top" x="365" y="997"/>
	<anchor name="top" x="365" y="797"/>
</glyph>
<glyph name="uni1FC0" format="2">
  <advance width="299"/>
  <unicode hex="1FC0"/>
  <outline>
    <contour>
      <point x="-143" y="620" type="line"/>
      <point x="-139" y="669"/>
      <point x="-108" y="718"/>
      <point x="-60" y="718" type="curve" smooth="yes"/>
      <point x="-21" y="718"/>
      <point x="52" y="682"/>
      <point x="60" y="682" type="curve" smooth="yes"/>
      <point x="73" y="682"/>
      <point x="83" y="696"/>
      <point x="90" y="723" type="curve"/>
      <point x="145" y="723" type="line"/>
      <point x="141" y="673"/>
      <point x="109" y="625"/>
      <point x="60" y="625" type="curve" smooth="yes"/>
      <point x="23" y="625"/>
      <point x="-50" y="661"/>
      <point x="-58" y="661" type="curve" smooth="yes"/>
      <point x="-72" y="661"/>
      <point x="-83" y="647"/>
      <point x="-90" y="620" type="curve"/>
    </contour>
  </outline>
</glyph>
<glyph name="uni1FC1" format="2">
  <advance width="289"/>
  <unicode hex="1FC1"/>
  <outline>
    <component base="uni1FC0" xOffset="145" yOffset="162"/>
    <contour>
      <point x="92" y="630" type="line"/>
      <point x="2" y="630" type="line"/>
      <point x="2" y="722" type="line"/>
      <point x="92" y="722" type="line"/>
    </contour>
    <contour>
      <point x="292" y="630" type="line"/>
      <point x="202" y="630" type="line"/>
      <point x="202" y="722" type="line"/>
      <point x="292" y="722" type="line"/>
    </contour>
  </outline>
</glyph>
<glyph name="uni1FED" format="2">
	<unicode hex="1FED"/>
	<advance width="289"/>
	<outline>
		<contour>
			<point x="89" y="630" type="line"/>
			<point x="-1" y="630" type="line"/>
			<point x="-1" y="722" type="line"/>
			<point x="89" y="722" type="line"/>
		</contour>
		<contour>
			<point x="289" y="630" type="line"/>
			<point x="199" y="630" type="line"/>
			<point x="199" y="722" type="line"/>
			<point x="289" y="722" type="line"/>
		</contour>
		<contour>
			<point x="175" y="782" type="line"/>
			<point x="114" y="782" type="line"/>
			<point x="-26" y="953" type="line"/>
			<point x="75" y="953" type="line"/>
		</contour>
	</outline>
</glyph>
<glyph name="uni1FFD" format="2">
  <advance width="229"/>
  <unicode hex="1FFD"/>
  <outline>
    <contour>
      <point x="255" y="771" type="line"/>
      <point x="115" y="600" type="line"/>
      <point x="54" y="600" type="line"/>
      <point x="154" y="771" type="line"/>
    </contour>
  </outline>
</glyph>
<glyph name="uni2010" format="2">
	<unicode hex="2010"/>
	<advance width="310"/>
	<outline>
		<contour>
			<point x="270" y="269" type="line"/>
			<point x="40" y="269" type="line"/>
			<point x="40" y="331" type="line"/>
			<point x="270" y="331" type="line"/>
		</contour>
	</outline>
</glyph>
<glyph name="uni2015" format="2">
  <advance width="1000"/>
  <unicode hex="2015"/>
  <outline>
    <contour>
      <point x="1000" y="211" type="line"/>
      <point x="0" y="211" type="line"/>
      <point x="0" y="275" type="line"/>
      <point x="1000" y="275" type="line"/>
    </contour>
  </outline>
</glyph>
<glyph name="quoteleft" format="2">
  <advance width="260"/>
  <unicode hex="2018"/>
  <anchor x="97" y="472" name="_cedilla.top"/>
  <outline>
    <contour>
      <point x="220" y="722" type="line"/>
      <point x="160" y="472" type="line"/>
      <point x="40" y="472" type="line"/>
      <point x="150" y="722" type="line"/>
    </contour>
  </outline>
</glyph>
<glyph name="quoteright" format="2">
	<unicode hex="2019"/>
	<advance width="260"/>
	<outline>
		<contour>
			<point x="220" y="722" type="line"/>
			<point x="110" y="472" type="line"/>
			<point x="40" y="472" type="line"/>
			<point x="100" y="722" type="line"/>
		</contour>
	</outline>
</glyph>
<glyph name="quotesinglbase" format="2">
	<unicode hex="201A"/>
	<advance width="253"/>
	<outline>
		<contour>
			<point x="217" y="123" type="line"/>
			<point x="107" y="-127" type="line"/>
			<point x="37" y="-127" type="line"/>
			<point x="97" y="123" type="line"/>
		</contour>
	</outline>
</glyph>
<glyph name="quotedblright" format="2">
  <advance width="435"/>
  <unicode hex="201D"/>
  <outline>
    <contour>
      <point x="217" y="722" type="line"/>
      <point x="107" y="472" type="line"/>
      <point x="37" y="472" type="line"/>
      <point x="97" y="722" type="line"/>
    </contour>
    <contour>
      <point x="400" y="722" type="line"/>
      <point x="290" y="472" type="line"/>
      <point x="220" y="472" type="line"/>
      <point x="280" y="722" type="line"/>
    </contour>
  </outline>
</glyph>
<glyph name="quotedblbase" format="2">
	<unicode hex="201E"/>
	<advance width="435"/>
	<outline>
		<contour>
			<point x="217" y="123" type="line"/>
			<point x="107" y="-127" type="line"/>
			<point x="37" y="-127" type="line"/>
			<point x="97" y="123" type="line"/>
		</contour>
		<contour>
			<point x="400" y="123" type="line"/>
			<point x="290" y="-127" type="line"/>
			<point x="220" y="-127" type="line"/>
			<point x="280" y="123" type="line"/>
		</contour>
	</outline>
</glyph>
<glyph name="dagger" format="2">
  <advance width="558"/>
  <unicode hex="2020"/>
  <outline>
    <contour>
      <point x="513" y="426" type="line"/>
      <point x="321" y="426" type="line"/>
      <point x="321" y="-160" type="line"/>
      <point x="238" y="-160" type="line"/>
      <point x="238" y="426" type="line"/>
      <point x="46" y="426" type="line"/>
      <point x="46" y="500" type="line"/>
      <point x="238" y="500" type="line"/>
      <point x="238" y="722" type="line"/>
      <point x="321" y="722" type="line"/>
      <point x="321" y="500" type="line"/>
      <point x="513" y="500" type="line"/>
    </contour>
  </outline>
</glyph>
